<?xml version="1.0" encoding="utf-8"?>
<!-- Generator: Adobe Illustrator 25.0.0, SVG Export Plug-In . SVG Version: 6.00 Build 0)  -->
<svg version="1.1" id="Layer_1" xmlns="http://www.w3.org/2000/svg" xmlns:xlink="http://www.w3.org/1999/xlink" x="0px" y="0px"
	 viewBox="0 0 6321.65 2160" style="enable-background:new 0 0 6321.65 2160;" xml:space="preserve">
<style type="text/css">
	.st0{fill:#FFFFFF;}
	.st1{fill:#FFE42D;}
	.st2{fill:#A3831D;}
	.st3{fill:#F0CB1A;}
</style>
<g>
	<rect x="4237.19" y="-5779.96" width="1142.33" height="1142.33"/>
	<g>
		<path class="st0" d="M4308.34-4959.68c2.41,0,4.49,0.85,6.25,2.54c1.76,1.76,2.64,3.87,2.64,6.35v44.53
			c10.02-8.92,21.78-13.38,35.25-13.38c14.71,0,27.28,5.21,37.7,15.62c10.42,10.42,15.62,22.98,15.62,37.7
			c0,14.71-5.21,27.28-15.62,37.7c-10.42,10.42-22.98,15.62-37.7,15.62c-14.71,0-27.25-5.18-37.6-15.53
			c-10.42-10.35-15.66-22.85-15.72-37.5v-84.77c0-2.47,0.88-4.59,2.64-6.35c1.76-1.69,3.84-2.54,6.25-2.54H4308.34z
			 M4352.48-4901.38c-9.77,0-18.1,3.45-25,10.35c-6.84,6.9-10.25,15.23-10.25,25c0,9.7,3.42,18,10.25,24.9
			c6.9,6.9,15.23,10.35,25,10.35s18.07-3.45,24.9-10.35c6.9-6.9,10.35-15.2,10.35-24.9c0-9.77-3.45-18.1-10.35-25
			C4370.55-4897.93,4362.25-4901.38,4352.48-4901.38z"/>
		<path class="st0" d="M4521.23-4888.49c1.04,2.21,1.14,4.49,0.29,6.84c-0.85,2.28-2.41,3.94-4.69,4.98
			c-9.12,4.1-21.09,9.51-35.94,16.21c-18.42,8.33-30.37,13.74-35.84,16.21c7.03,8.98,16.28,13.48,27.73,13.48
			c7.62,0,14.52-2.25,20.7-6.74c5.99-4.36,10.19-10.02,12.6-16.99c1.43-4.04,4.3-6.05,8.59-6.05c3.06,0,5.5,1.27,7.32,3.81
			c1.76,2.48,2.12,5.18,1.07,8.11c-3.65,10.55-10.03,19.08-19.14,25.59c-9.31,6.71-19.69,10.06-31.15,10.06
			c-14.71,0-27.28-5.21-37.7-15.62c-10.42-10.42-15.62-22.98-15.62-37.7c0-14.71,5.21-27.28,15.62-37.7
			c10.42-10.42,22.98-15.62,37.7-15.62c10.61,0,20.31,2.9,29.1,8.69C4510.55-4905.29,4517-4897.8,4521.23-4888.49z M4472.79-4901.38
			c-9.77,0-18.1,3.45-25,10.35c-6.84,6.9-10.25,15.23-10.25,25c0,1.76,0.13,3.48,0.39,5.18l61.82-27.93
			C4492.71-4897.18,4483.73-4901.38,4472.79-4901.38z"/>
		<path class="st0" d="M4640.08-4888.49c1.04,2.21,1.14,4.49,0.29,6.84c-0.85,2.28-2.41,3.94-4.69,4.98
			c-9.12,4.1-21.09,9.51-35.94,16.21c-18.42,8.33-30.37,13.74-35.84,16.21c7.03,8.98,16.28,13.48,27.73,13.48
			c7.62,0,14.52-2.25,20.7-6.74c5.99-4.36,10.19-10.02,12.6-16.99c1.43-4.04,4.3-6.05,8.59-6.05c3.06,0,5.5,1.27,7.32,3.81
			c1.76,2.48,2.12,5.18,1.07,8.11c-3.65,10.55-10.03,19.08-19.14,25.59c-9.31,6.71-19.69,10.06-31.15,10.06
			c-14.71,0-27.28-5.21-37.7-15.62c-10.42-10.42-15.62-22.98-15.62-37.7c0-14.71,5.21-27.28,15.62-37.7
			c10.42-10.42,22.98-15.62,37.7-15.62c10.61,0,20.31,2.9,29.1,8.69C4629.4-4905.29,4635.84-4897.8,4640.08-4888.49z
			 M4591.64-4901.38c-9.77,0-18.1,3.45-25,10.35c-6.84,6.9-10.25,15.23-10.25,25c0,1.76,0.13,3.48,0.39,5.18l61.82-27.93
			C4611.56-4897.18,4602.58-4901.38,4591.64-4901.38z"/>
		<path class="st0" d="M4661.73-4955.8h28.8v142.8h-28.8V-4955.8z"/>
		<path class="st0" d="M4779.93-4858h0.4v-97.8h26.4v142.8h-32.8l-35.2-100h-0.4v100h-26.4v-142.8h33.2L4779.93-4858z"/>
		<path class="st0" d="M4906.53-4955.8v23.6h-51v33.6h48v23.6h-48v62h-28.8v-142.8H4906.53z"/>
		<path class="st0" d="M4920.73-4955.8h28.8v142.8h-28.8V-4955.8z"/>
		<path class="st0" d="M5038.93-4858h0.4v-97.8h26.4v142.8h-32.8l-35.2-100h-0.4v100h-26.4v-142.8h33.2L5038.93-4858z"/>
		<path class="st0" d="M5087.12-4955.8h28.8v142.8h-28.8V-4955.8z"/>
		<path class="st0" d="M5220.92-4932.2h-31.2v119.2h-28.8v-119.2h-31.2v-23.6h91.2V-4932.2z"/>
		<path class="st0" d="M5275.12-4900.6h0.4l20-55.2h31.2l-37,86.6v56.2h-28.8v-56.2l-37-86.6h32.4L5275.12-4900.6z"/>
	</g>
	<path class="st0" d="M4809.59-5030.02c-68.29,0.63-124.92-49.26-137.91-113.86c-14.34-71.34,26.89-155.13,113.58-171.45
		c20.84-3.92,41.39,0.1,61.94,3.16c37.35,5.57,74.4,13.63,112.45,13.07c45.01-0.66,84.06-36.17,88.48-81.03
		c4.8-48.77-24.46-91.93-69.95-101.34c-35.53-7.35-65.74,4.83-91.55,30.09c-17.67,17.29-33.33,36.54-50.19,54.61
		c-34.07,36.53-69.42,71.6-111.13,99.07c-20.16,13.28-42.15,21.28-66.11,21.71c-51.06,0.91-94.91-32.92-109.15-81.26
		c-22.57-76.62,33.57-152.06,111.23-149.68c13.36,0.41,26.12,3.97,38.66,8.74c30.05,11.43,60.43,21.74,91.8,28.75
		c20.92,4.67,39.23,1.2,52.89-17.11c11.67-15.65,11.62-38.82,0.36-54.93c-11.51-16.47-31.95-23.39-50.62-17.13
		c-19.13,6.41-31.35,23.73-31.36,44.22c0,4.6,0.62,9.04,1.59,13.5c1.49,6.85-1.69,12.71-7.64,14.52c-6.08,1.84-12.32-1.78-14.2-8.9
		c-5.78-21.79-2.18-42.06,10.75-60.22c18.3-25.7,50.2-35.27,78.72-24.12c28.25,11.06,46.15,40.46,43.67,71.75
		c-2.93,36.95-35.82,65.81-71.42,63.18c-26.98-1.99-52.24-11.05-77.69-19.3c-13.69-4.44-27.03-9.99-40.71-14.45
		c-34.37-11.2-65.63-4.68-91.45,21.09c-26.53,26.48-33.86,59.67-22.26,95.46c11.28,34.8,36.06,55.44,71.46,61.4
		c30.71,5.17,56.82-6.8,81.01-24.67c41.75-30.83,78.21-67.57,112.51-106.78c18.35-20.98,36.36-42.58,60.36-57.16
		c75.58-45.9,163.14,1.82,173.18,85.17c7.06,58.58-33.65,115.03-90.52,125.87c-23.19,4.42-46.31,2.3-69.33-0.85
		c-31.74-4.35-63.29-10.33-95.1-13.97c-46.59-5.33-93.71,23.85-113.09,68.46c-25.34,58.32-7.5,121.35,45.27,154.13
		c71.96,44.71,162.7-1.06,175.21-83.95c6.03-40.01-5.41-74.16-33.36-102.51c-3.37-3.42-6.85-6.84-5.99-12.2
		c0.67-4.19,2.75-7.84,6.92-9.35c4.79-1.74,9.05-0.55,12.81,3.07c19.38,18.64,33.14,40.95,39.6,67.44
		c19.3,79.09-29.73,158.77-107.34,175.03C4826.63-5030.77,4817.14-5030.22,4809.59-5030.02z"/>
	<path class="st0" d="M4808.09-5157.99c-24.09,0.01-48.19,0.02-72.28,0.01c-8.79,0-14.28-4.35-14.23-11.24
		c0.04-6.61,5.36-11.3,13.68-11.31c48.63-0.09,97.26-0.09,145.89,0.01c8.29,0.02,13.47,4.74,13.46,11.43
		c-0.01,6.78-5.23,11.09-13.57,11.1C4856.72-5157.98,4832.41-5158,4808.09-5157.99z"/>
	<path class="st0" d="M4807.57-5597.86c-20.93-0.25-37.47-8.06-50-24c-4.76-6.05-4.49-11.47,0.51-15.65
		c4.75-3.97,10.46-3.02,15.43,2.59c19.62,22.12,47.45,22.09,66.76-0.07c4.81-5.52,10.75-6.47,15.46-2.47
		c4.91,4.18,5.19,9.85,0.48,15.7C4843.53-5606.02,4827.1-5597.96,4807.57-5597.86z"/>
	<path class="st0" d="M4807.69-5106.51c-15.9-0.01-31.81,0.06-47.71-0.03c-7.23-0.04-11.98-3.35-13.18-8.77
		c-1.71-7.74,3.62-13.9,12.44-13.93c22.53-0.1,45.06-0.03,67.6-0.03c9.94,0,19.88-0.04,29.82,0.01c8.07,0.04,12.85,4.08,13.02,10.88
		c0.17,7.1-4.62,11.74-12.95,11.83C4840.38-5106.38,4824.03-5106.5,4807.69-5106.51z"/>
	<path class="st0" d="M4808.79-5231.62c15.9,0,31.8-0.03,47.7,0.01c8.28,0.02,12.91,3.84,13.16,10.68
		c0.25,7.07-4.54,11.99-12.79,12.03c-32.68,0.17-65.36,0.17-98.04,0.01c-7.47-0.04-12.46-5.37-12.25-11.99
		c0.21-6.48,4.95-10.66,12.54-10.7C4775.67-5231.67,4792.23-5231.61,4808.79-5231.62z"/>
	<circle class="st0" cx="4750.85" cy="-5639.93" r="18.7"/>
	<circle class="st0" cx="4863.91" cy="-5639.93" r="18.7"/>
	<polygon class="st0" points="4808.36,-5001.05 4823.52,-5030.85 4794.29,-5030.73 	"/>
	<g>
		<path class="st0" d="M4585.94-5402.17c0.97-6.67,3.6-13.11,7.11-18.99c3.54-5.88,8.01-11.2,13.1-15.83
			c5.09-4.63,10.88-8.48,17.06-11.43c6.2-2.94,12.66-5.19,19.2-6.97c6.55-1.77,13.22-2.91,19.92-3.45c6.7-0.5,13.42-0.41,20.06,0.27
			c6.64,0.72,13.19,2.01,19.54,3.94l4.72,1.56l4.62,1.8l4.49,2.08l4.36,2.32l-0.45,0.9c-11.97-5.05-24.82-7.5-37.58-7.6
			c-6.38-0.11-12.75,0.35-19,1.35c-6.26,0.95-12.41,2.45-18.33,4.5c-5.93,2.04-11.56,4.82-16.86,8.04
			c-5.31,3.21-10.41,6.65-15.33,10.38c-4.92,3.73-9.57,7.84-13.86,12.39c-4.32,4.55-8.2,9.56-11.83,15.1L4585.94-5402.17z"/>
	</g>
	<g>
		<path class="st0" d="M5022.92-5369.03c-0.97,6.67-3.6,13.11-7.11,18.99c-3.54,5.88-8.01,11.2-13.1,15.83
			c-5.09,4.63-10.88,8.48-17.06,11.43c-6.2,2.94-12.66,5.19-19.2,6.97c-6.55,1.77-13.22,2.91-19.92,3.45
			c-6.7,0.5-13.42,0.41-20.06-0.27c-6.64-0.72-13.19-2.01-19.54-3.94l-4.72-1.56l-4.62-1.8l-4.49-2.08l-4.36-2.32l0.45-0.89
			c11.97,5.05,24.82,7.5,37.58,7.6c6.38,0.11,12.75-0.35,19-1.35c6.26-0.95,12.41-2.45,18.33-4.5c5.93-2.04,11.56-4.82,16.86-8.04
			c5.31-3.21,10.41-6.65,15.33-10.38c4.92-3.73,9.57-7.84,13.86-12.39c4.32-4.55,8.2-9.56,11.83-15.1L5022.92-5369.03z"/>
	</g>
</g>
<g>
	<rect x="2895.92" y="-5261.51" class="st1" width="1142.33" height="1142.33"/>
	<g>
		<path d="M2967.07-4441.23c2.41,0,4.49,0.85,6.25,2.54c1.76,1.76,2.64,3.87,2.64,6.35v44.53c10.02-8.92,21.78-13.38,35.25-13.38
			c14.71,0,27.28,5.21,37.7,15.62c10.42,10.42,15.62,22.98,15.62,37.7c0,14.71-5.21,27.28-15.62,37.7
			c-10.42,10.42-22.98,15.62-37.7,15.62c-14.71,0-27.25-5.18-37.6-15.53c-10.42-10.35-15.66-22.85-15.72-37.5v-84.77
			c0-2.47,0.88-4.59,2.64-6.35c1.76-1.69,3.84-2.54,6.25-2.54H2967.07z M3011.21-4382.93c-9.77,0-18.1,3.45-25,10.35
			c-6.84,6.9-10.25,15.23-10.25,25c0,9.7,3.42,18,10.25,24.9c6.9,6.9,15.23,10.35,25,10.35s18.07-3.45,24.9-10.35
			c6.9-6.9,10.35-15.2,10.35-24.9c0-9.77-3.45-18.1-10.35-25C3029.27-4379.48,3020.97-4382.93,3011.21-4382.93z"/>
		<path d="M3179.96-4370.04c1.04,2.21,1.14,4.49,0.29,6.84c-0.85,2.28-2.41,3.94-4.69,4.98c-9.12,4.1-21.09,9.51-35.94,16.21
			c-18.42,8.33-30.37,13.74-35.84,16.21c7.03,8.98,16.28,13.48,27.73,13.48c7.62,0,14.52-2.25,20.7-6.74
			c5.99-4.36,10.19-10.02,12.6-16.99c1.43-4.04,4.3-6.05,8.59-6.05c3.06,0,5.5,1.27,7.32,3.81c1.76,2.48,2.12,5.18,1.07,8.11
			c-3.65,10.55-10.03,19.08-19.14,25.59c-9.31,6.71-19.69,10.06-31.15,10.06c-14.71,0-27.28-5.21-37.7-15.62
			c-10.42-10.42-15.62-22.98-15.62-37.7c0-14.71,5.21-27.28,15.62-37.7c10.42-10.42,22.98-15.62,37.7-15.62
			c10.61,0,20.31,2.9,29.1,8.69C3169.28-4386.84,3175.72-4379.35,3179.96-4370.04z M3131.52-4382.93c-9.77,0-18.1,3.45-25,10.35
			c-6.84,6.9-10.25,15.23-10.25,25c0,1.76,0.13,3.48,0.39,5.18l61.82-27.93C3151.44-4378.73,3142.46-4382.93,3131.52-4382.93z"/>
		<path d="M3298.8-4370.04c1.04,2.21,1.14,4.49,0.29,6.84c-0.85,2.28-2.41,3.94-4.69,4.98c-9.12,4.1-21.09,9.51-35.94,16.21
			c-18.42,8.33-30.37,13.74-35.84,16.21c7.03,8.98,16.28,13.48,27.73,13.48c7.62,0,14.52-2.25,20.7-6.74
			c5.99-4.36,10.19-10.02,12.6-16.99c1.43-4.04,4.3-6.05,8.59-6.05c3.06,0,5.5,1.27,7.32,3.81c1.76,2.48,2.12,5.18,1.07,8.11
			c-3.65,10.55-10.03,19.08-19.14,25.59c-9.31,6.71-19.69,10.06-31.15,10.06c-14.71,0-27.28-5.21-37.7-15.62
			c-10.42-10.42-15.62-22.98-15.62-37.7c0-14.71,5.21-27.28,15.62-37.7c10.42-10.42,22.98-15.62,37.7-15.62
			c10.61,0,20.31,2.9,29.1,8.69C3288.13-4386.84,3294.57-4379.35,3298.8-4370.04z M3250.37-4382.93c-9.77,0-18.1,3.45-25,10.35
			c-6.84,6.9-10.25,15.23-10.25,25c0,1.76,0.13,3.48,0.39,5.18l61.82-27.93C3270.29-4378.73,3261.3-4382.93,3250.37-4382.93z"/>
		<path d="M3320.46-4437.35h28.8v142.8h-28.8V-4437.35z"/>
		<path d="M3438.66-4339.55h0.4v-97.8h26.4v142.8h-32.8l-35.2-100h-0.4v100h-26.4v-142.8h33.2L3438.66-4339.55z"/>
		<path d="M3565.25-4437.35v23.6h-51v33.6h48v23.6h-48v62h-28.8v-142.8H3565.25z"/>
		<path d="M3579.46-4437.35h28.8v142.8h-28.8V-4437.35z"/>
		<path d="M3697.65-4339.55h0.4v-97.8h26.4v142.8h-32.8l-35.2-100h-0.4v100h-26.4v-142.8h33.2L3697.65-4339.55z"/>
		<path d="M3745.85-4437.35h28.8v142.8h-28.8V-4437.35z"/>
		<path d="M3879.65-4413.75h-31.2v119.2h-28.8v-119.2h-31.2v-23.6h91.2V-4413.75z"/>
		<path d="M3933.85-4382.15h0.4l20-55.2h31.2l-37,86.6v56.2h-28.8v-56.2l-37-86.6h32.4L3933.85-4382.15z"/>
	</g>
	<circle class="st1" cx="3473.23" cy="-4654.43" r="127.48"/>
	<circle class="st1" cx="3464.44" cy="-4997.82" r="51.56"/>
	<path d="M3468.32-4511.58c-68.29,0.63-124.92-49.26-137.91-113.86c-14.34-71.34,26.89-155.13,113.58-171.45
		c20.84-3.92,41.39,0.1,61.94,3.16c37.35,5.57,74.4,13.63,112.45,13.07c45.01-0.66,84.06-36.17,88.48-81.03
		c4.8-48.77-24.46-91.92-69.95-101.34c-35.52-7.35-65.74,4.83-91.55,30.09c-17.67,17.29-33.33,36.54-50.19,54.61
		c-34.07,36.53-69.42,71.6-111.13,99.07c-20.16,13.28-42.15,21.29-66.11,21.71c-51.06,0.91-94.91-32.92-109.15-81.26
		c-22.57-76.62,33.57-152.06,111.23-149.68c13.36,0.41,26.12,3.97,38.66,8.74c30.05,11.43,60.43,21.74,91.8,28.75
		c20.92,4.67,39.23,1.2,52.89-17.11c11.67-15.65,11.62-38.82,0.36-54.93c-11.51-16.47-31.95-23.39-50.62-17.13
		c-19.13,6.41-31.35,23.73-31.36,44.22c0,4.6,0.62,9.04,1.59,13.5c1.49,6.85-1.69,12.71-7.64,14.51c-6.08,1.84-12.32-1.78-14.2-8.9
		c-5.78-21.79-2.18-42.06,10.75-60.22c18.3-25.7,50.2-35.27,78.72-24.11c28.25,11.05,46.15,40.46,43.67,71.75
		c-2.93,36.95-35.82,65.81-71.42,63.18c-26.98-1.99-52.24-11.05-77.69-19.3c-13.69-4.44-27.03-9.99-40.71-14.45
		c-34.37-11.2-65.63-4.68-91.45,21.09c-26.53,26.48-33.86,59.67-22.26,95.46c11.28,34.8,36.05,55.44,71.46,61.4
		c30.71,5.17,56.82-6.8,81.01-24.67c41.75-30.83,78.21-67.57,112.51-106.78c18.35-20.98,36.36-42.58,60.36-57.16
		c75.58-45.9,163.14,1.82,173.18,85.17c7.06,58.58-33.65,115.03-90.52,125.87c-23.19,4.42-46.31,2.3-69.33-0.85
		c-31.74-4.35-63.29-10.33-95.1-13.97c-46.59-5.33-93.71,23.85-113.09,68.46c-25.34,58.32-7.5,121.35,45.27,154.13
		c71.96,44.71,162.7-1.06,175.21-83.95c6.03-40-5.41-74.16-33.36-102.5c-3.37-3.42-6.85-6.84-5.99-12.2
		c0.67-4.19,2.76-7.84,6.92-9.35c4.79-1.74,9.05-0.55,12.81,3.07c19.38,18.64,33.14,40.95,39.6,67.44
		c19.3,79.09-29.73,158.77-107.34,175.03C3485.35-4512.33,3475.87-4511.78,3468.32-4511.58z"/>
	<path class="st2" d="M3466.82-4639.54c-24.09,0.01-48.19,0.02-72.28,0.01c-8.79,0-14.28-4.35-14.23-11.24
		c0.04-6.61,5.36-11.3,13.68-11.31c48.63-0.09,97.26-0.09,145.89,0.01c8.29,0.02,13.47,4.74,13.46,11.43
		c-0.01,6.78-5.23,11.09-13.57,11.09C3515.45-4639.54,3491.13-4639.55,3466.82-4639.54z"/>
	<path d="M3466.3-5079.41c-20.93-0.25-37.47-8.06-50-24c-4.76-6.05-4.49-11.47,0.51-15.65c4.75-3.97,10.46-3.02,15.43,2.59
		c19.62,22.12,47.45,22.09,66.76-0.07c4.81-5.52,10.75-6.47,15.46-2.47c4.91,4.18,5.19,9.86,0.48,15.7
		C3502.26-5087.57,3485.82-5079.51,3466.3-5079.41z"/>
	<path class="st2" d="M3466.41-4588.06c-15.91-0.01-31.81,0.06-47.72-0.03c-7.23-0.04-11.98-3.35-13.18-8.77
		c-1.71-7.74,3.62-13.9,12.44-13.93c22.53-0.1,45.06-0.03,67.6-0.03c9.94,0,19.88-0.04,29.82,0.01c8.07,0.04,12.85,4.08,13.02,10.88
		c0.17,7.1-4.62,11.74-12.95,11.83C3499.11-4587.93,3482.76-4588.05,3466.41-4588.06z"/>
	<path class="st2" d="M3467.52-4713.17c15.9,0,31.8-0.03,47.7,0.01c8.28,0.02,12.91,3.84,13.16,10.68
		c0.25,7.07-4.54,11.99-12.79,12.03c-32.68,0.17-65.36,0.17-98.04,0.01c-7.47-0.04-12.46-5.37-12.25-11.99
		c0.21-6.48,4.95-10.66,12.54-10.7C3434.4-4713.22,3450.96-4713.16,3467.52-4713.17z"/>
	<circle cx="3409.58" cy="-5121.48" r="18.7"/>
	<circle cx="3522.63" cy="-5121.48" r="18.7"/>
	<polygon points="3467.08,-4482.6 3482.25,-4512.41 3453.02,-4512.29 	"/>
	<g>
		<path d="M3244.67-4883.72c0.97-6.67,3.6-13.11,7.11-18.99c3.54-5.88,8.01-11.2,13.1-15.83c5.09-4.63,10.88-8.48,17.06-11.43
			c6.2-2.94,12.66-5.19,19.2-6.97c6.55-1.77,13.22-2.91,19.92-3.45c6.7-0.5,13.42-0.41,20.06,0.26c6.64,0.72,13.19,2.01,19.54,3.94
			l4.72,1.56l4.62,1.8l4.49,2.08l4.36,2.32l-0.45,0.89c-11.97-5.05-24.82-7.5-37.58-7.6c-6.38-0.1-12.75,0.35-19,1.35
			c-6.26,0.95-12.41,2.45-18.33,4.5c-5.93,2.04-11.56,4.82-16.86,8.04c-5.31,3.21-10.41,6.65-15.33,10.38
			c-4.92,3.73-9.57,7.84-13.86,12.39c-4.32,4.55-8.2,9.56-11.83,15.1L3244.67-4883.72z"/>
	</g>
	<g>
		<path d="M3681.65-4850.58c-0.97,6.67-3.6,13.11-7.11,18.99c-3.54,5.88-8.01,11.2-13.1,15.83c-5.09,4.63-10.88,8.48-17.06,11.43
			c-6.2,2.94-12.66,5.19-19.2,6.97c-6.55,1.77-13.22,2.91-19.92,3.45c-6.7,0.5-13.42,0.41-20.06-0.26
			c-6.64-0.72-13.19-2.01-19.54-3.94l-4.72-1.56l-4.62-1.8l-4.49-2.08l-4.36-2.32l0.45-0.89c11.97,5.05,24.82,7.5,37.58,7.6
			c6.38,0.1,12.75-0.35,19-1.35c6.26-0.95,12.41-2.45,18.33-4.5c5.93-2.04,11.56-4.82,16.86-8.04c5.31-3.21,10.41-6.65,15.33-10.38
			c4.92-3.73,9.57-7.84,13.86-12.39c4.32-4.55,8.2-9.56,11.83-15.1L3681.65-4850.58z"/>
	</g>
</g>
<g>
	<circle class="st1" cx="281.36" cy="-2343.51" r="301.58"/>
	<circle class="st1" cx="260.57" cy="-3155.85" r="121.98"/>
	<path d="M269.74-2005.56c-161.55,1.5-295.53-116.54-326.24-269.35c-33.92-168.77,63.62-366.99,268.7-405.58
		c49.3-9.28,97.91,0.23,146.54,7.48c88.35,13.18,175.99,32.24,266.02,30.93c106.49-1.55,198.87-85.57,209.3-191.68
		c11.34-115.36-57.86-217.46-165.48-239.73c-84.04-17.39-155.52,11.42-216.57,71.18c-41.8,40.91-78.85,86.43-118.72,129.19
		c-80.6,86.42-164.23,169.38-262.89,234.36c-47.68,31.41-99.71,50.35-156.4,51.36c-120.8,2.16-224.53-77.88-258.22-192.24
		c-53.4-181.25,79.43-359.71,263.14-354.09c31.59,0.97,61.79,9.39,91.46,20.68c71.08,27.04,142.95,51.43,217.17,68.01
		c49.49,11.05,92.81,2.84,125.12-40.48c27.61-37.01,27.49-91.83,0.86-129.95c-27.23-38.97-75.58-55.33-119.74-40.53
		c-45.26,15.17-74.16,56.14-74.19,104.61c-0.01,10.88,1.46,21.38,3.76,31.94c3.53,16.21-4.01,30.07-18.07,34.34
		c-14.38,4.36-29.13-4.22-33.6-21.05c-13.68-51.56-5.17-99.5,25.43-142.46c43.29-60.8,118.76-83.44,186.22-57.05
		c66.83,26.15,109.17,95.72,103.3,169.73c-6.93,87.4-84.74,155.69-168.95,149.47c-63.84-4.72-123.58-26.15-183.79-45.67
		c-32.38-10.5-63.94-23.64-96.31-34.19c-81.3-26.49-155.26-11.07-216.34,49.89c-62.77,62.65-80.1,141.16-52.65,225.82
		c26.69,82.32,85.29,131.16,169.04,145.26c72.65,12.23,134.42-16.1,191.64-58.36c98.76-72.94,185.01-159.85,266.15-252.61
		c43.41-49.63,86.01-100.73,142.79-135.22c178.79-108.59,385.93,4.31,409.68,201.49c16.7,138.58-79.59,272.13-214.15,297.76
		c-54.87,10.45-109.54,5.45-164-2.02c-75.08-10.3-149.72-24.43-224.96-33.04c-110.22-12.61-221.67,56.43-267.52,161.95
		c-59.95,137.97-17.73,287.06,107.1,364.62c170.23,105.76,384.9-2.52,414.48-198.59c14.28-94.64-12.8-175.44-78.93-242.49
		c-7.98-8.09-16.2-16.18-14.17-28.86c1.58-9.9,6.52-18.55,16.36-22.11c11.33-4.11,21.41-1.31,30.31,7.25
		c45.85,44.1,78.39,96.87,93.69,159.55c45.66,187.09-70.33,375.59-253.94,414.06C310.04-2007.34,287.6-2006.04,269.74-2005.56z"/>
	<path class="st2" d="M266.19-2308.28c-57,0.02-113.99,0.04-170.99,0.01c-20.8-0.01-33.77-10.3-33.67-26.6
		c0.1-15.64,12.68-26.73,32.36-26.76c115.04-0.22,230.08-0.22,345.12,0.01c19.62,0.04,31.87,11.2,31.85,27.05
		c-0.02,16.04-12.38,26.23-32.11,26.25C381.23-2308.27,323.71-2308.3,266.19-2308.28z"/>
	<path d="M264.96-3348.86c-49.51-0.58-88.64-19.06-118.29-56.77c-11.25-14.31-10.63-27.12,1.2-37.03c11.23-9.4,24.74-7.14,36.5,6.12
		c46.42,52.33,112.25,52.27,157.93-0.16c11.38-13.06,25.44-15.3,36.57-5.83c11.63,9.88,12.28,23.31,1.14,37.15
		C350.03-3368.17,311.15-3349.09,264.96-3348.86z"/>
	<path class="st2" d="M265.24-2186.49c-37.63-0.01-75.25,0.13-112.88-0.08c-17.1-0.1-28.34-7.92-31.18-20.75
		c-4.05-18.31,8.57-32.87,29.44-32.96c53.3-0.23,106.61-0.07,159.91-0.07c23.52,0,47.03-0.09,70.55,0.02
		c19.1,0.09,30.4,9.66,30.8,25.75c0.41,16.79-10.93,27.77-30.62,27.98C342.58-2186.19,303.91-2186.48,265.24-2186.49z"/>
	<path class="st2" d="M267.85-2482.46c37.61-0.01,75.22-0.08,112.84,0.02c19.59,0.05,30.55,9.09,31.13,25.27
		c0.6,16.72-10.75,28.35-30.26,28.45c-77.31,0.39-154.63,0.4-231.94,0.02c-17.67-0.09-29.48-12.7-28.98-28.37
		c0.49-15.32,11.72-25.22,29.67-25.32C189.5-2482.58,228.68-2482.44,267.85-2482.46z"/>
	<circle cx="130.78" cy="-3448.38" r="44.23"/>
	<circle cx="398.23" cy="-3448.38" r="44.23"/>
	<polygon points="266.83,-1937.02 302.7,-2007.53 233.54,-2007.24 	"/>
	<g>
		<path d="M-258.69-2885.68c4.11-15.01,11.18-29.27,20.05-42.25l3.35-4.87c1.17-1.58,2.43-3.09,3.64-4.65l3.69-4.62l3.93-4.42
			c1.32-1.47,2.62-2.96,4-4.36l4.21-4.15c1.42-1.37,2.77-2.81,4.26-4.11l4.43-3.93c11.93-10.34,25.15-19.16,39.18-26.32
			c1.76-0.88,3.48-1.85,5.28-2.65l5.38-2.44c1.8-0.79,3.57-1.66,5.39-2.39l5.48-2.17c1.83-0.72,3.64-1.47,5.48-2.16l5.58-1.9
			l5.57-1.9l5.66-1.62c30.15-8.69,61.71-11.69,92.77-9.36c15.52,1.25,30.93,3.86,45.91,7.96l11.15,3.35
			c3.67,1.27,7.31,2.61,10.96,3.91c3.58,1.48,7.14,3.02,10.71,4.53l10.42,5.12l-0.45,0.89c-27.94-12.98-58.48-19.61-89-20.78
			c-30.53-1.3-61.25,2.67-90.12,12.02l-5.41,1.76l-5.31,2.03l-5.31,2.03c-1.75,0.72-3.47,1.52-5.2,2.28l-5.19,2.31
			c-1.72,0.78-3.38,1.7-5.08,2.54l-5.05,2.57c-1.69,0.84-3.29,1.85-4.94,2.77c-13.16,7.42-25.7,15.84-37.45,25.27l-4.41,3.54
			c-1.48,1.17-2.83,2.49-4.25,3.73l-4.22,3.77c-1.39,1.28-2.67,2.65-4.05,3.95l-4.06,3.95l-3.83,4.17c-1.27,1.4-2.57,2.77-3.82,4.19
			l-3.63,4.36c-9.63,11.69-17.98,24.5-24.74,38.38L-258.69-2885.68z"/>
	</g>
	<g>
		<path d="M773.77-2807.77c-4.11,15.01-11.18,29.27-20.05,42.25l-3.35,4.87c-1.17,1.58-2.43,3.09-3.64,4.65l-3.69,4.62l-3.93,4.42
			c-1.32,1.47-2.62,2.96-4,4.36l-4.21,4.15c-1.42,1.37-2.77,2.81-4.26,4.11l-4.43,3.93c-11.93,10.34-25.15,19.16-39.18,26.32
			c-1.76,0.88-3.48,1.85-5.28,2.65l-5.38,2.44c-1.8,0.79-3.57,1.66-5.39,2.39l-5.48,2.17c-1.83,0.72-3.64,1.47-5.48,2.16l-5.58,1.9
			l-5.57,1.9l-5.66,1.62c-30.14,8.69-61.71,11.69-92.77,9.36c-15.52-1.25-30.93-3.86-45.91-7.96l-11.15-3.35
			c-3.67-1.27-7.31-2.61-10.96-3.91c-3.58-1.48-7.14-3.02-10.71-4.53l-10.42-5.12l0.45-0.89c27.94,12.98,58.48,19.61,89,20.78
			c30.53,1.3,61.25-2.67,90.12-12.02l5.41-1.76l5.31-2.04l5.31-2.03c1.75-0.72,3.47-1.52,5.2-2.28l5.19-2.31
			c1.72-0.78,3.38-1.7,5.08-2.54l5.05-2.57c1.69-0.84,3.29-1.85,4.94-2.77c13.16-7.42,25.7-15.84,37.45-25.27l4.41-3.54
			c1.48-1.17,2.83-2.49,4.25-3.73l4.22-3.77c1.39-1.28,2.68-2.65,4.05-3.95l4.06-3.95l3.83-4.17c1.27-1.4,2.57-2.77,3.82-4.19
			l3.63-4.36c9.63-11.69,17.98-24.5,24.74-38.38L773.77-2807.77z"/>
	</g>
</g>
<g>
	<g>
		<circle class="st1" cx="1093.94" cy="1483.25" r="289.26"/>
		<circle class="st1" cx="1074" cy="704.1" r="116.99"/>
		<path d="M1082.79,1807.39c-154.95,1.44-283.45-111.78-312.91-258.34c-32.53-161.88,61.02-352,257.72-389.01
			c47.29-8.9,93.91,0.22,140.55,7.17c84.74,12.64,168.8,30.92,255.15,29.66c102.14-1.49,190.74-82.08,200.75-183.85
			c10.88-110.65-55.5-208.58-158.71-229.94c-80.61-16.68-149.16,10.95-207.72,68.27c-40.09,39.23-75.62,82.9-113.87,123.91
			c-77.31,82.89-157.52,162.46-252.15,224.78c-45.73,30.12-95.64,48.29-150.01,49.27c-115.86,2.07-215.35-74.7-247.67-184.39
			C442.7,891.1,570.1,719.92,746.3,725.32c30.3,0.93,59.27,9.01,87.72,19.83c68.17,25.94,137.11,49.33,208.3,65.23
			c47.47,10.6,89.02,2.73,120.01-38.82c26.48-35.5,26.37-88.08,0.82-124.64c-26.12-37.37-72.49-53.07-114.85-38.88
			c-43.41,14.55-71.13,53.84-71.16,100.33c-0.01,10.43,1.4,20.51,3.61,30.64c3.39,15.54-3.84,28.84-17.33,32.93
			c-13.79,4.18-27.94-4.05-32.23-20.19c-13.12-49.45-4.96-95.43,24.39-136.64c41.52-58.31,113.91-80.04,178.61-54.72
			c64.1,25.08,104.71,91.81,99.08,162.8c-6.65,83.83-81.28,149.33-162.04,143.36c-61.23-4.52-118.53-25.08-176.28-43.8
			c-31.05-10.07-61.33-22.67-92.37-32.79c-77.97-25.41-148.92-10.62-207.5,47.85c-60.2,60.09-76.83,135.4-50.5,216.59
			c25.6,78.96,81.81,125.8,162.13,139.32c69.68,11.73,128.93-15.44,183.81-55.97c94.72-69.96,177.45-153.32,255.28-242.29
			c41.64-47.6,82.5-96.62,136.96-129.7c171.49-104.15,370.16,4.13,392.94,193.26c16.01,132.92-76.34,261.01-205.4,285.6
			c-52.63,10.03-105.07,5.23-157.3-1.94c-72.02-9.88-143.6-23.43-215.77-31.69c-105.71-12.1-212.62,54.12-256.59,155.33
			c-57.5,132.33-17.01,275.33,102.73,349.72c163.28,101.44,369.17-2.42,397.54-190.47c13.69-90.77-12.28-168.27-75.7-232.58
			c-7.65-7.76-15.53-15.52-13.59-27.68c1.52-9.5,6.25-17.79,15.69-21.21c10.87-3.94,20.54-1.26,29.07,6.96
			c43.98,42.3,75.18,92.91,89.86,153.03c43.8,179.45-67.46,360.24-243.56,397.14C1121.45,1805.68,1099.93,1806.93,1082.79,1807.39z"
			/>
		<path class="st2" d="M1079.39,1517.04c-54.67,0.02-109.34,0.04-164.01,0.01c-19.95-0.01-32.39-9.88-32.29-25.51
			c0.1-15,12.16-25.63,31.04-25.67c110.34-0.21,220.68-0.22,331.02,0.01c18.82,0.04,30.57,10.75,30.55,25.94
			c-0.02,15.38-11.88,25.16-30.8,25.17C1189.73,1517.05,1134.56,1517.02,1079.39,1517.04z"/>
		<path d="M1078.21,518.97c-47.48-0.56-85.02-18.28-113.46-54.45c-10.79-13.73-10.2-26.02,1.15-35.52
			c10.77-9.02,23.73-6.84,35.01,5.87c44.52,50.19,107.66,50.13,151.48-0.15c10.91-12.52,24.4-14.67,35.08-5.6
			c11.15,9.48,11.78,22.36,1.09,35.63C1159.81,500.46,1122.52,518.76,1078.21,518.97z"/>
		<path class="st2" d="M1078.48,1633.85c-36.09-0.01-72.18,0.13-108.26-0.08c-16.41-0.09-27.18-7.6-29.91-19.9
			c-3.89-17.56,8.22-31.53,28.23-31.62c51.12-0.22,102.25-0.07,153.37-0.07c22.56,0,45.11-0.09,67.67,0.02
			c18.32,0.09,29.16,9.26,29.54,24.7c0.4,16.1-10.48,26.64-29.37,26.84C1152.66,1634.14,1115.57,1633.86,1078.48,1633.85z"/>
		<path class="st2" d="M1080.99,1349.98c36.07-0.01,72.15-0.08,108.22,0.02c18.78,0.05,29.3,8.72,29.86,24.24
			c0.58,16.04-10.31,27.2-29.02,27.29c-74.15,0.38-148.31,0.38-222.46,0.02c-16.95-0.08-28.27-12.18-27.79-27.21
			c0.47-14.69,11.24-24.19,28.46-24.28C1005.83,1349.86,1043.41,1349.99,1080.99,1349.98z"/>
		<circle cx="949.52" cy="423.52" r="42.42"/>
		<circle cx="1206.04" cy="423.52" r="42.42"/>
		<polygon points="1080,1873.12 1114.41,1805.5 1048.08,1805.78 		"/>
		<g>
			<path d="M575.93,963.22c3.89-14.42,10.64-28.13,19.13-40.6l3.21-4.68c1.12-1.52,2.33-2.97,3.49-4.47l3.53-4.44l3.76-4.25
				c1.26-1.41,2.51-2.84,3.83-4.19l4.04-3.99c1.36-1.31,2.66-2.7,4.08-3.95l4.25-3.77c11.44-9.94,24.14-18.41,37.62-25.27
				c1.69-0.84,3.34-1.77,5.07-2.54l5.16-2.33c1.73-0.76,3.42-1.59,5.18-2.29l5.27-2.08c1.76-0.69,3.5-1.41,5.26-2.07l5.35-1.82
				l5.35-1.82l5.43-1.55c28.94-8.32,59.23-11.18,89.03-8.92c14.9,1.22,29.67,3.73,44.05,7.68l10.7,3.22
				c3.52,1.23,7.01,2.51,10.51,3.77c3.44,1.42,6.85,2.91,10.27,4.36l9.99,4.93l-0.45,0.89c-26.81-12.42-56.1-18.76-85.36-19.85
				c-29.27-1.23-58.72,2.6-86.38,11.58l-5.18,1.69l-5.09,1.95l-5.08,1.95c-1.68,0.7-3.32,1.46-4.99,2.19l-4.97,2.22
				c-1.65,0.75-3.24,1.63-4.86,2.44l-4.84,2.47c-1.62,0.81-3.15,1.78-4.73,2.66c-12.6,7.12-24.62,15.19-35.89,24.22l-4.23,3.39
				c-1.42,1.12-2.71,2.38-4.08,3.57l-4.05,3.61c-1.33,1.22-2.57,2.54-3.88,3.78l-3.9,3.78l-3.68,3.99
				c-1.22,1.34-2.47,2.65-3.67,4.01l-3.49,4.17c-9.25,11.18-17.29,23.44-23.83,36.74L575.93,963.22z"/>
		</g>
		<g>
			<path d="M1566.25,1037.96c-3.89,14.42-10.64,28.13-19.13,40.6l-3.21,4.68c-1.12,1.52-2.33,2.97-3.49,4.47l-3.53,4.45l-3.76,4.25
				c-1.26,1.41-2.51,2.84-3.83,4.19l-4.04,3.99c-1.36,1.31-2.66,2.7-4.08,3.95l-4.25,3.77c-11.44,9.94-24.14,18.41-37.62,25.27
				c-1.69,0.84-3.34,1.77-5.07,2.54l-5.16,2.33c-1.73,0.76-3.42,1.59-5.18,2.29l-5.27,2.08c-1.76,0.69-3.5,1.41-5.26,2.07
				l-5.35,1.82l-5.35,1.82l-5.43,1.55c-28.94,8.32-59.23,11.18-89.03,8.92c-14.9-1.22-29.67-3.73-44.05-7.68l-10.7-3.22
				c-3.52-1.23-7.01-2.51-10.51-3.77c-3.44-1.42-6.85-2.91-10.27-4.36l-9.99-4.93l0.45-0.89c26.81,12.42,56.1,18.76,85.36,19.85
				c29.27,1.23,58.72-2.6,86.38-11.58l5.18-1.69l5.09-1.95l5.08-1.95c1.68-0.7,3.32-1.46,4.99-2.19l4.97-2.22
				c1.65-0.75,3.24-1.63,4.86-2.44l4.84-2.47c1.62-0.81,3.15-1.78,4.73-2.66c12.6-7.12,24.62-15.19,35.89-24.22l4.23-3.39
				c1.42-1.12,2.71-2.38,4.08-3.57l4.05-3.61c1.33-1.22,2.57-2.54,3.88-3.78l3.9-3.78l3.68-3.99c1.22-1.34,2.47-2.65,3.67-4.01
				l3.49-4.17c9.25-11.18,17.29-23.44,23.83-36.74L1566.25,1037.96z"/>
		</g>
	</g>
	<g>
		<path class="st3" d="M1880.34,858.85c8.81,0,16.43,3.1,22.86,9.29c6.43,6.43,9.64,14.17,9.64,23.22v162.89
			c36.67-32.62,79.66-48.94,128.95-48.94c53.82,0,99.78,19.06,137.88,57.15c38.1,38.1,57.15,84.07,57.15,137.88
			c0,53.82-19.06,99.79-57.15,137.88c-38.1,38.1-84.07,57.15-137.88,57.15c-53.82,0-99.66-18.93-137.53-56.8
			c-38.1-37.86-57.28-83.59-57.51-137.17V891.35c0-9.05,3.21-16.79,9.64-23.22c6.43-6.19,14.05-9.29,22.86-9.29H1880.34z
			 M2041.8,1072.1c-35.72,0-66.21,12.63-91.45,37.86c-25,25.24-37.51,55.73-37.51,91.45c0,35.49,12.5,65.85,37.51,91.09
			c25.24,25.24,55.73,37.86,91.45,37.86s66.08-12.62,91.09-37.86c25.24-25.24,37.86-55.6,37.86-91.09
			c0-35.72-12.63-66.2-37.86-91.45C2107.89,1084.73,2077.52,1072.1,2041.8,1072.1z"/>
		<path class="st3" d="M2659.06,1119.25c3.81,8.1,4.17,16.43,1.07,25c-3.09,8.34-8.81,14.41-17.15,18.22
			c-33.34,15-77.16,34.77-131.45,59.3c-67.39,30.49-111.09,50.25-131.1,59.3c25.72,32.86,59.53,49.3,101.45,49.3
			c27.86,0,53.1-8.22,75.73-24.65c21.91-15.95,37.27-36.67,46.08-62.15c5.24-14.76,15.72-22.15,31.43-22.15
			c11.2,0,20.13,4.64,26.79,13.93c6.43,9.05,7.74,18.93,3.93,29.65c-13.34,38.58-36.67,69.78-70.01,93.59
			c-34.06,24.53-72.04,36.79-113.95,36.79c-53.82,0-99.78-19.05-137.88-57.15c-38.1-38.1-57.15-84.06-57.15-137.88
			c0-53.82,19.05-99.78,57.15-137.88c38.1-38.1,84.07-57.15,137.88-57.15c38.81,0,74.3,10.6,106.45,31.79
			C2620,1057.81,2643.58,1085.2,2659.06,1119.25z M2481.88,1072.1c-35.72,0-66.21,12.63-91.45,37.86
			c-25,25.24-37.51,55.73-37.51,91.45c0,6.43,0.48,12.74,1.43,18.93l226.12-102.16C2554.76,1087.46,2521.89,1072.1,2481.88,1072.1z"
			/>
		<path class="st3" d="M3093.79,1119.25c3.81,8.1,4.17,16.43,1.07,25c-3.1,8.34-8.81,14.41-17.15,18.22
			c-33.34,15-77.16,34.77-131.45,59.3c-67.4,30.49-111.09,50.25-131.1,59.3c25.72,32.86,59.53,49.3,101.45,49.3
			c27.86,0,53.1-8.22,75.73-24.65c21.91-15.95,37.27-36.67,46.08-62.15c5.24-14.76,15.72-22.15,31.43-22.15
			c11.19,0,20.12,4.64,26.79,13.93c6.43,9.05,7.74,18.93,3.93,29.65c-13.34,38.58-36.68,69.78-70.01,93.59
			c-34.06,24.53-72.04,36.79-113.95,36.79c-53.82,0-99.78-19.05-137.88-57.15c-38.1-38.1-57.15-84.06-57.15-137.88
			c0-53.82,19.05-99.78,57.15-137.88c38.1-38.1,84.06-57.15,137.88-57.15c38.81,0,74.3,10.6,106.45,31.79
			C3054.73,1057.81,3078.31,1085.2,3093.79,1119.25z M2916.61,1072.1c-35.72,0-66.21,12.63-91.45,37.86
			c-25,25.24-37.51,55.73-37.51,91.45c0,6.43,0.48,12.74,1.43,18.93l226.12-102.16C2989.48,1087.46,2956.62,1072.1,2916.61,1072.1z"
			/>
		<path d="M3173,873.04h105.35v522.34H3173V873.04z"/>
		<path d="M3605.35,1230.77h1.46V873.04h96.56v522.34h-119.98l-128.76-365.79h-1.46v365.79h-96.57V873.04h121.44L3605.35,1230.77z"
			/>
		<path d="M4068.43,873.04v86.32h-186.55v122.9h175.58v86.33h-175.58v226.79h-105.35V873.04H4068.43z"/>
		<path d="M4120.37,873.04h105.35v522.34h-105.35V873.04z"/>
		<path d="M4552.72,1230.77h1.46V873.04h96.56v522.34h-119.98l-128.76-365.79h-1.46v365.79h-96.57V873.04h121.44L4552.72,1230.77z"
			/>
		<path d="M4729.03,873.04h105.35v522.34h-105.35V873.04z"/>
		<path d="M5218.44,959.36h-114.12v436.02h-105.35V959.36h-114.12v-86.32h333.59V959.36z"/>
		<path d="M5416.69,1074.95h1.46l73.16-201.91h114.12l-135.34,316.77v205.57h-105.35v-205.57l-135.34-316.77h118.52L5416.69,1074.95
			z"/>
	</g>
</g>
<g>
	<g>
		<path class="st3" d="M3215.95-2191.23c4.57,0,8.52,1.61,11.85,4.81c3.33,3.33,5,7.35,5,12.04v84.44
			c19.01-16.91,41.29-25.37,66.85-25.37c27.9,0,51.72,9.88,71.48,29.63c19.75,19.75,29.63,43.58,29.63,71.48
			c0,27.9-9.88,51.73-29.63,71.48c-19.75,19.75-43.58,29.63-71.48,29.63c-27.9,0-51.66-9.81-71.29-29.44
			c-19.75-19.63-29.69-43.33-29.81-71.11v-160.73c0-4.69,1.67-8.7,5-12.04c3.33-3.21,7.28-4.81,11.85-4.81H3215.95z
			 M3299.65-2080.68c-18.52,0-34.32,6.54-47.4,19.63c-12.96,13.09-19.44,28.89-19.44,47.4c0,18.4,6.48,34.14,19.44,47.22
			c13.08,13.09,28.89,19.63,47.4,19.63s34.26-6.54,47.22-19.63c13.08-13.08,19.63-28.82,19.63-47.22c0-18.52-6.54-34.32-19.63-47.4
			C3333.91-2074.14,3318.17-2080.68,3299.65-2080.68z"/>
		<path class="st3" d="M3619.63-2056.24c1.97,4.2,2.16,8.52,0.56,12.96c-1.6,4.32-4.57,7.47-8.89,9.44
			c-17.28,7.78-40,18.03-68.14,30.74c-34.93,15.8-57.59,26.05-67.96,30.74c13.33,17.04,30.86,25.55,52.59,25.55
			c14.44,0,27.53-4.26,39.26-12.78c11.36-8.27,19.32-19.01,23.89-32.22c2.71-7.65,8.15-11.48,16.3-11.48
			c5.8,0,10.43,2.41,13.89,7.22c3.33,4.69,4.01,9.81,2.04,15.37c-6.91,20-19.01,36.17-36.29,48.51
			c-17.65,12.72-37.34,19.07-59.07,19.07c-27.9,0-51.73-9.88-71.48-29.63c-19.75-19.75-29.63-43.58-29.63-71.48
			c0-27.9,9.88-51.72,29.63-71.48c19.75-19.75,43.58-29.63,71.48-29.63c20.12,0,38.52,5.49,55.18,16.48
			C3599.38-2088.09,3611.6-2073.89,3619.63-2056.24z M3527.78-2080.68c-18.52,0-34.32,6.54-47.4,19.63
			c-12.96,13.09-19.44,28.89-19.44,47.4c0,3.33,0.25,6.6,0.74,9.81l117.21-52.96C3565.56-2072.72,3548.52-2080.68,3527.78-2080.68z"
			/>
		<path class="st3" d="M3844.98-2056.24c1.97,4.2,2.16,8.52,0.56,12.96c-1.61,4.32-4.57,7.47-8.89,9.44
			c-17.28,7.78-40,18.03-68.14,30.74c-34.94,15.8-57.59,26.05-67.96,30.74c13.33,17.04,30.86,25.55,52.59,25.55
			c14.44,0,27.53-4.26,39.26-12.78c11.36-8.27,19.32-19.01,23.89-32.22c2.71-7.65,8.15-11.48,16.3-11.48
			c5.8,0,10.43,2.41,13.89,7.22c3.33,4.69,4.01,9.81,2.04,15.37c-6.91,20-19.01,36.17-36.29,48.51
			c-17.65,12.72-37.34,19.07-59.07,19.07c-27.9,0-51.73-9.88-71.48-29.63c-19.75-19.75-29.63-43.58-29.63-71.48
			c0-27.9,9.88-51.72,29.63-71.48c19.75-19.75,43.58-29.63,71.48-29.63c20.12,0,38.52,5.49,55.18,16.48
			C3824.73-2088.09,3836.95-2073.89,3844.98-2056.24z M3753.13-2080.68c-18.52,0-34.32,6.54-47.4,19.63
			c-12.96,13.09-19.44,28.89-19.44,47.4c0,3.33,0.25,6.6,0.74,9.81l117.21-52.96C3790.91-2072.72,3773.87-2080.68,3753.13-2080.68z"
			/>
		<path d="M3886.04-2183.87h54.61v270.77h-54.61V-2183.87z"/>
		<path d="M4110.16-1998.43h0.76v-185.44h50.06v270.77h-62.19l-66.74-189.61h-0.76v189.61h-50.06v-270.77h62.95L4110.16-1998.43z"/>
		<path d="M4350.21-2183.87v44.75h-96.7v63.71h91.02v44.75h-91.02v117.56h-54.61v-270.77H4350.21z"/>
		<path d="M4377.13-2183.87h54.61v270.77h-54.61V-2183.87z"/>
		<path d="M4601.25-1998.43h0.76v-185.44h50.06v270.77h-62.19l-66.74-189.61h-0.76v189.61h-50.06v-270.77h62.95L4601.25-1998.43z"/>
		<path d="M4692.65-2183.87h54.61v270.77h-54.61V-2183.87z"/>
		<path d="M4946.35-2139.12h-59.16v226.02h-54.61v-226.02h-59.16v-44.75h172.93V-2139.12z"/>
		<path d="M5049.12-2079.2h0.76l37.92-104.67h59.16l-70.16,164.21v106.56h-54.61v-106.56l-70.16-164.21h61.44L5049.12-2079.2z"/>
	</g>
	<circle class="st1" cx="4175.71" cy="-2595.49" r="241.72"/>
	<circle class="st1" cx="4159.05" cy="-3246.61" r="97.77"/>
	<path d="M4166.4-2324.61c-129.49,1.2-236.87-93.41-261.49-215.89c-27.19-135.28,50.99-294.16,215.37-325.09
		c39.52-7.44,78.48,0.18,117.45,6c70.82,10.56,141.06,25.84,213.22,24.79c85.35-1.24,159.4-68.59,167.76-153.64
		c9.09-92.47-46.38-174.3-132.63-192.15c-67.36-13.94-124.65,9.15-173.59,57.05c-33.5,32.79-63.2,69.28-95.16,103.55
		c-64.6,69.27-131.64,135.76-210.71,187.85c-38.22,25.17-79.92,40.36-125.36,41.17c-96.82,1.73-179.97-62.42-206.97-154.09
		c-42.8-145.27,63.66-288.32,210.91-283.81c25.32,0.78,49.53,7.53,73.31,16.57c56.97,21.67,114.58,41.23,174.07,54.51
		c39.67,8.86,74.39,2.28,100.29-32.45c22.13-29.67,22.04-73.61,0.69-104.16c-21.83-31.23-60.58-44.35-95.97-32.49
		c-36.28,12.16-59.44,45-59.47,83.85c0,8.72,1.17,17.14,3.02,25.6c2.83,12.99-3.21,24.1-14.48,27.52
		c-11.52,3.5-23.35-3.38-26.93-16.88c-10.97-41.33-4.14-79.75,20.38-114.19c34.7-48.73,95.19-66.88,149.26-45.73
		c53.57,20.96,87.5,76.72,82.8,136.05c-5.56,70.06-67.92,124.79-135.42,119.8c-51.17-3.78-99.05-20.96-147.32-36.6
		c-25.95-8.41-51.25-18.95-77.19-27.4c-65.16-21.23-124.45-8.88-173.4,39.99c-50.31,50.21-64.2,113.15-42.2,181
		c21.39,65.98,68.37,105.13,135.49,116.43c58.23,9.8,107.74-12.9,153.61-46.78c79.16-58.47,148.29-128.13,213.33-202.47
		c34.8-39.78,68.94-80.74,114.46-108.38c143.31-87.04,309.33,3.45,328.37,161.5c13.38,111.07-63.8,218.12-171.65,238.67
		c-43.98,8.38-87.8,4.37-131.45-1.62c-60.18-8.25-120-19.58-180.31-26.48c-88.34-10.11-177.68,45.23-214.43,129.81
		c-48.05,110.59-14.21,230.09,85.85,292.26c136.45,84.77,308.51-2.02,332.22-159.17c11.44-75.86-10.26-140.62-63.26-194.36
		c-6.4-6.48-12.98-12.97-11.36-23.13c1.27-7.94,5.22-14.87,13.12-17.73c9.08-3.29,17.16-1.05,24.3,5.81
		c36.75,35.35,62.83,77.64,75.09,127.88c36.6,149.96-56.37,301.05-203.54,331.88C4198.7-2326.03,4180.72-2324.99,4166.4-2324.61z"/>
	<path class="st2" d="M4163.56-2567.25c-45.69,0.02-91.37,0.03-137.06,0.01c-16.68-0.01-27.07-8.26-26.99-21.32
		c0.08-12.53,10.16-21.42,25.94-21.45c92.21-0.17,184.42-0.18,276.62,0.01c15.72,0.03,25.55,8.98,25.53,21.68
		c-0.02,12.86-9.92,21.03-25.74,21.04C4255.77-2567.24,4209.66-2567.26,4163.56-2567.25z"/>
	<path d="M4162.57-3401.31c-39.68-0.47-71.05-15.28-94.82-45.5c-9.02-11.47-8.52-21.74,0.96-29.68c9-7.54,19.83-5.72,29.26,4.91
		c37.21,41.95,89.97,41.89,126.58-0.13c9.12-10.46,20.39-12.26,29.31-4.68c9.32,7.92,9.84,18.69,0.91,29.77
		C4230.75-3416.79,4199.59-3401.49,4162.57-3401.31z"/>
	<path class="st2" d="M4162.79-2469.63c-30.16-0.01-60.32,0.11-90.47-0.06c-13.71-0.08-22.72-6.35-24.99-16.63
		c-3.25-14.67,6.87-26.35,23.59-26.42c42.72-0.18,85.45-0.06,128.17-0.06c18.85,0,37.7-0.07,56.55,0.02
		c15.31,0.07,24.37,7.74,24.69,20.64c0.33,13.46-8.76,22.26-24.55,22.43C4224.79-2469.39,4193.79-2469.62,4162.79-2469.63z"/>
	<path class="st2" d="M4164.89-2706.86c30.15-0.01,60.29-0.06,90.44,0.01c15.7,0.04,24.48,7.29,24.95,20.26
		c0.48,13.4-8.61,22.73-24.25,22.81c-61.97,0.32-123.94,0.32-185.9,0.01c-14.17-0.07-23.63-10.18-23.23-22.74
		c0.39-12.28,9.39-20.22,23.78-20.29C4102.08-2706.96,4133.48-2706.85,4164.89-2706.86z"/>
	<circle cx="4055.02" cy="-3481.08" r="35.45"/>
	<circle cx="4269.39" cy="-3481.08" r="35.45"/>
	<polygon points="4164.06,-2269.67 4192.82,-2326.19 4137.39,-2325.96 	"/>
	<g>
		<path d="M3742.75-3030.09c3.03-12.14,8.57-23.72,15.6-34.25c7.04-10.55,15.59-20.12,25.17-28.49c9.58-8.38,20.25-15.49,31.58-21.2
			c11.34-5.7,23.23-10.2,35.35-13.69c12.13-3.48,24.55-5.8,37.05-7.02c12.51-1.17,25.09-1.24,37.56-0.22
			c12.47,1.07,24.83,3.22,36.85,6.58l8.94,2.73l8.78,3.19l8.57,3.69l8.33,4.16l-0.45,0.89c-22.45-10.25-46.91-15.45-71.32-16.25
			c-12.21-0.45-24.44,0.17-36.5,1.84c-12.06,1.62-23.96,4.3-35.47,8.06c-11.52,3.75-22.57,8.78-33.02,14.77
			c-10.46,5.97-20.44,12.68-29.85,20.15c-9.39,7.48-18.15,15.8-25.95,25.03c-7.79,9.24-14.61,19.36-20.3,30.38L3742.75-3030.09z"/>
	</g>
	<g>
		<path d="M4570.49-2967.57c-3.03,12.14-8.57,23.72-15.6,34.25c-7.04,10.55-15.59,20.12-25.17,28.49
			c-9.58,8.38-20.25,15.49-31.58,21.2c-11.35,5.7-23.23,10.2-35.35,13.69c-12.13,3.48-24.55,5.8-37.06,7.02
			c-12.51,1.17-25.09,1.24-37.56,0.22c-12.47-1.07-24.83-3.22-36.85-6.58l-8.94-2.73l-8.78-3.19l-8.57-3.69l-8.33-4.16l0.45-0.89
			c22.45,10.25,46.91,15.45,71.32,16.25c12.21,0.45,24.44-0.17,36.5-1.84c12.06-1.62,23.96-4.3,35.47-8.06
			c11.51-3.75,22.57-8.78,33.02-14.77c10.46-5.97,20.44-12.68,29.85-20.15c9.39-7.48,18.15-15.8,25.95-25.03
			c7.79-9.24,14.61-19.36,20.3-30.38L4570.49-2967.57z"/>
	</g>
</g>
</svg>
