<?xml version="1.0" encoding="utf-8"?>
<!-- Generator: Adobe Illustrator 25.0.0, SVG Export Plug-In . SVG Version: 6.00 Build 0)  -->
<svg version="1.1" id="Layer_1" xmlns="http://www.w3.org/2000/svg" xmlns:xlink="http://www.w3.org/1999/xlink" x="0px" y="0px"
	 viewBox="0 0 7008 2166" style="enable-background:new 0 0 7008 2166;" xml:space="preserve">
<style type="text/css">
	.st0{fill:#E6A71F;}
	.st1{fill:#000050;}
	.st2{fill:#E6D0A1;}
</style>
<g>
	<g>
		<path class="st0" d="M2383.44,783.23c9.83,0,18.34,3.46,25.5,10.35c7.17,7.17,10.76,15.82,10.76,25.91v181.72
			c40.91-36.39,88.86-54.6,143.86-54.6c60.04,0,111.3,21.26,153.83,63.76c42.5,42.5,63.76,93.78,63.76,153.83
			s-21.26,111.32-63.76,153.83s-93.78,63.76-153.83,63.76c-60.04,0-111.17-21.11-153.42-63.36c-42.5-42.24-63.89-93.25-64.15-153.03
			V819.51c0-10.09,3.59-18.72,10.76-25.91c7.17-6.91,15.67-10.35,25.5-10.35h1.18V783.23z M2563.57,1021.13
			c-39.86,0-73.86,14.07-102.01,42.24c-27.89,28.17-41.83,62.17-41.83,102.01c0,39.6,13.94,73.47,41.83,101.62
			c28.15,28.17,62.17,42.24,102.01,42.24s73.73-14.07,101.62-42.24c28.15-28.15,42.24-62.02,42.24-101.62
			c0-39.86-14.07-73.86-42.24-102.01C2637.3,1035.21,2603.42,1021.13,2563.57,1021.13z"/>
		<path class="st0" d="M3252.17,1073.73c4.24,9.04,4.65,18.34,1.21,27.89c-3.44,9.3-9.83,16.08-19.13,20.31
			c-37.19,16.74-86.08,38.8-146.64,66.15c-75.17,34-123.93,56.06-146.25,66.15c28.69,36.67,66.41,54.98,113.17,54.98
			c31.07,0,59.25-9.17,84.49-27.5c24.45-17.8,41.58-40.91,51.41-69.34c5.83-16.46,17.54-24.71,35.08-24.71
			c12.48,0,22.45,5.19,29.89,15.54c7.17,10.09,8.63,21.11,4.39,33.08c-14.87,43.04-40.91,77.84-78.1,104.39
			c-37.98,27.37-80.36,41.04-127.12,41.04c-60.04,0-111.32-21.26-153.83-63.76s-63.76-93.78-63.76-153.83
			c0-60.04,21.26-111.3,63.76-153.83c42.5-42.5,93.78-63.76,153.83-63.76c43.3,0,82.9,11.81,118.75,35.47
			C3208.59,1005.19,3234.89,1035.75,3252.17,1073.73z M3054.51,1021.13c-39.86,0-73.86,14.07-102.01,42.24
			c-27.89,28.17-41.83,62.17-41.83,102.01c0,7.17,0.54,14.2,1.59,21.11l252.24-113.97
			C3135.81,1038.26,3099.14,1021.13,3054.51,1021.13z"/>
		<path class="st0" d="M3737.12,1073.73c4.24,9.04,4.65,18.34,1.21,27.89c-3.47,9.3-9.83,16.08-19.13,20.31
			c-37.19,16.74-86.08,38.8-146.64,66.15c-75.19,34-123.93,56.06-146.25,66.15c28.69,36.67,66.41,54.98,113.17,54.98
			c31.07,0,59.24-9.17,84.49-27.5c24.45-17.8,41.58-40.91,51.41-69.34c5.83-16.46,17.54-24.71,35.08-24.71
			c12.48,0,22.45,5.19,29.89,15.54c7.17,10.09,8.63,21.11,4.39,33.08c-14.87,43.04-40.91,77.84-78.1,104.39
			c-37.98,27.37-80.36,41.04-127.12,41.04c-60.04,0-111.32-21.26-153.83-63.76s-63.76-93.78-63.76-153.83
			c0-60.04,21.26-111.3,63.76-153.83c42.5-42.5,93.78-63.76,153.83-63.76c43.3,0,82.9,11.81,118.75,35.47
			C3693.55,1005.19,3719.84,1035.75,3737.12,1073.73z M3539.46,1021.13c-39.86,0-73.86,14.07-102.01,42.24
			c-27.89,28.17-41.83,62.17-41.83,102.01c0,7.17,0.54,14.2,1.59,21.11l252.24-113.97
			C3620.77,1038.26,3584.1,1021.13,3539.46,1021.13z"/>
		<path class="st1" d="M3825.49,799.07h117.52v582.7h-117.52V799.07z"/>
		<path class="st1" d="M4307.8,1198.14h1.63V799.07h107.73v582.7h-133.83L4139.7,973.72h-1.64v408.04h-107.73v-582.7h135.47
			L4307.8,1198.14z"/>
		<path class="st1" d="M4824.39,799.07v96.3h-208.1v137.1h195.88v96.3h-195.88v252.99h-117.52v-582.7H4824.39z"/>
		<path class="st1" d="M4882.32,799.07h117.52v582.7h-117.52V799.07z"/>
		<path class="st1" d="M5364.63,1198.14h1.64V799.07h107.73v582.7h-133.83l-143.63-408.04h-1.64v408.04h-107.73v-582.7h135.47
			L5364.63,1198.14z"/>
		<path class="st1" d="M5561.32,799.07h117.52v582.7h-117.52V799.07z"/>
		<path class="st1" d="M6107.29,895.37h-127.31v486.4h-117.52v-486.4h-127.31v-96.3h372.15V895.37z"/>
		<path class="st1" d="M6328.45,1024.32h1.63l81.6-225.25H6539l-150.99,353.38v229.32h-117.52v-229.32l-150.99-353.38h132.22
			L6328.45,1024.32z"/>
	</g>
	<g>
		
			<ellipse transform="matrix(0.7071 -0.7071 0.7071 0.7071 -495.7456 1563.401)" class="st0" cx="1639.32" cy="1380.12" rx="241.72" ry="241.72"/>
		<circle class="st0" cx="1622.66" cy="729" r="97.77"/>
		<path class="st1" d="M1953.86,1180.7c-43.98,8.38-87.8,4.37-131.45-1.62c-60.18-8.25-120-19.58-180.31-26.48
			c-88.34-10.11-177.68,45.23-214.43,129.81c-48.05,110.59-14.21,230.09,85.85,292.26c136.45,84.77,308.51-2.02,332.22-159.17
			c11.44-75.86-10.26-140.62-63.26-194.36c-6.4-6.48-12.98-12.97-11.36-23.13c1.27-7.94,5.22-14.87,13.12-17.73
			c9.08-3.29,17.16-1.05,24.3,5.81c36.75,35.35,62.83,77.64,75.09,127.88c36.6,149.96-56.37,301.05-203.54,331.88
			c-7.96,1.67-15.96,2.8-23.66,3.57l-28.76,56.52l-26.67-56.28v-0.01c-116.27-11.94-209.72-101.33-232.48-214.54
			c-27.19-135.28,50.99-294.16,215.37-325.09c39.52-7.44,78.48,0.18,117.45,6c70.82,10.56,141.06,25.84,213.22,24.79
			c85.35-1.24,159.4-68.59,167.76-153.64c9.09-92.47-46.38-174.3-132.63-192.15c-67.36-13.94-124.65,9.15-173.59,57.05
			c-33.5,32.79-63.2,69.28-95.16,103.55c-64.6,69.27-131.64,135.76-210.71,187.85c-38.22,25.17-79.92,40.36-125.36,41.17
			c-96.82,1.73-179.97-62.42-206.97-154.09c-42.8-145.27,63.66-288.32,210.91-283.81c25.32,0.78,49.53,7.53,73.31,16.57
			c56.97,21.67,114.58,41.23,174.07,54.51c39.67,8.86,74.39,2.28,100.29-32.45c22.13-29.67,22.04-73.61,0.69-104.16
			c-21.83-31.23-60.58-44.35-95.97-32.49c-36.28,12.16-59.44,45-59.47,83.85c0,8.72,1.17,17.14,3.02,25.6
			c2.83,12.99-3.21,24.1-14.48,27.52c-11.52,3.5-23.35-3.38-26.93-16.88c-10.97-41.33-4.14-79.75,20.38-114.19
			c34.7-48.73,95.19-66.88,149.26-45.73c53.57,20.96,87.5,76.72,82.8,136.05c-5.56,70.06-67.92,124.79-135.42,119.8
			c-51.17-3.78-99.05-20.96-147.32-36.6c-25.95-8.41-51.25-18.95-77.19-27.4c-65.16-21.23-124.45-8.88-173.4,39.99
			c-50.31,50.21-64.2,113.15-42.2,181c21.39,65.98,68.37,105.13,135.49,116.43c58.23,9.8,107.74-12.9,153.61-46.78
			c79.16-58.47,148.29-128.13,213.33-202.47c34.8-39.78,68.94-80.74,114.46-108.38c143.31-87.04,309.33,3.45,328.37,161.5
			C2138.89,1053.1,2061.71,1160.15,1953.86,1180.7z"/>
		<path class="st2" d="M1627.17,1408.36c-45.69,0.02-91.37,0.03-137.06,0.01c-16.68-0.01-27.07-8.26-26.99-21.32
			c0.08-12.53,10.16-21.42,25.94-21.45c92.21-0.17,184.42-0.18,276.62,0.01c15.72,0.03,25.55,8.98,25.53,21.68
			c-0.02,12.86-9.92,21.03-25.74,21.04C1719.38,1408.37,1673.27,1408.35,1627.17,1408.36z"/>
		<path class="st2" d="M1626.4,1505.98c-30.16-0.01-60.32,0.11-90.47-0.06c-13.71-0.08-22.72-6.35-24.99-16.63
			c-3.25-14.67,6.87-26.35,23.59-26.42c42.72-0.18,85.45-0.06,128.17-0.06c18.85,0,37.7-0.07,56.55,0.02
			c15.31,0.07,24.37,7.74,24.69,20.64c0.33,13.46-8.76,22.26-24.55,22.43C1688.4,1506.22,1657.4,1505.99,1626.4,1505.98z"/>
		<path class="st2" d="M1628.5,1268.75c30.15-0.01,60.29-0.06,90.44,0.01c15.7,0.04,24.48,7.29,24.95,20.26
			c0.48,13.4-8.61,22.73-24.25,22.81c-61.97,0.32-123.94,0.32-185.9,0.01c-14.17-0.07-23.63-10.18-23.23-22.74
			c0.39-12.28,9.39-20.22,23.78-20.29C1565.69,1268.65,1597.09,1268.76,1628.5,1268.75z"/>
		<path class="st1" d="M1768.45,494.53c0,19.58-15.87,35.45-35.45,35.45c-4.73,0-9.25-0.93-13.38-2.62
			c-0.39,0.54-0.8,1.09-1.24,1.63c-24.02,29.83-55.18,45.13-92.2,45.31c-39.68-0.47-71.05-15.28-94.82-45.5
			c-0.24-0.3-0.47-0.61-0.7-0.91c-3.76,1.35-7.81,2.09-12.03,2.09c-19.58,0-35.45-15.87-35.45-35.45
			c0-19.58,15.87-35.45,35.45-35.45c19.58,0,35.45,15.87,35.45,35.45c0,1-0.04,2-0.12,2.98c2.6,1.57,5.16,3.74,7.62,6.52
			c37.21,41.95,89.97,41.89,126.58-0.13c2.97-3.41,6.18-5.9,9.45-7.43c-0.04-0.64-0.06-1.29-0.06-1.94
			c0-19.58,15.87-35.45,35.45-35.45S1768.45,474.95,1768.45,494.53z"/>
		<path class="st1" d="M1783.99,1100.59c97.58,32.41,192.2,13.94,236.26-44.51c9.59-12.72,23.13-35.76,26.83-72.26
			c-10.38,18.83-40.71,67.94-102.73,98.65C1871.44,1118.56,1803.4,1105.14,1783.99,1100.59z"/>
		<path class="st1" d="M1193,964c4.47-18.25,26.62-100.99,93-127c21.35-8.36,43.27-9.29,60-10c46.85-1.98,84.77,8.37,108.46,16.93
			c-13.17-3-31.91-6.12-54.46-5.93c-27.67,0.23-75.59,5.55-124,36C1227.4,904.57,1202.96,944.98,1193,964z"/>
	</g>
</g>
</svg>
