<svg id="visual" viewBox="0 0 900 600" width="900" height="600" xmlns="http://www.w3.org/2000/svg" xmlns:xlink="http://www.w3.org/1999/xlink" version="1.1"><rect x="0" y="0" width="900" height="600" fill="#ffffff"></rect><g transform="translate(-196.40186802266751 548.167182372064)"><path d="M387.6 -487.9C530.2 -429.8 693.1 -354 765.8 -226.2C838.5 -98.4 821.1 81.4 743.4 217.1C665.7 352.9 527.7 444.6 393.7 545.9C259.8 647.3 129.9 758.1 24.6 724.3C-80.7 690.4 -161.4 511.9 -247.2 394.9C-333 277.9 -423.7 222.6 -419 155.4C-414.3 88.3 -314.2 9.4 -307.3 -127C-300.4 -263.4 -386.8 -457.3 -351.1 -550.3C-315.4 -643.2 -157.7 -635.1 -17.6 -610.8C122.5 -586.5 244.9 -546.1 387.6 -487.9" fill="#fff1b5"></path></g></svg>