<?xml version="1.0" encoding="utf-8"?>
<!-- Generator: Adobe Illustrator 25.0.0, SVG Export Plug-In . SVG Version: 6.00 Build 0)  -->
<svg version="1.1" id="Layer_1" xmlns="http://www.w3.org/2000/svg" xmlns:xlink="http://www.w3.org/1999/xlink" x="0px" y="0px"
	 viewBox="0 0 595.28 841.89" style="enable-background:new 0 0 595.28 841.89;" xml:space="preserve">
<style type="text/css">
	.st0{fill:#1C174B;}
	.st1{fill:#E7A725;}
	.st2{fill:#E8D1A1;}
	.st3{fill:#5452A3;}
</style>
<g>
	<path class="st0" d="M566.97,485.16c-4.82,14.12-14.9,19.75-29.49,18.94c-8.56-0.48-8.65-0.09-8.45,8.71
		c0.29,12.79,0.6,25.59,1.12,38.37c0.12,3.04-0.86,4.62-3.53,6.04c-18.49,9.84-36.85,19.93-55.34,29.76
		c-3.37,1.79-5.76,4.01-7.57,7.44c-9.72,18.37-19.76,36.57-29.46,54.94c-1.72,3.25-3.7,4.27-7.28,4.13
		c-20.84-0.82-41.7-1.36-62.54-2.12c-3.28-0.12-6.05,0.6-8.85,2.34c-17.94,11.18-36.01,22.15-53.93,33.38
		c-2.88,1.8-4.84,1.99-7.86,0.09c-17.89-11.28-35.98-22.25-53.94-33.42c-2.78-1.73-5.53-2.46-8.84-2.34
		c-21.19,0.77-42.4,1.3-63.59,2.08c-3.06,0.11-4.61-0.91-6.02-3.56c-10-18.81-20.2-37.51-30.24-56.29
		c-1.45-2.72-3.32-4.69-6.05-6.15c-18.64-9.95-37.19-20.08-55.88-29.93c-3.28-1.73-4.23-3.76-4.09-7.3
		c0.56-14.01,0.7-28.04,1.29-42.05c0.15-3.54-0.91-4.35-4.28-4.3c-5.39,0.07-10.83,0.68-16.2-0.81c-10.46-2.9-17.59-11.82-17.6-22.7
		c-0.05-39.62-0.06-79.24,0-118.86c0.02-12.72,10.07-22.99,22.76-23.57c0.35-0.02,0.7,0.01,1.05-0.02
		c4.66-0.34,11.08,2.05,13.52-0.99c2.3-2.88,0.64-9.03,0.52-13.73c-0.26-10.51-0.44-21.04-1.08-31.53c-0.24-3.98,1.26-5.77,4.6-7.53
		c18.38-9.69,36.59-19.7,54.93-29.46c3.07-1.63,5.16-3.79,6.79-6.84c9.93-18.64,20.06-37.19,29.97-55.84
		c1.41-2.65,2.95-3.68,6.02-3.57c21.19,0.78,42.4,1.31,63.59,2.08c3.3,0.12,6.06-0.6,8.84-2.33c18.11-11.26,36.33-22.35,54.4-33.68
		c2.63-1.65,4.39-1.53,6.94,0.07c18.08,11.3,36.29,22.38,54.38,33.65c2.8,1.74,5.57,2.47,8.85,2.35
		c20.67-0.75,41.35-1.27,62.01-2.12c3.98-0.16,6.13,0.89,8.06,4.58c9.56,18.25,19.56,36.27,29.21,54.48
		c1.81,3.42,4.19,5.65,7.56,7.45c18.5,9.83,36.86,19.92,55.35,29.77c2.66,1.42,3.65,2.99,3.54,6.03
		c-0.54,14.19-0.7,28.39-1.29,42.57c-0.15,3.58,0.57,4.92,4.42,4.69c4.7-0.28,9.52-0.35,14.14,0.42
		c10.42,1.73,16.23,8.81,19.55,18.34C566.97,399.59,566.97,442.38,566.97,485.16z"/>
	<path class="st1" d="M274.39,495.69c-0.99-2.48,1.01-5.52-1.44-7.73c-1.91-0.35-3.85-0.17-5.77-0.17
		c-66.43-0.01-132.85-0.01-199.28-0.01c-7.81,0-9.58-1.44-9.62-9.45c-0.21-38.38-0.17-76.77-0.02-115.15
		c0.03-7.45,1.79-8.97,8.98-8.97c157.74,0,315.48,0,473.22,0c1.4,0,2.8-0.1,4.19,0.16c4.64,0.75,6.5,3.89,6.51,8.17
		c0.05,38.88,0.06,77.76,0,116.64c-0.01,5.69-3.03,8.57-8.79,8.92c-1.4,0.08-2.8,0.02-4.2,0.02c-69.7,0-139.41,0-209.11,0
		c-7.59,0-7.59,0-8.14,7.59c-4.65,2.6-9.48,1.86-14.32,0.76c-0.29-0.18-0.73-0.37-0.77-0.64c-0.95-6.41-5.58-5.89-10.41-6.13
		c-5.27-0.26-4.13,4.78-6.59,6.71C283.94,497.6,279.08,498.3,274.39,495.69z"/>
	<path class="st1" d="M187.21,266.73c-5.32-5.9-5.25-5.82-12.06-0.46c-19.77,15.58-35.54,34.62-48.65,55.98
		c-1.98,1.33-4.22,1.52-6.52,1.52c-10.47,0.02-20.94,0.05-31.4-0.02c-2.24-0.02-4.59,0.15-6.39-1.67c-0.24-7.7-0.29-15.42-0.79-23.1
		c-0.2-3.11,1.78-3.84,3.74-4.9c17.37-9.38,34.72-18.78,52.13-28.08c2.42-1.29,4.11-2.98,5.4-5.4c9.14-17.1,18.51-34.08,27.49-51.26
		c1.94-3.71,4.06-4.63,8.13-4.48c19.61,0.76,39.23,1.06,58.85,1.6c2.38,0.07,4.31-0.58,6.35-1.85
		c16.78-10.41,33.69-20.61,50.44-31.08c2.76-1.72,4.61-1.85,7.44-0.07c16.13,10.14,32.46,19.96,48.62,30.05
		c3.24,2.02,6.38,3.08,10.26,2.95c19.44-0.65,38.89-0.95,58.32-1.66c3.23-0.12,4.67,1.05,6.04,3.62
		c9.21,17.26,18.57,34.44,27.77,51.71c1.46,2.75,3.35,4.66,6.1,6.13c17.12,9.11,34.12,18.43,51.28,27.46
		c3.28,1.73,4.33,3.68,4.03,7.37c-0.56,6.97-0.49,14-0.68,21c-1.63,1.7-3.79,1.64-5.86,1.66c-10.82,0.08-21.64,0.06-32.46,0.02
		c-2.13-0.01-4.17-0.32-6-1.51c-13.98-22.93-31.04-43.12-52.77-59.13c-37.96-27.97-80.45-41.12-127.63-39.12
		c-30.01,1.28-58.12,9.24-84.55,23.37c-7.41,3.96-7.39,4-3.85,11.4C196.57,262.78,192.78,266.19,187.21,266.73z"/>
	<path class="st1" d="M126.5,519.72c12.9,21.07,28.36,39.92,47.83,55.31c29.21,23.09,62.12,38,99.22,41.51
		c84.36,8,149.14-24.64,194.51-96.07c0.18-0.29,0.46-0.51,0.69-0.77c1.99-1.3,4.23-1.51,6.53-1.52c10.47-0.02,20.95-0.05,31.42,0.02
		c2.24,0.02,4.59-0.16,6.39,1.67c0.23,7.7,0.25,15.42,0.77,23.1c0.23,3.43-2.11,4.06-4.17,5.17c-17.06,9.22-34.11,18.44-51.22,27.56
		c-2.74,1.46-4.65,3.36-6.12,6.12c-8.86,16.65-18.05,33.13-26.7,49.9c-2.3,4.46-4.9,5.55-9.72,5.35
		c-19.08-0.8-38.18-1.02-57.27-1.58c-2.78-0.08-5.03,0.69-7.34,2.13c-16.64,10.31-33.39,20.45-49.97,30.87
		c-2.82,1.77-4.67,1.69-7.44-0.04c-16.59-10.4-33.33-20.54-49.97-30.85c-2.32-1.44-4.57-2.18-7.34-2.1
		c-19.62,0.58-39.24,0.87-58.85,1.63c-4,0.15-5.82-1.13-7.6-4.5c-9.03-17.16-18.37-34.15-27.51-51.25
		c-1.29-2.41-2.95-4.11-5.39-5.41c-17.26-9.2-34.42-18.59-51.71-27.75c-3.2-1.7-4.4-3.58-4.08-7.33c0.6-6.97,0.5-14,0.69-21
		c1.63-1.7,3.79-1.65,5.86-1.66c10.82-0.08,21.64-0.06,32.45-0.02C122.63,518.22,124.68,518.52,126.5,519.72z"/>
	<path class="st2" d="M449.38,519.99c-15.25,24.36-35.71,43.29-60.39,57.75c-33.11,19.4-69.05,27.58-107.07,23.92
		c-57.63-5.54-102.91-32.85-135.69-80.68c-0.19-0.28-0.22-0.66-0.32-0.99c2.79-2.62,6.29-1.78,9.52-1.79
		c52.58-0.06,105.15-0.04,157.73-0.04c42.41,0,84.82-0.02,127.24,0.04C443.45,518.21,446.77,517.47,449.38,519.99z"/>
	<path class="st2" d="M187.21,266.73c4.26-2.65,8.52-5.3,12.78-7.95c4.66,6.22,4.66,6.22,11.88,2.31
		c81.59-44.23,185.31-18.35,236.63,59.03c0.38,0.57,0.59,1.24,0.88,1.86c-2.79,2.61-6.29,1.78-9.52,1.78
		c-52.92,0.06-105.84,0.04-158.77,0.04c-42.06,0-84.11,0.02-126.17-0.04c-3.07,0-6.38,0.73-9-1.78
		c10.12-16.83,23.66-30.58,38.7-42.98C191.06,273.71,191.09,273.75,187.21,266.73z"/>
	<path class="st3" d="M449.38,519.99c-1.58-0.05-3.15-0.15-4.73-0.15c-98.01-0.01-196.01-0.01-294.02,0c-1.58,0-3.15,0.1-4.73,0.15
		c-3.74-4.62-6.28-9.95-9.63-16.01c2.39,0,4.18,0,5.96,0c40.84,0,81.68,0,122.52,0c8.78,0,8.78,0,9.63-8.3c4.98,0,9.96,0,14.94,0
		c0.66,0.61,0.9,1.43,1.14,2.27c1.18,4.24,9.6,6.71,12.94,3.79c1.81-1.59,0.77-4.42,2.55-6.05c4.98,0,9.96,0,14.94,0
		c0.85,8.3,0.85,8.3,9.63,8.3c40.67,0,81.33,0,122,0c1.89,0,3.78,0,6.27,0C455.98,509.93,453.13,515.21,449.38,519.99z"/>
	<path class="st3" d="M145.93,321.99c1.58,0.05,3.15,0.14,4.73,0.14c98,0.01,196,0.01,294,0c1.58,0,3.15-0.1,4.73-0.15
		c3.76,4.61,6.3,9.93,9.41,15.6c-107.53,0-214.62,0-322.14,0C139.31,332.03,142.16,326.75,145.93,321.99z"/>
	<path class="st2" d="M544.65,354.36c-2.27,0.07-4.55,0.19-6.82,0.19c-156.33,0.01-312.66,0.01-468.98,0.01
		c-8.3,0-8.96,0.62-8.96,8.96c-0.02,38.21-0.02,76.41,0,114.62c0.01,8.58,0.77,9.28,9.22,9.28c66.07,0,132.14-0.01,198.21,0.03
		c1.87,0,3.85-0.58,5.63,0.51c-1.93,0.07-3.85,0.21-5.77,0.21c-70.29-0.02-140.58-0.05-210.86-0.08c-10.09,0-12.22-2.17-12.22-12.39
		c0-36.81,0-73.62,0-110.43c0-8.83,2.47-11.37,11.12-11.38c161.61-0.04,323.22-0.06,484.83-0.07
		C541.59,353.82,543.21,353.37,544.65,354.36z"/>
	<path class="st2" d="M82.19,322.08c14.77,0.06,29.54,0.12,44.31,0.17c-0.1,0.33-0.14,0.7-0.3,1c-2.67,4.84-4.24,11.46-8.34,14.01
		c-3.92,2.44-10.47,0.67-15.87,0.7c-5.05,0.03-10.12-0.17-15.16,0.07c-3.07,0.15-4.51-0.68-4.43-3.95
		C82.48,330.08,82.27,326.08,82.19,322.08z"/>
	<path class="st2" d="M468.78,322.26c14.77-0.06,29.55-0.12,44.32-0.17c-0.08,4-0.3,8.01-0.2,12c0.08,3.27-1.36,4.01-4.43,3.95
		c-9.41-0.19-18.82-0.16-28.23-0.01c-2.63,0.04-4.05-0.73-5.14-3.22C473.24,330.52,470.92,326.43,468.78,322.26z"/>
	<path class="st2" d="M126.5,519.72c-14.77,0.06-29.54,0.12-44.32,0.18c0.08-4,0.3-8.01,0.2-12.01c-0.08-3.27,1.36-4.01,4.43-3.95
		c9.41,0.19,18.82,0.16,28.23,0.01c2.62-0.04,4.06,0.73,5.14,3.22C122.05,511.46,124.37,515.55,126.5,519.72z"/>
	<path class="st2" d="M513.1,519.9c-14.78-0.06-29.56-0.12-44.34-0.18c2.65-5.07,4.16-11.65,8.28-14.79
		c4-3.05,10.73-0.74,16.27-0.89c5.05-0.14,10.12,0.15,15.16-0.09c3.07-0.15,4.5,0.68,4.43,3.95
		C512.8,511.89,513.02,515.89,513.1,519.9z"/>
	<path class="st0" d="M372.38,413.87c0,14.18-0.14,28.37,0.09,42.55c0.06,3.77-1.06,4.63-4.68,4.58
		c-11.21-0.15-11.21,0.01-11.21-11.11c0-21.19,0.08-42.38-0.08-63.57c-0.03-3.8,0.59-5.12,4.95-5.48c7.55-0.62,11.96,1.82,15.7,8.57
		c6.51,11.75,14.17,22.87,21.35,34.24c0.8,1.27,1.29,2.79,3.25,3.9c0-13.92,0.26-27.5-0.14-41.05c-0.15-4.87,1.41-5.72,5.82-5.58
		c10.13,0.32,10.13,0.09,10.13,10.06c0,21.37-0.11,42.73,0.1,64.1c0.04,3.93-1.07,4.57-4.87,5.01c-7.85,0.92-12.22-2.02-16.06-8.84
		c-7.25-12.89-15.56-25.17-23.43-37.71C372.99,413.65,372.69,413.76,372.38,413.87z"/>
	<path class="st0" d="M88.5,420.84c0-11.9,0.1-23.81-0.07-35.7c-0.05-3.24,0.95-4.23,4.16-4.13c7.34,0.21,14.7-0.02,22.05,0.09
		c17.05,0.25,27.57,16.12,21,31.87c-1.08,2.59-0.5,3.87,1.18,5.78c7.11,8.11,8.75,17.43,4.37,27.27
		c-4.4,9.88-12.49,14.75-23.28,14.91c-8.22,0.12-16.46-0.22-24.67,0.13c-4.12,0.18-4.91-1.26-4.83-5.04
		C88.65,444.29,88.5,432.56,88.5,420.84z"/>
	<path class="st0" d="M448.12,419.6c0-11.21,0.23-22.42-0.12-33.62c-0.13-4.34,1.34-5.23,5.27-5.04c6.46,0.3,12.95,0.06,19.43,0.09
		c14.58,0.05,25.41,6.98,30.48,20.49c5.79,15.43,5.11,30.58-4.53,44.48c-5.85,8.43-14.21,12.73-24.55,12.84
		c-7.35,0.08-14.72-0.17-22.06,0.1c-3.38,0.13-4.04-1.03-4-4.15C448.22,443.06,448.12,431.33,448.12,419.6z"/>
	<path class="st0" d="M190.18,434.82c0,8.3-0.18,15.23,0.08,22.14c0.13,3.36-1.06,4.04-4.19,4.06c-11.83,0.09-11.83,0.2-11.83-11.57
		c0-21.04,0.15-42.08-0.09-63.11c-0.05-4.49,1.3-5.69,5.59-5.35c8.36,0.66,16.84-0.93,25.14,0.94
		c10.94,2.46,18.03,10.33,19.48,21.33c1.3,9.86-3.94,19.45-13.94,24.2c-3.59,1.71-3.42,2.82-1.13,5.39
		c4.89,5.49,9.51,11.24,14.39,16.74c1.73,1.95,1.92,3.08-0.22,5.01c-9.48,8.51-9.37,8.56-17.57-1.31
		C201.04,447.43,196.03,441.68,190.18,434.82z"/>
	<path class="st0" d="M289.94,444.22c-13.74,0-13.94-0.07-18.38,12.59c-1.53,4.35-2.88,5.61-7.55,3.57
		c-9.41-4.1-9.54-3.78-5.92-13.23c7.91-20.68,15.89-41.33,23.62-62.08c1.19-3.2,2.71-4.15,6.01-4.08c9.07,0.17,9.08,0.01,12.31,8.55
		c7.97,21.03,15.87,42.09,23.95,63.08c1.18,3.07,1.08,4.4-2.38,5.69c-10.98,4.11-11.34,4.43-14.87-6.63
		c-1.92-6.01-4.72-8.69-11.01-7.52C293.85,444.51,291.87,444.22,289.94,444.22z"/>
	<path class="st0" d="M305.96,495.69c-0.85,8.32-0.85,8.32-8.83,8.32c-6.94,0-6.94,0-7.8-8.32c0.08-1.21,0.36-2.45,0.2-3.63
		c-0.44-3.36,1.15-4.34,4.2-3.98c1.2,0.14,2.43,0.02,3.65,0.02C305.41,488.11,305.41,488.11,305.96,495.69z"/>
	<path class="st0" d="M352.42,286.91c-7.44,0-7.44,0-7.44-9.46c0-6.45,0-6.45,9.93-6.45c5.87,0,5.87,0,5.87,9.98
		C360.78,286.91,360.78,286.91,352.42,286.91z"/>
	<path class="st0" d="M384.53,302.68c-7.99,0.01-7.99,0.01-7.99-9.41c0-6.48,0-6.48,9.9-6.48c5.9,0,5.3,0.05,6.1,9.93
		C393.15,304.3,388.6,302.63,384.53,302.68z"/>
	<path class="st1" d="M113.15,426.21c2.27,0.13,4.58,0.01,6.79,0.44c4.76,0.94,7.6,4.63,7.51,9.31c-0.09,4.61-3.2,8.18-7.9,9.06
		c-0.34,0.06-0.7,0.11-1.04,0.09c-4.49-0.21-10.93,2.03-13.02-0.83c-2.95-4.03-0.76-10.44-0.94-15.82
		c-0.05-1.51,0.81-2.16,2.32-2.13c2.1,0.05,4.2,0.01,6.3,0.01C113.15,426.3,113.15,426.25,113.15,426.21z"/>
	<path class="st1" d="M111.04,410.48c-1.79-0.61-5.47,1.48-6.18-1.1c-0.98-3.55-0.52-7.64,0.02-11.4
		c0.28-1.93,11.74-1.43,14.28,0.51c3.23,2.47,3.68,6.64,1.08,9.7C117.86,410.99,114.63,410.52,111.04,410.48z"/>
	<path class="st1" d="M463.94,419.94c0-6.65,0-13.31,0-19.96c0-1.6-0.12-2.85,2.25-3.22c13.87-2.18,22.83,4.68,24.2,18.68
		c0.31,3.16,0.27,6.27-0.07,9.42c-1.45,13.37-10.86,20.4-24.19,18.29c-2.41-0.38-2.19-1.69-2.19-3.25
		C463.94,433.25,463.94,426.59,463.94,419.94z"/>
	<path class="st1" d="M189.91,405.92c1.12-3.97-2.51-9.74,5.69-9.13c8.4,0.62,12.98,3.24,12.92,8.99
		c-0.06,5.79-4.73,8.51-13.64,8.82C186.08,414.92,192.35,408.12,189.91,405.92z"/>
	<path class="st1" d="M290.04,408.06c2.78,7.34,5.14,13.57,7.7,20.32c-4.46,0-8.41-0.09-12.35,0.03c-2.67,0.08-2.83-0.97-1.96-3.12
		C285.55,420,287.52,414.65,290.04,408.06z"/>
</g>
</svg>
