<?xml version="1.0" encoding="utf-8"?>
<!-- Generator: Adobe Illustrator 25.0.0, SVG Export Plug-In . SVG Version: 6.00 Build 0)  -->
<svg version="1.1" id="Layer_1" xmlns="http://www.w3.org/2000/svg" xmlns:xlink="http://www.w3.org/1999/xlink" x="0px" y="0px"
	 viewBox="0 0 595.28 841.89" style="enable-background:new 0 0 595.28 841.89;" xml:space="preserve">
<style type="text/css">
	.st0{fill:#1C174B;}
	.st1{fill:#E8D1A1;}
	.st2{fill:#E7A725;}
	.st3{fill:#CDD2D9;}
	.st4{fill:#5452A3;}
	.st5{fill:#AAB2BD;}
</style>
<g>
	<path class="st0" d="M310.5,668.66c-3.87,0-7.73,0-11.6,0c-5.81-0.66-10.67-3.22-14.67-7.43c-2.08-2.19-4.32-2.26-7.02-1.23
		c-5.03,1.92-10.13,2.86-15.6,1.54c-9.97-2.41-16.52-8.47-19.6-18.1c-1.09-3.41-2.71-5.52-6.24-6.5
		c-9.34-2.59-15.07-8.99-17.79-18.09c-0.87-2.9-2.18-4.62-5.25-5.48c-9.94-2.79-16.35-9.35-19.11-19.3
		c-0.73-2.64-2.12-4.01-4.75-4.76c-10.51-2.98-17.14-9.85-19.66-20.51c-0.56-2.35-1.64-4.1-3.72-5.35
		c-4.84-2.89-9.69-5.77-14.49-8.71c-2.11-1.29-3.84-1.58-5.11,1.07c-0.92,1.92-2.57,2.87-4.65,2.94c-5.3,0.18-10.57,0.43-15.77-1.33
		c-23.19-7.85-46.42-15.59-69.69-23.18c-4.34-1.42-5.89-3.47-5.87-8.23c0.2-52.02,0.12-104.05,0.13-156.07
		c0-5.68,0.28-5.96,5.93-6.12c0.48-0.01,0.97-0.01,1.45-0.01c19.69-0.16,19.68-0.15,36.65,9.95c5.81,3.46,11.73,6.75,17.49,10.28
		c3.37,2.07,6.73,2.75,10.57,1.48c2.9-0.96,5.94-1.46,8.88-2.31c1.78-0.51,4.31-0.3,4.87-2.46c0.5-1.93-1.71-2.89-2.91-4.11
		c-4.28-4.37-8.74-8.52-11.86-13.93c-5.36-9.28-8.4-19.14-8.17-29.89c0.18-8.36-0.58-16.72,0.81-25.07
		c4.26-25.63,26.08-45.58,52.05-47.37c4.26-0.29,4.48-0.62,2.99-4.64c-1.34-3.63-3.08-7.09-4.45-10.71
		c-1.03-2.72-0.62-5.04,1.41-7.09c12.33-12.5,24.77-24.89,37.22-37.26c2.49-2.47,5.02-2.46,7.8-0.58
		c5.47,3.69,11.27,6.9,16.62,10.77c2.78,2.01,5.23,2.33,8.42,0.6c6.09-3.29,12.41-6.2,19.08-8.13c3.92-1.14,5.78-3.46,6.43-7.43
		c1.01-6.19,2.69-12.27,3.84-18.44c0.56-2.97,1.97-4.24,5.26-4.21c18.2,0.16,36.4,0.19,54.6-0.02c3.79-0.04,5.2,1.51,5.8,4.81
		c1.12,6.18,2.79,12.25,3.85,18.44c0.62,3.61,2.51,5.63,5.97,6.73c6.91,2.21,13.65,4.92,19.98,8.48c2.61,1.47,4.78,1.28,7.15-0.39
		c5.52-3.91,11.46-7.19,17.01-11.05c3.18-2.21,5.8-1.96,8.55,0.79c12.05,12.09,24.14,24.15,36.21,36.23
		c2.62,2.62,3.08,5.41,1.62,8.78c-1.53,3.55-3.07,7.09-4.55,10.66c-1.05,2.52-0.28,3.53,2.4,3.66c31.29,1.53,55.19,30.22,53.95,61.3
		c-0.26,6.43,0.5,12.89-0.48,19.3c-2.1,13.71-8.15,25.31-18.52,34.64c-1.6,1.44-4.45,2.81-3.86,5.12c0.67,2.62,3.98,2.19,6.2,2.82
		c10.53,2.96,21.41,4.71,31.61,8.84c2.86,1.16,5.38,0.15,7.81-1.24c5.59-3.2,11.2-6.42,17.13-8.94c7.34-3.12,14.94-2.89,22.52-0.63
		c0,38.98,0,77.97,0,116.95c-1.67,2.1-4.12,3.02-6.41,4.16c-43.17,21.56-86.29,43.23-129.52,64.66c-4.22,2.09-6.48,4.45-7.17,9.58
		c-1.42,10.58-8.48,17.07-18.44,20.14c-3.38,1.04-4.86,2.63-5.77,6.05c-2.48,9.26-8.69,15.3-17.92,17.79
		c-3.37,0.91-5.14,2.36-5.99,5.82c-2.4,9.79-8.94,15.81-18.48,18.43c-3.05,0.84-4.49,2.2-5.32,5.24
		C327.55,660.55,321.47,667.34,310.5,668.66z"/>
	<path class="st1" d="M529.25,398.52c0,2.17,0,3.57,0,4.98c0,26.73-0.06,53.46,0.08,80.18c0.02,3.36-1.01,5-4.06,6.51
		c-42.16,20.96-84.25,42.05-126.3,63.23c-3.07,1.54-4.85,1.15-7.38-1.14c-21.44-19.49-43.01-38.84-64.6-58.16
		c-11.77-10.54-25.92-12-39.57-4.09c-9.16,5.31-18.32,10.65-27.23,16.37c-7.67,4.91-14.11,1.43-16.67-3.11
		c-3.46-6.13-1.03-13.42,5.87-16.91c14.02-7.09,28.13-14.02,42.17-21.07c9.09-4.57,18.46-4.98,28.1-2.23
		c14.63,4.17,29.25,8.36,43.88,12.53c8.12,2.31,15.64,2.06,23.54-2.16c45.38-24.25,90.99-48.09,136.52-72.06
		C525.3,400.54,526.97,399.7,529.25,398.52z"/>
	<path class="st2" d="M359.84,601.08c-4.32,4.81-9.16,5.16-14.68,0.62c-12.8-10.52-25.56-21.09-38.15-31.86
		c-2.87-2.45-4.61-3.22-7,0.38c-2.04,3.06-4.67,5.72-7.04,8.56c-3.25,6.42-3.22,6.38,2.85,11.41
		c12.59,10.42,24.94,21.14,37.79,31.26c1.2,0.95,2.74,1.84,2.11,3.85c-3.62,3.71-7.62,4.71-11.98,1.71
		c-8.31-5.73-16.63-11.61-22.79-19.82c-4.08-5.43-9.4-8.68-15.93-9.94c-1.9-0.37-3.17-0.45-3.54-2.87
		c-1.76-11.71-8.92-18.51-20.22-21.03c-2.39-0.53-3.47-1.22-3.9-3.77c-1.75-10.37-8.89-17.88-19.03-19.84
		c-3.17-0.61-4.39-1.89-5.07-5.04c-3.94-18.32-25.08-25.92-39.55-14.1c-5.83,4.77-11.05,10.33-16.26,15.81
		c-1.74,1.82-2.75,2.45-5.01,0.93c-4.78-3.22-9.75-6.14-14.65-9.18c-0.78-1.93-0.24-3.8,0.3-5.67c6.67-23.03,13.12-46.13,19.8-69.16
		c0.72-2.49,1.31-5.04,4.05-6.2c17.98-4.08,35.82-8.94,54.1-11.43c13.94-1.9,27.46,1.31,40.64,5.85c0.9,0.31,1.79,0.66,2.7,1
		c-0.41,1.74-2.1,1.87-3.3,2.49c-11.88,6.02-23.89,11.78-35.66,18.01c-9.83,5.21-14.48,13.75-14.25,24.91
		c0.23,11.13,5.16,19.52,15.2,24.33c8.68,4.16,17.45,3.55,25.79-1.41c8.83-5.25,17.63-10.55,26.45-15.81
		c9.58-5.71,16.16-4.97,24.37,2.44c20.9,18.87,41.83,37.7,62.79,56.52c2.84,2.55,5.29,5.28,4.63,9.41
		c-1.2,7.44-9.65,9.77-16.22,4.41c-7.98-6.5-15.83-13.17-23.74-19.75c-5.19-4.32-10.54-8.48-15.52-13.03
		c-2.49-2.28-3.72-1.77-5.5,0.66c-2.27,3.11-4.93,5.94-7.42,8.89c-0.28,0.58,0.2-0.1-0.11,0.47c-3.2,6.05-3.3,6.17,2.2,10.7
		c12.79,10.53,25.2,21.54,38.38,31.6C358.68,598.32,360.39,598.99,359.84,601.08z"/>
	<path class="st3" d="M219.6,423.09c2.5-9.19,9.02-14.08,17.8-16.34c13.5-3.48,27.02-6.88,40.58-10.11
		c2.97-0.71,4.31-1.73,4.15-5.04c-0.3-5.94-0.22-11.92-0.02-17.87c0.09-2.64-0.91-4.05-3.1-5.33
		c-14.35-8.35-21.28-20.91-20.79-37.49c0.25-8.48-0.84-17,1.85-25.38c4.59-14.28,18-26.04,31.85-27.37
		c17.7-1.7,32.58,5.9,40.32,20.45c3.47,6.51,5.44,13.36,5.38,20.74c-0.05,6.76,0.53,13.62-0.46,20.25
		c-1.84,12.42-8.59,22.05-19.53,28.33c-3.14,1.8-4.16,3.82-3.95,7.27c0.3,4.97,0.49,10.02,0,14.96c-0.46,4.6,1.63,5.97,5.59,6.9
		c13.1,3.06,26.15,6.37,39.2,9.69c11.51,2.93,18.41,11.09,18.82,22c0.82,6.89,0.19,13.8,0.33,20.7c0.06,3.02-1.94,4.24-4.61,4.55
		c-1.96,0.23-3.83-0.37-5.69-0.91c-12.36-3.61-24.63-7.69-37.23-10.24c-20.4-4.12-39.97-11.02-59.92-16.63
		c-14.47-4.07-29.13-4.74-43.98-2.1C224.1,424.49,221.32,426.37,219.6,423.09z"/>
	<path class="st3" d="M391.73,400.16c5.11-1.33,10.19-2.82,15.36-3.92c2.26-0.48,2.84-1.5,2.81-3.59
		c-0.08-6.59-0.14-13.19,0.03-19.78c0.06-2.18-0.97-3.11-2.61-4.05c-15.28-8.76-22.18-22.07-21.48-39.55
		c0.31-7.84-0.57-15.7,1.85-23.43c5.32-16.98,20.83-28.4,38.77-28.18c16.39,0.21,32.18,12.52,36.8,28.93
		c3.38,11.98,3.09,24.23,0.84,36.26c-2.12,11.32-9.16,19.64-19.11,25.31c-2.58,1.48-3.55,3.14-3.43,6.09
		c0.24,5.78,0.31,11.59,0.02,17.37c-0.17,3.27,1.06,4.39,4.07,5.06c7.19,1.59,14.29,3.55,21.43,5.37c1.45,0.69,1.29,1.65,0.4,2.67
		c-1.3,1.49-3.04,2.34-4.76,3.22c-18.13,9.34-36.19,18.83-54.14,28.51c-0.57,0.3-1.14,0.6-1.72,0.87c-4.85,2.2-6.51,1.24-6.8-3.96
		c-0.07-1.28-0.08-2.57-0.03-3.86c0.32-8.65-2.32-16.43-6.7-23.77C392.33,404.07,390.31,402.57,391.73,400.16z"/>
	<path class="st1" d="M242.04,325.66c-1.07,15.58,2.25,29.97,12.14,42.47c2.91,3.68,6.22,6.96,10,9.75c1.27,0.94,2,1.93,1.85,3.59
		c-0.19,2.11-1.81,1.85-3.16,2.19c-8.54,2.17-17.06,4.41-25.61,6.53c-1.68,0.42-3.38,0.7-5.21,0.23
		c-9.15-2.36-18.33-4.61-27.51-6.85c-1.16-0.28-2.13-0.47-2.31-1.95c-0.23-1.86,0.69-2.88,2.06-3.96
		c10.77-8.43,18.2-19.25,20.51-32.74c2.82-16.47,3.06-33-3.57-48.86c-0.85-2.02-0.8-3.51,0.32-5.34
		c18.44-30.3,45.2-45.98,80.83-44.43c31.62,1.38,55.15,17.03,71.67,43.74c1.45,2.35,0.68,4.03,0.02,6.21
		c-6.94,22.73-7.76,45.14,4.22,66.67c3.25,5.84,7.87,10.58,13.17,14.6c1.57,1.19,2.56,2.37,2.16,4.37c-0.4,2.01-2.2,1.52-3.49,1.86
		c-8.37,2.18-16.75,4.33-25.13,6.48c-2.05,0.53-4.1,0.57-6.17,0.04c-8.69-2.23-17.38-4.44-26.08-6.64
		c-1.22-0.31-2.65-0.15-2.87-1.94c-0.19-1.59,0.38-2.65,1.67-3.67c16.51-12.91,22.88-30.13,22.56-50.75
		c-0.21-13.57-1.59-26.52-8.79-38.39c-12.02-19.83-35.35-30.86-56.69-26.62c-24.62,4.88-42.27,22.8-45.84,46.53
		c-0.22,1.43-0.67,2.84-0.71,4.27C241.98,317.24,242.04,321.43,242.04,325.66z"/>
	<path class="st3" d="M148.17,397.22c5.49-0.22,6.84-3.45,6.06-8.29c-0.13-0.78-0.08-1.61-0.01-2.41c0.82-9.61,0.16-17.53-10-23.64
		c-9.48-5.7-13.5-16.54-13.55-27.91c-0.04-9.91-1.47-19.94,1.84-29.66c5.17-15.22,15.83-24.54,31.49-26.99
		c17.33-2.72,30.71,4.54,39.93,19.2c4.26,6.77,6.15,14.43,6.07,22.48c-0.06,6.43,0.41,12.95-0.5,19.26
		c-1.85,12.81-8.78,22.57-20.09,28.97c-2.58,1.46-3.57,3.09-3.46,6.04c0.23,5.94,0.17,11.91,0.05,17.86
		c-0.05,2.47,0.55,3.69,3.26,4.22c5.02,0.98,9.93,2.51,14.89,3.81c1.38,2.19-0.39,3.66-1.33,5.19c-3.95,6.42-6.43,13.29-7.01,20.85
		c-0.34,4.41-4.05,7.04-8.44,6.31c-2.33-0.39-2.98-2.2-2.72-3.91c1.08-6.95-3.1-10-8.39-12.91c-8.18-4.49-16.2-9.3-24.2-14.11
		C150.37,400.58,148,399.97,148.17,397.22z"/>
	<path class="st4" d="M66.65,450.73c0-21.24,0-42.47,0-63.71c0-6.01,2.4-7.38,7.87-4.31c5.59,3.14,11.1,6.44,16.65,9.67
		c11.64,6.78,23.24,13.65,34.97,20.27c2.66,1.5,3.44,2.91,2.67,5.94c-9.14,36.18-18.18,72.38-27.14,108.61
		c-0.74,3.01-1.93,3.22-4.59,2.28c-8.76-3.09-17.58-6.05-26.46-8.78c-3.15-0.97-4.09-2.48-4.07-5.78
		C66.74,493.52,66.65,472.13,66.65,450.73z"/>
	<path class="st2" d="M381.12,271.4c-13.95-17.77-31.38-30.57-53.16-37.06c-29.08-8.67-56.72-5.09-82.92,10.06
		c-11.98,6.93-21.85,16.25-30.34,27.1c-1.12,0.8-2.2,0.43-3.06-0.33c-6.53-5.76-14.06-9.87-21.95-13.38
		c-0.43-0.19-0.76-0.58-1.12-0.89c-1.46-3.18-2.9-6.37-4.39-9.54c-0.8-1.7-0.38-2.95,0.96-4.27c7.22-7.11,14.44-14.23,21.5-21.5
		c1.83-1.89,3.15-1.41,4.94-0.21c5.47,3.65,11.09,7.09,16.5,10.84c2.14,1.48,3.75,1.68,6.03,0.23
		c11.46-7.28,23.83-12.46,37.08-15.46c2.83-0.64,4.21-1.84,4.68-4.96c0.92-6.17,2.53-12.24,3.76-18.36c0.49-2.45,1.28-3.88,4.33-3.8
		c9.33,0.23,18.66,0.23,27.99,0c3.02-0.07,3.86,1.28,4.34,3.78c1.23,6.29,2.75,12.53,3.82,18.84c0.45,2.66,1.61,3.73,4.14,4.32
		c13.54,3.13,26.22,8.4,37.95,15.86c1.94,1.24,3.38,1.05,5.21-0.19c5.57-3.79,11.32-7.33,16.88-11.15c2.12-1.45,3.47-1.36,5.3,0.54
		c6.82,7.05,13.79,13.97,20.78,20.86c1.58,1.55,2.18,2.9,1.04,5.03c-1.57,2.95-2.84,6.06-4.23,9.1c-2.82,2.54-6.66,3.02-9.83,4.87
		c-3.87,2.26-7.7,4.54-11.2,7.39C384.72,270.27,383.37,271.93,381.12,271.4z"/>
	<path class="st3" d="M131.39,540.85c-4.97-1.66-9.37-3.11-13.77-4.6c-2.5-0.85-1.13-2.52-0.77-3.94
		c6.07-24.38,12.15-48.75,18.24-73.13c2.64-10.56,5.62-21.04,7.87-31.67c0.94-4.44,2.29-3.85,5.16-1.95
		c3.2,2.12,6.49,4.22,9.99,5.76c3.89,1.71,4.53,3.93,3.37,7.91c-9.45,32.56-18.68,65.19-28.1,97.76
		C133,538.28,133.51,540.76,131.39,540.85z"/>
	<path class="st5" d="M219.6,423.09c7.52,0.59,14.71-1.99,22.25-2.04c13.36-0.09,26.08,2.64,38.67,6.51
		c10.12,3.11,19.96,7.58,30.28,9.45c15.34,2.77,30.11,7.43,45.12,11.31c5.11,1.32,10.15,2.95,15.27,4.24
		c3.9,0.98,5.77-0.52,5.86-4.54c0.15-6.42,0.18-12.85,0.26-19.27c1.38,9.91,0.28,19.86,0.37,29.79c0.02,1.85-1.25,2.43-2.91,2.41
		c-2.4-0.02-4.72-0.16-7.12-0.8c-17.01-4.54-33.59-10.82-50.93-13.88c-13.04-2.31-25.3-6.86-37.74-10.88
		c-18.75-6.05-37.57-8.03-56.87-3.65c-3.34,0.76-4.51-0.19-3.64-3.58C218.89,426.47,218.3,424.57,219.6,423.09z"/>
	<path class="st5" d="M391.73,400.16c3.56,6.61,7.6,12.95,9.04,20.57c0.86,4.51,0.5,8.97,0.56,13.45c0.04,3.41,1.22,3.94,4.07,2.44
		c19.78-10.42,39.59-20.78,59.32-31.28c1.03-0.55,3.54-0.83,2.36-3.3c4.29,1.04,8.59,2.08,14.25,3.45
		c-29.7,15.65-58.33,30.72-87.9,46.29c0-9.36,0.44-17.83-0.12-26.24c-0.58-8.68-4.73-16.14-10.81-23.09
		C385.98,401.58,388.85,400.87,391.73,400.16z"/>
	<path class="st5" d="M148.17,397.22c5.97,4.91,13.14,7.86,19.57,12.03c2.95,1.92,5.95,3.84,9.14,5.31
		c6.25,2.9,10.79,6.62,9.03,14.47c-0.22,0.96-0.17,2.76,1.49,2.28c2.42-0.71,6.75,0.49,6.83-3.01c0.22-10.6,4.85-19.39,9.93-28.14
		c2.79,0.67,5.59,1.34,8.44,2.03c0.29,2.17-1.59,3.04-2.54,4.37c-5.34,7.43-8.1,15.67-7.79,24.8c0.12,3.38-0.49,5.13-4.41,5.71
		c-6.62,0.99-13.12,2.84-19.69,4.33c-0.64-5.87,2.17-12.57-1.1-16.94c-3.11-4.15-9.29-6.03-14.14-8.87
		c-8.58-5.01-17.17-10-26.09-15.19C140.69,398.55,144.5,398.12,148.17,397.22z"/>
	<path class="st2" d="M181.95,457.14c-3.32,5.23-4.02,11.36-5.72,17.12c-6.27,21.26-12.31,42.6-18.44,63.91
		c-1.41-0.73-2.79-1.52-4.24-2.18c-2.34-1.08-2.5-2.5-1.78-4.98c6.64-22.86,13.11-45.77,19.55-68.69c0.63-2.26,1.63-3.56,4.07-3.84
		C177.6,458.22,179.77,457.6,181.95,457.14z"/>
	<path class="st1" d="M217.82,550.12c0.26,2.85-1.35,5.06-3.28,7.04c-3.93,4.02-7.89,8.02-11.95,11.92
		c-4.7,4.52-9.79,4.86-13.6,1.09c-3.78-3.74-3.46-9.04,0.99-13.59c4.27-4.37,8.57-8.71,13.02-12.9c2.78-2.61,6.15-3.53,9.77-1.74
		C216.05,543.56,217.98,546.14,217.82,550.12z"/>
	<path class="st2" d="M359.84,601.08c-7.03-5.79-14.07-11.58-21.1-17.37c-8.41-6.93-16.8-13.88-25.23-20.77
		c-2.13-1.74-2.2-3.3-0.04-5.05c1.24-1.01,2.36-2.17,3.54-3.26c7.05,7.44,15.46,13.32,23.16,20.01c5.67,4.93,11.57,9.6,17.29,14.48
		C362.09,593.07,362.64,596.15,359.84,601.08z"/>
	<path class="st2" d="M335.7,625.3c-5.94-5.08-11.85-10.21-17.84-15.24c-9.08-7.62-18.08-15.33-27.4-22.65
		c-3.33-2.61-2.91-4.26-0.06-6.45c0.89-0.68,1.7-1.46,2.55-2.19c13.23,11.16,26.46,22.33,39.69,33.49
		C338.18,616.93,338.96,620.24,335.7,625.3z"/>
	<path class="st1" d="M262.43,591.2c4.19,4.1,4.94,8.03,1.3,12.16c-4.77,5.41-9.93,10.54-15.36,15.28
		c-4.06,3.54-8.69,2.44-12.36-2.07c-0.51-1.09,0.13-1.89,0.83-2.51c7.73-6.99,14.91-14.53,22.18-21.98
		C260,591.07,261.03,590.47,262.43,591.2z"/>
	<path class="st1" d="M285.38,614.48c5.07,3.73,6.11,8.47,2.14,12.95c-4.67,5.27-9.67,10.31-14.95,14.97
		c-4.25,3.75-8.42,2.91-12.42-1.62c-0.57-1.3,0.21-2.22,1.03-2.93c8.15-7.08,15.63-14.83,22.89-22.81
		C284.39,614.68,284.91,614.57,285.38,614.48z"/>
	<path class="st1" d="M238.19,567.07c4.58,4.09,5.21,8.45,1.27,12.77c-4.52,4.96-9.28,9.72-14.23,14.25
		c-4.54,4.15-9.49,3.33-13.35-1.72c-0.53-1.17,0.31-1.82,1.04-2.38c8.03-6.24,14.87-13.68,21.66-21.19
		C235.53,567.74,236.42,566.45,238.19,567.07z"/>
	<path class="st1" d="M285.38,614.48c-6.2,8.91-14.41,15.91-22.29,23.21c-1.06,0.98-2.31,1.72-2.95,3.08
		c-3.31-3.91-2.42-7.88,0.58-11.19c4.51-4.97,9.35-9.65,14.3-14.19C278.06,612.6,281.68,611.88,285.38,614.48z"/>
	<path class="st1" d="M238.19,567.07c-4.18,4.31-8.33,8.65-12.54,12.93c-4.33,4.41-8.57,8.93-13.77,12.36
		c-2.69-3.49-2-7.05,0.53-10.03c4.67-5.51,9.71-10.72,15.33-15.28C231.05,564.38,234.71,564.07,238.19,567.07z"/>
	<path class="st2" d="M305.23,652.4c-5.53,0.52-8.22-3.55-11.59-6.33c-1.1-0.91,0.07-1.69,0.7-2.32c3.06-3.06,6.28-5.98,8.31-9.89
		c0.95-1.83,1.95-1.13,3.01-0.22c1.82,1.56,3.69,3.08,5.43,4.74c2.73,2.61,3.32,5.94,1.93,9.25
		C311.6,651,308.75,652.74,305.23,652.4z"/>
	<path class="st1" d="M262.43,591.2c-3.19,1.15-4.6,4.25-6.88,6.39c-6.62,6.21-13.04,12.64-19.54,18.98
		c-3.02-3.58-2.3-7.35,0.41-10.37c4.79-5.32,9.85-10.46,15.24-15.17C254.87,588.23,258.89,588,262.43,591.2z"/>
	<path class="st2" d="M381.12,271.4c7.95-6.15,15.74-12.59,26.04-14.54c-1.44,5.72-3.83,10.49-9.96,12.81
		c-2.86,1.08-5.48,3.31-7.69,5.53c-2.98,2.99-4.89,2.63-6.65-0.99C382.39,273.22,381.71,272.33,381.12,271.4z"/>
	<path class="st2" d="M188.57,256.88c8.67,1.72,15.54,6.76,22.27,12.04c1.23,0.96,2.08,2.45,3.86,2.57
		c-4.54,7.11-4.51,7.08-10.72,2.13c-1.87-1.49-3.74-3.21-5.92-4.03C192.09,267.32,189.96,262.44,188.57,256.88z"/>
</g>
</svg>
