<?xml version="1.0" encoding="utf-8"?>
<!-- Generator: Adobe Illustrator 25.0.0, SVG Export Plug-In . SVG Version: 6.00 Build 0)  -->
<svg version="1.1" id="Layer_1" xmlns="http://www.w3.org/2000/svg" xmlns:xlink="http://www.w3.org/1999/xlink" x="0px" y="0px"
	 viewBox="0 0 595.28 841.89" style="enable-background:new 0 0 595.28 841.89;" xml:space="preserve">
<style type="text/css">
	.st0{fill:#1C174B;}
	.st1{fill:#E8D1A1;}
	.st2{fill:#E7A725;}
</style>
<g>
	<path class="st0" d="M503.35,421.3c0,64.91,0,129.82,0,194.74c0,21.01-12.43,33.48-33.36,33.48c-114.91,0.01-229.81,0.01-344.72,0
		c-20.89,0-33.35-12.51-33.35-33.48c0-129.98,0-259.97,0-389.95c0-21.35,12.31-33.71,33.59-33.71c114.75,0,229.49,0,344.24,0
		c21.26,0,33.59,12.38,33.59,33.71C503.36,291.16,503.35,356.23,503.35,421.3z"/>
	<path class="st1" d="M487.97,238.14c0.05,1.74,0.14,3.49,0.14,5.23c0.01,123.94-0.1,247.88,0.18,371.82
		c0.03,11.89-6.71,19.31-19.48,19.28c-114.42-0.31-228.84-0.29-343.26-0.01c-10.77,0.03-18.59-6.71-18.57-18.74
		c0.28-129.97,0.17-259.94,0.18-389.91c0-12.55,5.67-18.18,18.3-18.18c115.21,0,230.43,0,345.64,0c10.26,0,16.54,5.68,16.87,15.17
		c-2.57,2.26-5.72,1.56-8.66,1.56c-59.65,0.04-119.3,0.03-178.95,0.03c-29.19,0-58.38,0-87.57,0c-2.38,0-4.79-0.18-7.11,0.42
		c-2.88,0.74-4.89,2.65-4.89,5.67c0,3.02,2,4.95,4.89,5.67c2.64,0.66,5.37,0.42,8.06,0.42c88.36,0.01,176.73,0,265.09,0.04
		C481.93,236.59,485.24,235.8,487.97,238.14z"/>
	<path class="st2" d="M487.97,238.14c-92.52-0.02-185.05-0.03-277.57-0.05c-7.94,0-11.92-2.67-11.71-7.86
		c0.2-5.03,3.93-7.38,11.71-7.38c92.52-0.02,185.05-0.04,277.57-0.06C487.97,227.9,487.97,233.02,487.97,238.14z"/>
	<path class="st0" d="M429.83,413.33c3.15,11.43,10.07,18.63,20.47,22.64c5.52,2.13,7.91,5.1,7.1,9.1
		c-0.85,4.23-4.01,6.24-9.75,6.38c-17.66,0.43-35.17-0.24-52.22-5.63c-16.79-5.31-30.63-14.36-39.03-30.33
		c-1.32-2.5-3.15-2.16-5.13-2.16c-22.22-0.01-44.44,0-66.67-0.01c-19.85-0.01-32.68-12.86-32.69-32.74
		c-0.01-29.05-0.01-58.09,0-87.14c0.01-19.58,12.89-32.49,32.43-32.5c52.06-0.01,104.12-0.01,156.19,0
		c19.28,0.01,32.31,12.95,32.32,32.14c0.03,29.36,0.03,58.73,0,88.09c-0.02,19.16-13.07,32.11-32.33,32.14
		C437.21,413.33,433.89,413.33,429.83,413.33z"/>
	<path class="st0" d="M172.82,581.21c-6.28-0.85-12.46,0.34-18.56-1c-13.86-3.05-24.11-14.9-24.19-29.08
		c-0.16-30.95-0.2-61.91,0.01-92.86c0.11-16.24,13.63-29.61,29.93-29.65c53.65-0.13,107.3-0.13,160.95,0
		c16.31,0.04,29.8,13.36,29.92,29.66c0.23,30.95,0.22,61.91,0.01,92.86c-0.11,16.47-13.71,29.67-30.31,29.77
		c-22.86,0.14-45.71,0.09-68.57-0.03c-3.02-0.02-4.63,0.75-6.23,3.56c-9.79,17.32-25.74,26.03-44.34,30.75
		c-15.84,4.03-32.01,4.32-48.21,3.82c-4.33-0.13-7.56-2.97-7.81-6.87c-0.28-4.2,1.99-6.93,5.86-8.19
		c10.52-3.43,17.58-10.33,21.17-20.79C172.65,582.59,172.68,581.97,172.82,581.21z"/>
	<path class="st2" d="M366.22,508.16c0.21-10.57,8.84-18.84,19.44-18.63c10.57,0.21,18.85,8.85,18.64,19.43
		c-0.21,10.55-8.87,18.86-19.44,18.64C374.29,527.38,366.01,518.74,366.22,508.16z"/>
	<path class="st2" d="M457.63,508.52c0.03,10.57-8.42,19.06-18.99,19.09c-10.58,0.02-19.06-8.42-19.08-19
		c-0.02-10.59,8.4-19.05,18.99-19.08C449.13,489.51,457.6,497.93,457.63,508.52z"/>
	<path class="st0" d="M179.37,322.06c-0.14,10.38-9.09,19.14-19.28,18.88c-10.08-0.25-18.61-9.12-18.47-19.21
		c0.14-10.39,9.06-19.12,19.28-18.87C170.98,303.11,179.5,311.96,179.37,322.06z"/>
	<path class="st0" d="M214.08,302.86c10.08,0.16,18.64,8.92,18.62,19.05c-0.02,10.34-8.92,19.19-19.14,19.03
		c-10.07-0.16-18.64-8.93-18.62-19.07C194.97,311.52,203.85,302.69,214.08,302.86z"/>
	<path class="st2" d="M183.32,230.41c0.01,3.87-3.69,7.57-7.58,7.58c-4.08,0.01-7.59-3.46-7.6-7.5c-0.02-4.05,3.46-7.52,7.55-7.55
		C179.76,222.91,183.31,226.39,183.32,230.41z"/>
	<path class="st2" d="M423.9,435.62c-15.94-1.45-30.16-4.74-42.52-13.6c-6.04-4.33-10.73-9.93-13.15-17.08
		c-1.74-5.14-5.1-6.97-10.45-6.93c-24.43,0.17-48.87,0.09-73.31,0.07c-11.35-0.01-17.3-5.96-17.31-17.3
		c-0.01-29.2-0.02-58.39,0-87.59c0.01-10.97,6.09-17,17.13-17c52.04-0.01,104.09-0.01,156.13,0c11.28,0,17.2,5.99,17.2,17.41
		c0.01,29.04,0.02,58.07,0,87.11c-0.01,11.41-5.92,17.34-17.24,17.38c-6.35,0.02-12.69-0.07-19.04,0.03
		c-5.74,0.09-8.49,2.82-8.47,8.53c0.04,8.2,3.64,15.3,7.31,22.35C421.2,430.92,422.31,432.79,423.9,435.62z"/>
	<path class="st2" d="M178.94,603.26c4.74-8.27,8.92-15.55,10.53-23.89c0.36-1.85,0.58-3.77,0.52-5.65
		c-0.16-5.15-2.84-7.87-8.06-7.97c-6.98-0.14-13.96,0.03-20.94-0.06c-9.19-0.11-15.68-6.43-15.7-15.54
		c-0.07-30.31-0.08-60.61,0-90.92c0.02-8.86,6.51-15.38,15.35-15.39c53.15-0.06,106.31-0.06,159.46-0.01
		c9.14,0.01,15.57,6.46,15.6,15.64c0.07,30.15,0.07,60.29,0,90.44c-0.02,9.43-6.44,15.75-15.94,15.78
		c-24.91,0.06-49.82,0.11-74.73-0.05c-5.37-0.03-8.63,1.87-10.38,7.01c-2.31,6.8-6.75,12.22-12.44,16.47
		C209.71,598.46,195.17,601.7,178.94,603.26z"/>
	<path class="st1" d="M362.9,299.04c21.08,0,42.17-0.03,63.25,0.02c4.86,0.01,7.96,2.44,8.42,6.67c0.4,3.73-1.48,6.44-4.81,7.94
		c-1.23,0.55-2.77,0.58-4.17,0.58c-42.17,0.03-84.33,0.03-126.5,0.01c-5.49,0-9.01-3.1-8.98-7.65c0.03-4.55,3.55-7.55,9.07-7.56
		C320.42,299.02,341.66,299.04,362.9,299.04z"/>
	<path class="st1" d="M324.07,352.37c-8.39,0-16.78,0.04-25.17-0.02c-5.35-0.04-8.96-3.32-8.79-7.82c0.16-4.42,3.54-7.37,8.75-7.38
		c16.94-0.04,33.88-0.04,50.82,0c5.38,0.01,8.96,3.27,8.82,7.79c-0.14,4.34-3.65,7.38-8.77,7.41
		C341.17,352.41,332.62,352.37,324.07,352.37z"/>
	<path class="st1" d="M404.76,337.14c7.12,0,14.25-0.05,21.37,0.02c5.09,0.05,8.54,3.18,8.56,7.57c0.02,4.33-3.52,7.61-8.55,7.63
		c-14.56,0.06-29.12,0.06-43.69,0c-5.1-0.02-8.53-3.2-8.53-7.6c0-4.4,3.43-7.55,8.53-7.6C389.88,337.08,397.32,337.14,404.76,337.14
		z"/>
	<path class="st1" d="M240.55,481.9c-21.24,0-42.48-0.02-63.73,0.02c-3.71,0.01-6.33-1.33-7.93-4.83c-1.41-3.08-0.36-5.6,1.41-7.94
		c1.96-2.58,4.9-2.5,7.81-2.5c34.4,0.02,68.8,0.01,103.2,0.01c7.29,0,14.58-0.02,21.88,0.01c5.97,0.02,9.52,2.83,9.6,7.52
		c0.07,4.63-3.64,7.7-9.46,7.71C282.4,481.91,261.47,481.9,240.55,481.9z"/>
	<path class="st1" d="M278.56,504.76c8.39,0,16.78-0.03,25.17,0.01c5.5,0.03,9.02,3.02,9.05,7.57c0.03,4.49-3.6,7.63-9.02,7.65
		c-16.78,0.04-33.57,0.04-50.35,0c-5.48-0.01-9.01-3.06-9.02-7.59c-0.01-4.55,3.51-7.59,9-7.62
		C261.78,504.72,270.17,504.76,278.56,504.76z"/>
	<path class="st1" d="M198.99,504.76c7.12,0,14.25-0.05,21.37,0.02c5.12,0.05,8.55,3.12,8.62,7.51c0.06,4.33-3.49,7.66-8.49,7.68
		c-14.56,0.06-29.12,0.06-43.69,0c-5.1-0.02-8.55-3.15-8.59-7.54c-0.05-4.39,3.41-7.6,8.47-7.65
		C184.11,504.7,191.55,504.76,198.99,504.76z"/>
</g>
</svg>
