<?xml version="1.0" encoding="utf-8"?>
<!-- Generator: Adobe Illustrator 25.0.0, SVG Export Plug-In . SVG Version: 6.00 Build 0)  -->
<svg version="1.1" id="Layer_1" xmlns="http://www.w3.org/2000/svg" xmlns:xlink="http://www.w3.org/1999/xlink" x="0px" y="0px"
	 viewBox="0 0 595.28 841.89" style="enable-background:new 0 0 595.28 841.89;" xml:space="preserve">
<style type="text/css">
	.st0{fill:#1C174B;}
	.st1{fill:#E8D1A1;}
	.st2{fill:#E7A725;}
	.st3{fill:#FFFFFF;}
</style>
<g>
	<path class="st0" d="M534.85,436.64c0,41.18,0.01,82.36,0,123.54c0,17.15-9.48,26.7-26.5,26.7c-57.98,0.01-115.97,0.04-173.95-0.08
		c-3.93-0.01-5.6,0.65-5.24,5c0.42,5.07,0.26,10.21,0.04,15.31c-0.12,2.88,0.9,3.58,3.65,3.55c13.67-0.12,27.34-0.07,41.02-0.05
		c8.18,0.01,10.73,2.49,10.74,10.48c0.02,9.06,0.04,18.12-0.01,27.18c-0.03,6.86-2.79,9.76-9.48,9.76
		c-51.72,0.03-103.45,0.03-155.17,0c-6.43,0-9.25-2.92-9.29-9.44c-0.06-9.55-0.06-19.11,0-28.66c0.04-6.45,2.9-9.28,9.41-9.31
		c13.84-0.05,27.67-0.11,41.51,0.06c3.28,0.04,4.73-0.55,4.49-4.23c-0.33-5.09-0.31-10.22,0-15.31c0.22-3.54-0.97-4.35-4.39-4.33
		c-31.63,0.13-63.25,0.08-94.88,0.08c-26.85,0-53.7,0.02-80.55-0.01c-16.01-0.02-25.84-9.84-25.84-25.86
		c-0.01-82.86-0.01-165.71,0-248.57c0-16.38,9.7-25.98,26.16-26.05c4.25-0.02,9.92,1.41,12.4-0.74c2.89-2.52,0.91-8.34,0.93-12.72
		c0.11-18.28,0.04-36.57,0.05-54.85c0.01-8.19,2.48-10.74,10.47-10.74c51.06-0.01,102.13-0.01,153.19,0
		c7.71,0,10.28,2.62,10.29,10.44c0.02,21.41,0.08,42.83-0.07,64.24c-0.02,3.31,0.63,4.54,4.25,4.47
		c13.01-0.23,26.03-0.16,39.04-0.04c2.92,0.03,4.34-0.33,4.37-3.89c0.03-3.77-1.46-4.34-4.64-4.13c-3.61,0.24-7.25,0.15-10.87,0.02
		c-5.27-0.2-8.26-3.1-8.32-8.39c-0.13-10.21-0.13-20.43,0-30.64c0.07-5.27,3.07-8.18,8.35-8.35c3.95-0.13,7.92-0.2,11.86,0.02
		c2.9,0.17,3.86-0.96,3.48-3.66c-0.09-0.65-0.02-1.32-0.01-1.97c0.06-7.69,2.63-10.22,10.5-10.23c15.81-0.02,31.63-0.04,47.44,0.03
		c2.84,0.01,5.54-0.39,8.23-1.23c31.41-9.72,62.82-19.41,94.23-29.12c9.63-2.98,13.55-0.05,13.55,10.17
		c0.01,10.38,0.17,20.76-0.09,31.13c-0.09,3.79,0.81,5.25,4.82,4.9c7.56-0.67,14.34,1.39,19.86,6.87
		c6.82,6.77,8.97,16.59,5.28,25.49c-3.83,9.21-10.93,14.13-20.85,14.96c-1.47,0.12-2.98,0.16-4.44,0.02
		c-3.01-0.29-4.72,0.08-4.74,4.01c-0.01,4.03,1.87,4.09,4.8,3.96c3.45-0.16,6.92-0.07,10.38-0.03
		c14.38,0.15,24.49,10.23,24.51,24.71C534.89,352.96,534.85,394.8,534.85,436.64z"/>
	<path class="st1" d="M297.55,539.44c-71.81,0-143.62-0.04-215.43,0.1c-4.54,0.01-6.03-0.75-6.02-5.74
		c0.19-73.46,0.13-146.91,0.13-220.37c0-8.85,2.31-11.28,11-11.18c4.07,0.05,9.33-1.77,11.9,0.73c2.59,2.52,0.72,7.8,0.78,11.87
		c0.14,8.4,0,16.8,0.05,25.2c0.04,6.78,2.83,9.59,9.64,9.59c51.55,0.02,103.1,0.02,154.65,0c6.81,0,9.61-2.81,9.64-9.59
		c0.05-11.36,0.13-22.73-0.06-34.09c-0.05-3.12,0.92-3.84,3.9-3.81c15.81,0.14,31.62,0.15,47.43,0c3.14-0.03,4.23,0.71,4.17,4.04
		c-0.21,11.2-0.11,22.4-0.07,33.6c0.02,7.1,2.76,9.82,9.87,9.86c6.92,0.04,13.84,0.08,20.75-0.01c5.45-0.07,8.15-2.47,8.93-7.85
		c2.05-14.16,4.15-28.32,5.98-42.51c0.48-3.75,1.64-5.49,5.74-5.08c2.66,0.27,5.18,0.8,7.68,1.57
		c31.26,9.63,62.51,19.28,93.76,28.92c9.26,2.86,13.2-0.19,13.37-10.01c0.07-4.05-1.87-9.41,0.9-11.76
		c2.34-1.98,7.52-0.68,11.45-0.69c9.07-0.04,11.32,2.25,11.32,11.37c0,73.46-0.05,146.91,0.11,220.37c0.01,4.61-1.29,5.57-5.68,5.56
		C441.5,539.4,369.52,539.44,297.55,539.44z"/>
	<path class="st2" d="M187.18,223.15c21.89,0,43.79,0.09,65.68-0.09c3.93-0.03,5.36,0.76,5.34,5.06c-0.18,33.58-0.18,67.17,0,100.75
		c0.02,4.3-1.41,5.07-5.34,5.06c-43.95-0.13-87.91-0.13-131.86,0c-3.92,0.01-5.36-0.76-5.34-5.06c0.18-33.58,0.18-67.17,0-100.75
		c-0.02-4.3,1.41-5.09,5.34-5.06C143.06,223.24,165.12,223.15,187.18,223.15z"/>
	<path class="st2" d="M297.97,555.26c71.33,0,142.65-0.03,213.98,0.13c2.35,0.01,6.7-2.69,7.1,2.98c0.55,7.81-1.64,11.89-7.03,12.62
		c-1.3,0.18-2.63,0.07-3.95,0.07c-140.35,0-280.69,0-421.04,0c-8.83,0-12.85-5.23-10.79-13.86c0.34-1.42,0.99-1.94,2.32-1.93
		c1.48,0.01,2.96-0.02,4.45-0.02C154.65,555.26,226.31,555.26,297.97,555.26z"/>
	<path class="st2" d="M479.5,202.94c0,1.55,0,3.16,0,4.76c0,31.46-0.09,62.92,0.1,94.38c0.03,4.47-0.89,5.09-5.1,3.76
		c-26.16-8.26-52.38-16.3-78.63-24.25c-2.58-0.78-3.39-1.91-3.38-4.45c0.08-14.99,0.06-29.98,0.02-44.97
		c-0.01-2.01,0.39-3.37,2.62-4.05c27.66-8.41,55.29-16.9,82.94-25.35C478.35,202.7,478.7,202.85,479.5,202.94z"/>
	<path class="st2" d="M297.58,642.24c-21.89,0-43.77-0.11-65.66,0.09c-4.17,0.04-5.72-0.77-5.58-5.34
		c0.34-10.56,0.07-10.57,10.62-10.57c41.96,0,83.92,0.08,125.88-0.11c4.61-0.02,6.28,0.89,6.08,5.85
		c-0.4,10.06-0.11,10.07-10.13,10.07C338.39,642.24,317.99,642.24,297.58,642.24z"/>
	<path class="st1" d="M376.71,255.26c0,6.41-0.11,12.83,0.05,19.23c0.07,2.83-0.58,4.12-3.78,4.07c-10.68-0.18-21.37-0.17-32.06,0
		c-3.17,0.05-3.83-1.19-3.8-4.05c0.12-13.15,0.11-26.3,0-39.46c-0.02-2.83,0.58-4.12,3.78-4.07c10.68,0.18,21.37,0.17,32.06,0
		c3.17-0.05,3.87,1.19,3.8,4.05C376.6,241.78,376.71,248.52,376.71,255.26z"/>
	<path class="st2" d="M297.5,610.61c-4.11,0-8.21-0.11-12.31,0.04c-2.57,0.1-3.47-0.85-3.41-3.41c0.14-5.74,0.12-11.49,0.01-17.24
		c-0.04-2.35,0.86-3.16,3.17-3.14c8.54,0.09,17.08,0.07,25.62,0.01c2.11-0.02,2.92,0.8,2.89,2.9c-0.07,5.91-0.09,11.82,0.01,17.73
		c0.04,2.35-0.85,3.2-3.17,3.14C306.04,610.52,301.77,610.6,297.5,610.61z"/>
	<path class="st1" d="M345.08,314.04c0-5.42,0.08-10.84-0.04-16.26c-0.05-2.45,0.66-3.4,3.31-3.53c11.33-0.57,11.29-0.67,9.71,10.55
		c-1.14,8.1-2.13,16.22-3.23,24.32c-0.59,4.28-4.7,6.41-8.54,4.57c-1.63-0.78-1.17-2.19-1.18-3.4
		C345.05,324.87,345.08,319.45,345.08,314.04z"/>
	<path class="st1" d="M495.31,254.37c0.34-3.46-1.94-8.23,5.19-7.63c7,0.59,10.71,2.91,10.6,8.2c-0.11,5.13-3.64,7.81-10.44,7.73
		C494.31,262.59,495.42,263.54,495.31,254.37z"/>
	<path class="st1" d="M321.36,254.43c0,1.31-0.1,2.63,0.02,3.92c0.27,2.88-0.3,4.51-3.87,4.45c-3.25-0.05-4.42-1.06-4.1-4.24
		c0.2-1.94-0.06-3.93,0.06-5.88c0.16-2.62-1.36-5.92,3.82-5.96c4.98-0.05,4.01,2.94,4.06,5.74
		C321.37,253.12,321.36,253.77,321.36,254.43z"/>
	<path class="st0" d="M202.73,381.3c33.26,0,66.51,0,99.77,0c8.48,0,10.94,2.42,10.95,10.77c0.01,40.34,0.01,80.67,0,121.01
		c0,8.04-2.55,10.55-10.67,10.55c-66.68,0.01-133.36,0.01-200.03,0c-8.15,0-10.69-2.5-10.69-10.53c-0.01-40.5-0.01-81,0-121.5
		c0-7.73,2.6-10.29,10.42-10.29C135.89,381.29,169.31,381.3,202.73,381.3z"/>
	<path class="st0" d="M408.34,365.48c22.89,0,45.78-0.01,68.67,0.01c7.78,0.01,10.36,2.59,10.4,10.33
		c0.02,5.93,0.14,11.86-0.05,17.78c-0.09,2.83,0.86,3.9,3.62,3.53c0.97-0.13,1.97-0.04,2.96-0.02c6.42,0.13,9.26,2.94,9.27,9.47
		c0.04,21.9,0.02,43.8,0.02,65.71c0,8.73,0.05,17.46-0.02,26.18c-0.05,6.45-2.92,9.32-9.41,9.32c-43.8,0.03-87.61,0.03-131.41,0
		c-6.49,0-9.32-2.88-9.39-9.34c-0.07-6.26-0.16-12.52,0.05-18.77c0.09-2.87-0.88-3.71-3.64-3.55c-3.78,0.21-7.57,0.13-11.36,0.03
		c-5.62-0.14-8.72-2.99-8.74-8.48c-0.07-31.29-0.08-62.58,0.01-93.86c0.02-5.57,3.27-8.32,9.37-8.33
		C361.9,365.46,385.12,365.48,408.34,365.48z"/>
	<path class="st0" d="M163.21,278.48c0-7.41-0.05-14.82,0.01-22.22c0.07-8,5.42-11.52,12.48-8.04c15.2,7.48,30.31,15.13,45.47,22.68
		c3.2,1.59,5.28,3.88,5.27,7.63c-0.01,3.74-2.1,6.01-5.31,7.61c-15.17,7.54-30.28,15.19-45.47,22.67
		c-6.85,3.37-12.34-0.04-12.43-7.61C163.14,293.63,163.21,286.05,163.21,278.48z"/>
	<path class="st2" d="M108.19,403.61c10.46,6.41,20.24,12.39,30.01,18.4c19.75,12.15,39.52,24.28,59.21,36.53
		c3.86,2.4,7.19,2.15,10.98-0.19c28.69-17.72,57.44-35.33,86.18-52.97c0.68-0.42,1.39-0.78,2.08-1.16c1.61,1.25,0.95,2.85,0.95,4.2
		c0.04,31.45-0.01,62.91,0.1,94.36c0.01,3.58-0.53,5.15-4.74,5.14c-60.11-0.15-120.22-0.11-180.33-0.07c-2.91,0-4.88,0.04-4.86-4
		c0.16-32.44,0.09-64.88,0.1-97.33C107.87,405.88,108.01,405.24,108.19,403.61z"/>
	<path class="st3" d="M128.53,397.35c49.82,0,98.6,0,148.42,0c-1.73,1.17-2.72,1.88-3.75,2.51c-22.14,13.62-44.32,27.18-66.39,40.92
		c-2.89,1.8-4.93,1.96-7.94,0.08c-22.05-13.77-44.24-27.31-66.39-40.93C131.43,399.27,130.4,398.57,128.53,397.35z"/>
	<path class="st2" d="M428.08,492c-18.27,0-36.54-0.07-54.81,0.07c-3.31,0.03-4.57-0.73-4.54-4.33c0.15-23.54,0.13-47.07,0.02-70.61
		c-0.01-3.12,0.75-4.28,4.09-4.27c36.87,0.11,73.74,0.11,110.6,0c3.43-0.01,4.04,1.29,4.03,4.33c-0.1,23.54-0.13,47.07,0.02,70.61
		c0.02,3.68-1.38,4.29-4.61,4.26C464.61,491.93,446.34,492,428.08,492z"/>
	<path class="st3" d="M408.44,381.3c19.6,0,39.2,0.08,58.8-0.07c3.48-0.03,4.44,1.01,4.44,4.45c-0.02,11.44,0.11,11.44-11.22,11.44
		c-32.28,0-64.57,0-96.85,0c-8.21,0-10.62,2.38-10.62,10.51c-0.01,16.14-0.06,32.28,0.05,48.42c0.02,2.96-0.44,4.46-3.96,4.44
		c-3.41-0.02-4.06-1.3-4.05-4.36c0.1-23.55,0.13-47.11-0.03-70.66c-0.03-3.72,1.45-4.25,4.64-4.23
		C369.24,381.36,388.84,381.3,408.44,381.3z"/>
	<path class="st1" d="M179.13,289.39c0-7.62,0-14.31,0-21.73c7.14,3.56,13.91,6.94,21.66,10.82
		C193.2,282.3,186.47,285.69,179.13,289.39z"/>
	<path class="st0" d="M443.9,444.56c-7.72,0-15.45-0.14-23.17,0.06c-3.28,0.09-4.58-0.68-4.58-4.3
		c0.01-11.58-0.15-11.58,11.52-11.58c13.15,0,26.29,0.09,39.44-0.06c3.28-0.04,4.58,0.68,4.58,4.3
		c-0.01,11.58,0.15,11.58-11.52,11.58C454.74,444.56,449.32,444.56,443.9,444.56z"/>
	<path class="st0" d="M452.26,476.18c-5.58,0-11.17-0.08-16.75,0.04c-2.46,0.05-3.38-0.68-3.52-3.32
		c-0.65-12.54-0.74-12.53,11.52-12.53c8.05,0,16.09,0.1,24.14-0.05c2.9-0.06,3.97,0.71,4.03,3.83c0.24,12.04,0.36,12.04-11.53,12.04
		C457.52,476.19,454.89,476.19,452.26,476.18z"/>
	<path class="st0" d="M400.83,460.37c1.31,0,2.63,0,3.94,0c12.82,0,12.76-0.01,11.53,12.99c-0.2,2.11-0.91,2.86-2.97,2.84
		c-8.53-0.06-17.07-0.08-25.6,0.01c-2.34,0.02-3-0.88-3.16-3.16c-0.86-12.69-0.92-12.68,11.83-12.68
		C397.87,460.37,399.35,460.37,400.83,460.37z"/>
	<path class="st0" d="M400.43,436.91c0,7.65,0,7.65-8.91,7.64c-6.91,0-6.99,0-6.88-9.64c0.08-7.39-1.31-6.11,9.37-6.14
		C401.58,428.76,400.3,427.7,400.43,436.91z"/>
</g>
</svg>
