<?xml version="1.0" encoding="utf-8"?>
<!-- Generator: Adobe Illustrator 25.0.0, SVG Export Plug-In . SVG Version: 6.00 Build 0)  -->
<svg version="1.1" id="Layer_1" xmlns="http://www.w3.org/2000/svg" xmlns:xlink="http://www.w3.org/1999/xlink" x="0px" y="0px"
	 viewBox="0 0 595.28 841.89" style="enable-background:new 0 0 595.28 841.89;" xml:space="preserve">
<style type="text/css">
	.st0{fill:#1C174B;}
	.st1{fill:#E8D1A1;}
	.st2{fill:#6E8CC7;}
	.st3{fill:#F26A6B;}
	.st4{fill:#80D2EC;}
	.st5{fill:#F494BE;}
	.st6{fill:#F04C4D;}
	.st7{fill:#F2748E;}
	.st8{fill:#5274B9;}
	.st9{fill:#51C8EE;}
	.st10{fill:#E7A725;}
	.st11{fill:#F391B9;}
	.st12{fill:#FFFFFF;}
	.st13{fill:#F394BE;}
	.st14{fill:#F293BD;}
</style>
<g>
	<path class="st0" d="M418.01,197.82c10.74,0,21.48,0,32.22,0c34.88,4.02,67.35,37.61,70.54,71.41c0,10.16,0,20.32,0,30.48
		c-4.54,30.72-22.64,51.2-49.32,65.15c-4.67,2.44-4.81,2.32-3.27,7.57c4.74,16.14,6.87,32.69,6.64,49.41
		c-0.22,15.38-2.33,30.63-6.63,45.51c-1.58,5.48-1.34,5.36,3.59,7.8c23.24,11.54,39.15,29.5,47.14,54.31
		c1.2,3.73,1.11,7.67,1.86,11.48c0,9.87,0,19.74,0,29.61c-1.8,18.09-10.1,33.27-22.4,46c-16.22,16.78-36.12,26.21-59.84,27.22
		c-21.31,0.91-40.46-4.74-57.51-17.4c-12.1-8.99-21.34-20.44-27.46-34.24c-1.51-3.41-3.22-4.07-6.68-3.05
		c-16.1,4.76-32.66,7.05-49.37,6.93c-15.82-0.11-31.5-2.33-46.78-6.79c-4.98-1.45-4.83-1.19-7.16,3.43
		c-14.77,29.37-38.25,47.12-71.06,50.81c-25.39,2.86-48.25-4.34-67.72-21.31c-4.75-4.14-5.24-7.85-1.64-12.81
		c4.26-2.91,8.23-2.13,11.91,1.08c11.73,10.26,25.36,16.11,40.86,17.63c12.91,1.77,25.25-0.7,36.86-6.02
		c23.74-10.88,38.09-29.43,42.37-55.23c3.25-19.62-1.19-37.73-12.81-53.94c-11.65-16.26-27.54-25.89-47.12-29.33
		c-4.92-0.87-9.97-1.9-15.06-0.95c-15.49,0.81-29.47,5.63-41.76,15.27c-15.35,12.03-24.23,27.79-27.42,46.88
		c-2.31,13.84-0.18,27.1,5.3,39.94c2.7,6.32,1.63,9.51-3.93,12.7c-5.26,0.73-7.6-0.51-9.99-5.45c-4.15-8.58-6.62-17.64-7.34-27.14
		c-1.55-20.22,1.92-39.33,13.17-56.56c9.65-14.79,22.3-26.27,38.52-33.49c2.98-1.33,3.86-2.69,2.89-5.92
		c-5.31-17.63-7.59-35.74-7.06-54.1c0.42-14.67,2.45-29.19,6.92-43.24c1.12-3.51,0.28-4.96-3.05-6.6
		c-29.57-14.64-47.58-38.09-51.26-71.11c-2.99-26.76,4.92-50.65,23.54-70.3c11.87-12.52,26.08-21.59,43.43-24.92
		c1.69-0.32,3.49,0.23,5.07-0.73c10.45,0,20.9,0,31.35,0c31.22,4.68,51.99,22.98,65.5,50.55c1.46,2.98,2.98,3.24,5.77,2.39
		c15.64-4.77,31.7-7.06,48.02-7.07c16.61-0.02,32.98,2.1,48.93,6.85c3.38,1.01,5.16,0.68,6.74-2.8
		c9.49-21.04,25.18-35.78,46.16-45.2C405.55,199.88,411.75,198.86,418.01,197.82z"/>
	<path class="st1" d="M221.27,340.67c4.99,2.4,7.1,2.15,10.2-1.86c15.79-20.4,22-43.35,17.8-68.89c-0.52-3.14,0.28-4.2,3.2-5.04
		c31.02-8.87,61.98-8.75,92.96,0.18c2.29,0.66,3.16,1.48,2.64,4.18c-8.91,46.4,23.74,93.14,70.34,101.07
		c10.27,1.75,20.45,2.13,30.66,0.05c2.46-0.5,3.49,0.12,4.23,2.66c9.13,31.27,9.15,62.48-0.07,93.74c-0.77,2.62-1.83,3.04-4.25,2.63
		c-48.15-8.33-94.26,24.71-101.37,72.66c-1.41,9.53-1.5,19.07,0.45,28.55c0.42,2.05,0.21,2.98-2.11,3.69
		c-20.78,6.39-41.97,8.2-63.56,6.15c-10.4-0.98-20.55-3.09-30.59-5.98c-2.61-0.75-3.01-1.85-2.59-4.27
		c8.36-47.13-23.39-92.28-70.71-100.77c-10.1-1.81-20.16-2.1-30.23-0.03c-2.37,0.49-3.54,0.02-4.29-2.54
		c-9.2-31.27-9.15-62.5-0.14-93.79c0.83-2.87,2.15-3.08,4.64-2.63c19.67,3.53,38.24,0.08,55.92-8.98c4.13-2.12,5.66-5.16,4.17-9.62
		C211.53,346.66,216.31,343.56,221.27,340.67z"/>
	<path class="st2" d="M438.62,358.13c-10.42,1.61-20.49-0.36-30.03-4.15c-27.83-11.06-44.39-31.41-48.11-61.32
		c-4.83-38.88,22.08-74.86,60.67-81.62c5.26-0.92,10.61-1.5,15.99-0.88c12.03,3.17,20.95,10.99,28.89,19.96
		c10.93,12.36,17.8,26.83,19.73,43.28c2.81,23.91-3.07,45.41-18.8,63.97c-5.96,7.03-12.9,12.85-20.74,17.67
		C443.8,356.53,441.15,357.1,438.62,358.13z"/>
	<path class="st3" d="M103.71,610.03c-4.33-3.97-7.11-9.15-10.69-13.71c3.87-2.83,4.31-6.18,2.39-10.57
		c-19.88-45.58,7.99-96.14,57.2-103.85c2.41-0.38,4.9-0.2,7.35-0.28c1.98-0.37,3.69,0.45,5.32,1.35
		c20.12,11.1,33.83,27.57,40.19,49.65c10.08,35.02-3.68,71.65-34.07,91.66c-4.71,3.1-9.61,6.11-15.75,4.76
		c-15.72-1.06-29.25-7.36-41.04-17.51C111.1,608.51,107.77,607.43,103.71,610.03z"/>
	<path class="st4" d="M169.77,357.97c-19.39,2.28-36.83-2.98-51.89-14.95c-23.28-18.5-33.17-43.03-27.59-72.25
		c5.84-30.6,24.98-50.04,54.99-58.51c6.84-1.93,13.92-2.72,21.07-2.08c9.29,1.03,16.13,6.75,22.96,12.3
		c6,4.87,10.68,10.98,15.05,17.33c1.85,2.68,1.95,4.79-1.56,6.04c-1.29,0.67-2.58,1.34-3.78,2.15c-3.28,2.21-6.36,2.4-10.14,0.55
		c-14.09-6.92-29.33,0.87-32.77,13.55c-1.33,4.9-3.19,5.48-8.19,3.83c-6.35-2.1-11.56-5.83-16.15-10.68
		c-2.27-2.39-4.26-6.13-8.51-4.83c-4.16,1.28-4.51,5.38-5.4,8.81c-2.31,9-2.71,18.01,0.09,27.03c1.94,6.28,5.47,11.46,10.24,15.9
		c1.21,1.13,3.06,2.39,2.33,4.29c-0.68,1.78-2.85,1.86-4.53,2.04c-3.17,0.33-6.32,0.9-9.49,1.18c-2.02,0.18-3.7,0.93-4.31,3.04
		c-0.65,2.27-0.21,4.31,1.59,5.95c0.76,0.69,1.62,1.22,2.54,1.67c16.58,8.04,33.73,10.09,50.92,2.81
		c20.74-8.78,31.59-25.28,33.44-47.48c0.7-8.41,4.68-14.94,9.18-21.48c2.75,0.53,2.96,3.01,3.54,4.97
		c8.36,28.3,3.74,54.16-14.73,77.37c-6.32,7.94-14.02,14.2-22.86,19.13C173.88,356.74,171.81,357.26,169.77,357.97z"/>
	<path class="st5" d="M434.53,629.61c-31.84,1.55-63.66-22.63-72.17-54.82c-11.4-43.15,17.09-86.37,61.28-92.92
		c2.14-0.32,4.33-0.22,6.5-0.31c3.74-0.99,7.12,0.15,10.38,1.81c10.5,5.36,18.96,13.13,26.15,22.36c1.1,1.41,2.68,3.06,0.09,4.67
		c-3.63,0.95-7.18-0.37-10.8-0.34c-14.49,0.12-28.97,0.05-43.46,0.05c-0.58,0-1.16,0-1.74,0.02c-15.56,0.41-21.82,6.76-21.85,22.26
		c-0.03,16.37-0.16,32.74,0.05,49.11c0.16,12.06,7.11,18.8,19.06,18.99c0.43,0.01,0.87,0.01,1.3,0.01
		c19.26-0.14,38.53,0.31,57.78-0.28c3.36,1.32,0.97,3.08,0.09,4.29c-5.03,6.94-11.18,12.78-18.16,17.75
		C444.59,625.44,440.08,628.56,434.53,629.61z"/>
	<path class="st6" d="M155.65,629.04c8.74-0.19,15.03-5.49,21.39-10.47c17.4-13.64,27.36-31.82,29.91-53.5
		c2.65-22.5-3.21-43.05-17.69-60.86c-8-9.84-17.92-17.15-29.3-22.59c13.38-1.28,25.87,1.94,37.59,8.09
		c27.92,14.63,43.78,45.66,39.18,76.16c-4.84,32.15-29.35,57.41-61.26,62.81C168.95,629.78,162.29,630.74,155.65,629.04z"/>
	<path class="st7" d="M434.53,629.61c7.62-4.07,14.95-8.51,21.45-14.35c4.75-4.27,8.59-9.23,12.48-14.21
		c-0.18-1.69,1.25-2.15,2.28-2.78c6.19-3.75,8.34-9.62,8.69-16.43c0.21-4.16-0.3-8.35,0.42-12.5c1.64-8.77,2.29-17.54,0.02-26.31
		c-0.73-4.01-0.42-8.06-0.39-12.09c0.06-8.21-2.25-15.09-10.12-19.08c-0.86-0.44-1.86-0.93-1.67-2.23
		c-4.95-8.53-12.02-15.04-20.03-20.53c-5.3-3.63-10.44-7.9-17.5-7.56c12.71-1.12,24.68,1.57,36.1,7.01
		c29.36,13.99,46.2,45.8,41.38,78.1c-4.68,31.34-30.09,57.1-61.42,62.06C442.37,629.33,438.48,630.18,434.53,629.61z"/>
	<path class="st8" d="M438.62,358.13c6.84-4.28,13.79-8.29,19.89-13.79c11.51-10.38,19.68-22.82,23.66-37.62
		c6.86-25.48,2.74-49.29-12.92-70.77c-7.18-9.84-16.2-17.64-27.18-23.09c-1.68-0.83-3.29-1.79-4.93-2.7
		c16.97,0.43,31.95,6.35,44.74,17.27c18.24,15.58,27.41,35.67,26.56,59.66c-1.24,35.48-27.11,63.88-59.94,70.14
		C445.22,357.87,441.97,358.37,438.62,358.13z"/>
	<path class="st9" d="M169.77,357.97c6.22-4.17,12.87-7.59,18.61-12.62c11.65-10.2,19.84-22.51,24.26-37.25
		c5.09-16.95,4.92-33.89-1.05-50.66c-0.38-1.06-1.07-2.01-1.61-3.02c-0.24-0.17-0.53-0.4-0.51-0.64c0.52-5.01-2.98-7.11-6.59-9.12
		c1.48-0.73,2.67-1.28,1.24-3.37c-9.59-14.04-21.39-25.35-37.78-31.12c29.98,0.95,58.66,21.33,67.86,52.81
		c7.13,24.38,2.63,46.87-12.65,67.11c-2.78,3.68-3.06,6.97-0.29,10.57c-3.74,4.28-8.66,7.22-12.69,11.17
		c-3.85-4.13-5.5-4.43-10.53-1.93C189.13,354.34,179.91,357.77,169.77,357.97z"/>
	<path class="st0" d="M310.16,440.81c-2.08,4.3-5.44,5.25-9.76,3.75c-0.54-0.19-1.18-0.18-1.67-0.45
		c-8.45-4.66-17.45-1.7-26.21-1.93c-2.57-0.07-1.73,1.87-1.68,3.08c0.33,7.82,0.78,15.64,1.17,23.47
		c0.26,5.21,0.59,10.43,0.73,15.65c0.12,4.3-2.46,7.27-6.2,7.47c-3.76,0.2-6.76-2.88-6.98-7.3c-0.64-12.6-1.35-25.2-1.76-37.81
		c-0.11-3.43-0.92-4.69-4.65-4.67c-9.71,0.04-14.71-5.17-14.77-14.78c-0.06-10.45-0.07-20.89,0-31.34
		c0.07-9.43,5.13-14.4,14.52-14.43c5.95-0.02,11.99-0.68,17.83,0.12c20.06,2.75,37.56-4.68,54.93-12.96
		c2.87-1.37,5.6-3.03,8.48-4.36c3.14-1.45,5.6-2.99,5.52-7.18c-0.05-2.88,2.38-4.59,5.15-5.07c3.01-0.52,5.38,0.75,6.9,3.43
		c0.89,1.58,0.89,3.31,0.89,5.07c-0.01,34.1-0.01,68.2-0.03,102.3c0,1.29,0,2.66-0.4,3.85c-1.09,3.27-3.42,4.95-6.96,4.61
		c-3.32-0.32-5.6-2.21-5.66-5.48c-0.06-3.3-1.59-4.88-4.33-6.11c-2.89-1.3-5.57-3.09-8.48-4.37c-4.13-1.81-6.1-4.69-5.38-9.24
		c1.17-4.01,3.67-5.72,7.61-5.21c1.01,0.13,1.97,0.47,2.92,0.82c6.4,2.4,6.4,2.4,6.4-4.7c0-17.67,0.02-35.34-0.01-53
		c-0.01-4.92-0.6-5.36-4.86-3.13c-12.13,6.35-24.9,10.99-38.09,14.49c-3.51,0.93-5.1,2.58-4.99,6.32c0.19,6.66,0.19,13.33,0,19.98
		c-0.11,3.75,1.46,5.53,5.02,6.29c3.82,0.82,7.6,1.93,11.1,3.7C310.74,433.85,311.76,436.58,310.16,440.81z"/>
	<path class="st10" d="M310.16,440.81c0-6.04-0.76-7.09-6.58-8.96c-2.06-0.66-4.1-1.36-6.18-1.96c-8.33-2.41-8.33-2.4-8.33-11.28
		c0-6.67,0.06-13.35-0.04-20.02c-0.03-1.99,0.4-2.92,2.61-3.48c15.57-3.94,30.55-9.53,44.75-17.06c2.57-1.36,3.11-0.86,3.1,1.91
		c-0.07,22.05-0.04,44.09-0.04,66.41c-2.66-0.16-4.55-1.79-6.66-2.83c-5.64-2.76-7.74-2.31-11.4,2.59
		C318.21,443.17,313.82,442.76,310.16,440.81z"/>
	<path class="st0" d="M421.96,310.02c0-5.37-0.28-10.75,0.09-16.09c0.28-4.03-1.24-5.17-4.93-4.64c-1.42,0.2-2.9,0.08-4.35,0.01
		c-3.88-0.17-6.44-2.52-6.67-6.04c-0.2-3.19,2.45-6.38,6.03-6.85c2.14-0.28,4.36-0.28,6.51-0.06c2.81,0.28,3.42-0.92,3.36-3.49
		c-0.13-5.36-0.21-10.75,0.15-16.09c0.87-12.79,9.94-21.92,22.77-23.09c3.17-0.29,6.39-0.23,9.57-0.05
		c4.07,0.23,7.12,3.46,6.87,6.94c-0.26,3.59-3.01,5.94-7.16,6.04c-2.61,0.06-5.23-0.09-7.83,0.05c-6.06,0.31-10.28,4.09-11.16,10.06
		c-0.86,5.77-0.16,11.58-0.38,17.37c-0.07,1.76,0.79,2.26,2.38,2.22c2.46-0.05,4.94-0.13,7.39,0.03c4.23,0.27,6.96,3.12,6.79,6.88
		c-0.17,3.84-2.58,5.95-6.93,6.09c-9.63,0.3-9.63,0.3-9.63,9.84c0,9.28,0.05,18.57-0.02,27.85c-0.04,5.28-2.02,7.6-6.18,7.7
		c-4.37,0.1-6.55-2.33-6.65-7.73C421.88,321.33,421.96,315.67,421.96,310.02z"/>
	<path class="st0" d="M139.33,553.99c0-8.12-0.05-16.24,0.02-24.37c0.07-7.9,6.99-12.19,13.81-8.33
		c14.6,8.25,29.13,16.65,43.58,25.17c6.92,4.08,7.02,12.04,0.13,16.12c-14.56,8.62-29.22,17.08-43.99,25.33
		c-6.66,3.72-13.45-0.59-13.52-8.26C139.27,571.11,139.33,562.55,139.33,553.99z"/>
	<path class="st0" d="M202.89,244.66c6.31,0.57,8.27,3.27,7.09,9.76c-1.77,4.26-3.62,8.44-6.41,12.22c-1.98,2.68-1.18,6.17-1.45,9.3
		c-0.91,10.59-4.15,20.36-10.23,29.07c-15.55,22.28-44.86,29.88-71.31,18.58c-2.38-1.02-4.74-2.14-7-3.39
		c-2.95-1.64-3.7-4.38-2.98-7.47c0.67-2.87,2.73-4.36,5.64-4.57c4.57-0.33,9.2-0.31,14.28-2.11c-2.2-2.14-4.23-3.93-6.05-5.91
		c-12.23-13.27-11.68-34.02-5.59-47.78c2.17-4.91,7.62-5.17,11.31-0.67c5.18,6.32,11.28,11.03,19.23,13.46
		c3.49,1.06,4.56,0.24,5.53-3.09c4.26-14.62,20.26-21.88,33.58-14.89c4.17,2.19,7.08,1.81,10.49-0.61
		C200.19,245.76,201.6,245.29,202.89,244.66z"/>
	<path class="st0" d="M467.67,509.64c9.37,3.88,13.37,11.01,12.93,21c-0.17,4,0.08,8.02,0.14,12.04c1.4,9.01,1.05,18.03-0.01,27.04
		c-0.05,3.32-0.31,6.65-0.13,9.96c0.55,9.79-3,17.15-12.15,21.39c-16.18,1.72-32.42,0.37-48.62,0.77c-4.35,0.11-8.7,0.05-13.05,0.01
		c-11-0.11-18.85-7.4-18.99-18.33c-0.24-18.7-0.23-37.41,0-56.11c0.13-10.76,7.47-18.13,18.58-18.18
		C426.8,509.11,447.25,508.45,467.67,509.64z"/>
	<path class="st11" d="M480.73,569.71c0-9.01,0.01-18.03,0.01-27.04C483.61,551.68,482.94,560.7,480.73,569.71z"/>
	<path class="st1" d="M275.98,411.75c0,4.79-0.09,9.57,0.04,14.36c0.06,2.12-0.67,2.74-2.74,2.7c-6.23-0.13-12.47-0.15-18.71-0.04
		c-2.15,0.04-3.05-0.4-3.02-2.82c0.14-9.57,0.13-19.14,0.03-28.71c-0.02-2.12,0.65-2.7,2.71-2.66c6.23,0.12,12.48,0.17,18.71-0.02
		c2.63-0.08,3.1,0.96,3.03,3.27C275.87,402.47,275.98,407.11,275.98,411.75z"/>
	<path class="st12" d="M184.61,554.56c-10.89,6.29-21.21,12.26-31.94,18.47c0-12.35,0-24.26,0-36.86
		C163.25,542.26,173.65,548.25,184.61,554.56z"/>
	<path class="st12" d="M143.12,315.18c1.3-0.79,1.89-1.16,2.49-1.5c2.83-1.63,5.43-3.4,5.31-7.23c-0.11-3.85-2.83-5.3-5.76-6.82
		c-13.34-6.92-18.72-16.75-16.81-30.92c7.58,5.76,15.86,9.53,25.23,10.53c2.01,0.21,4.04,0.43,6.06,0.4
		c4.45-0.07,6.95-2.44,7.35-6.88c0.17-1.87-0.01-3.78,0.19-5.65c0.48-4.43,4.27-8.39,8.61-9.15c4.31-0.76,12.36,2.27,13.16,5.71
		c1.04,4.47,0.5,9.2-0.05,13.79c-2.66,22.41-21.15,38.49-43.72,38.1C144.77,315.54,144.38,315.41,143.12,315.18z"/>
	<path class="st13" d="M467.37,555.36c0,8.85,0.05,17.7-0.02,26.54c-0.04,5.15-1.69,6.81-6.78,6.82c-17.7,0.04-35.39,0.04-53.09,0
		c-4.83-0.01-6.51-1.69-6.52-6.6c-0.05-17.84-0.06-35.68,0.01-53.52c0.02-4.8,1.46-6.18,6.3-6.2c17.84-0.05,35.68-0.05,53.52,0
		c5.16,0.01,6.54,1.48,6.57,6.86C467.41,537.96,467.37,546.66,467.37,555.36z"/>
	<path class="st0" d="M453.77,555.7c-0.06,10.94-8.68,19.45-19.68,19.43c-11.16-0.02-19.68-8.68-19.62-19.92
		c0.06-10.83,8.82-19.49,19.69-19.48C445.16,535.72,453.84,544.57,453.77,555.7z"/>
	<path class="st14" d="M440.67,555.56c-0.04,3.68-2.93,6.45-6.68,6.39c-3.7-0.06-6.52-2.98-6.43-6.65c0.09-3.62,3.14-6.59,6.69-6.51
		C437.83,548.86,440.72,551.92,440.67,555.56z"/>
</g>
</svg>
