<?xml version="1.0" encoding="utf-8"?>
<!-- Generator: Adobe Illustrator 25.0.0, SVG Export Plug-In . SVG Version: 6.00 Build 0)  -->
<svg version="1.1" id="_x3C_Layer_x3E_" xmlns="http://www.w3.org/2000/svg" xmlns:xlink="http://www.w3.org/1999/xlink" x="0px"
	 y="0px" viewBox="0 0 2433.9 2000" style="enable-background:new 0 0 2433.9 2000;" xml:space="preserve">
<style type="text/css">
	.st0{fill:#EA9A81;}
	.st1{fill:#FFDD93;}
	.st2{fill:#FFD000;}
	.st3{fill:#FFDB72;}
	.st4{fill:#FFFFFF;}
	.st5{opacity:0.5;}
	.st6{opacity:0.6;}
	.st7{fill:#EABCB5;}
	.st8{fill:#44393D;}
	.st9{fill:#000050;}
	.st10{opacity:0.4;}
	.st11{fill:#E6A71F;}
	.st12{fill:#64555A;}
	.st13{fill:#131F2D;}
	.st14{fill:#ED6B6C;}
	.st15{fill:#A74C3B;}
	.st16{fill:#020202;}
	.st17{fill:#E47E6A;}
	.st18{fill:#E9633E;}
	.st19{fill:#080435;}
	.st20{fill:#CD653F;}
	.st21{opacity:0.3;}
	.st22{fill:#EC865C;}
</style>
<g>
	<path class="st0" d="M1795.27,713.1c0,0-75.86-5.98-105.77-49.14l-21.85,20.48c0,0,37.01,63.21,118.94,61.36L1795.27,713.1z"/>
</g>
<g>
	<ellipse class="st1" cx="1243.26" cy="1573.29" rx="871.54" ry="116.56"/>
</g>
<g>
	<path class="st2" d="M1606.63,1337.65c0,0,220.09-511.79,356.66-446.84c136.57,64.95-223.44,310.26-282.79,461.27L1606.63,1337.65z
		"/>
</g>
<g>
	<path class="st3" d="M1600.67,1361.4c0,0,385.52-438.43,527-322.3s-337.89,232.69-445.18,364.11L1600.67,1361.4z"/>
</g>
<g>
	<g>
		<path class="st4" d="M1646.23,1385.2c72.44-92.11,182.2-166.5,261.52-212.68c85.99-50.07,155.68-78.67,156.37-78.95l-1.77-4.34
			c-0.7,0.28-70.69,29.01-156.96,79.24c-79.67,46.39-189.94,121.14-262.84,213.83L1646.23,1385.2z"/>
	</g>
</g>
<g>
	<g>
		<path class="st2" d="M2048.62,1528.9c-57.24-10.57-81.71,72.57-135.38,32.83c-45.38-33.64-47.69-40.09-71.29-32.83
			c-8.09,2.49-15.73,6.23-22.81,10.88c-8.48,5.57-23.37,12.78-39.86,9.06c-100.76-22.75-171.13-215.26-41.24-250.87
			c9.38-2.57,20.56-0.4,32.71,2.58c65.85,16.18,73.26,52.62,152.4,0.08c79.16-52.55,101.62,79.59,144.62,93.24
			c43,13.65,84.73,16.47,98.68,73.92C2180.4,1525.29,2105.85,1539.51,2048.62,1528.9z"/>
	</g>
</g>
<g class="st5">
	<g>
		<g>
			<path class="st4" d="M1725.77,1411.52l-0.75-3.76c1.65-0.33,168.77-31.78,443.66,75.63l-1.39,3.57
				C1893.44,1379.96,1727.42,1411.19,1725.77,1411.52z"/>
		</g>
	</g>
	<g>
		<g>
			<path class="st4" d="M1939.07,1377.14c-22.41-47.34-18.01-75.64-17.81-76.82l3.78,0.63c-0.05,0.28-4.34,28.43,17.5,74.55
				L1939.07,1377.14z"/>
		</g>
	</g>
	<g>
		<g>
			<path class="st4" d="M1929.37,1417.86c-2.66-22,9-47.24,33.72-72.97c18.51-19.27,38.07-32.28,38.27-32.4l2.11,3.19
				c-0.76,0.51-76.41,51.13-70.29,101.72L1929.37,1417.86z"/>
		</g>
	</g>
	<g>
		<g>
			<path class="st4" d="M2003.58,1441.66c-2.78-5.36-4.12-8.65-4.18-8.81l3.56-1.41c0.28,0.7,28.54,69.97,101.32,97.84l-1.37,3.57
				C2044.27,1510.4,2013.94,1461.64,2003.58,1441.66z"/>
		</g>
	</g>
	<g>
		<g>
			<path class="st4" d="M2004.76,1538.13c-8.76-25.16-5.8-45.41-1.77-57.97c4.38-13.67,10.8-21.29,11.07-21.61l2.91,2.49
				c-0.25,0.29-24.63,29.76-8.6,75.83L2004.76,1538.13z"/>
		</g>
	</g>
</g>
<g>
	<path class="st2" d="M2029.94,968.19c14.24-9.33,22.05-6.64,26.46,0.11c4.41,6.74,3.75,14.98-10.48,24.31
		c-25.93,16.99-46.46,13-46.46,13S2003.63,985.43,2029.94,968.19z"/>
</g>
<g class="st6">
	<path class="st7" d="M2064.41,1272.55c17.94,1.52,22.8,7.67,22.2,14.7c-0.59,7.03-6.41,12.29-24.35,10.77
		c-32.68-2.76-47.4-16.83-47.4-16.83S2031.26,1269.75,2064.41,1272.55z"/>
</g>
<g class="st6">
	<path class="st7" d="M2040.71,1227.08c14.8-8.24,21.82-5.98,25.04-0.18c3.23,5.8,1.44,12.96-13.36,21.19
		c-26.96,15-45.83,11.75-45.83,11.75S2013.36,1242.3,2040.71,1227.08z"/>
</g>
<g>
	<g>
		<g>
			<path class="st1" d="M627.92,904.35c-10.83,8.35-16.7,7.39-19.97,3.15c-3.27-4.24-2.7-10.17,8.12-18.52
				c19.72-15.21,35.17-14.87,35.17-14.87S647.93,888.92,627.92,904.35z"/>
		</g>
		<g>
			<path class="st1" d="M638.44,992.32c-7.54,11.4-13.41,12.4-17.88,9.44c-4.47-2.96-5.84-8.74,1.7-20.15
				c13.74-20.77,28.47-25.46,28.47-25.46S652.39,971.24,638.44,992.32z"/>
		</g>
		<g>
			<g>
				<g>
					<path class="st1" d="M661.96,1221.74l-2.59,0.1c-0.02-0.4-1.81-40.51-22.5-96.99c-19.1-52.11-58.65-129.2-138.64-200.55
						l1.72-1.93c80.43,71.74,120.19,149.29,139.38,201.7C660.15,1180.9,661.94,1221.34,661.96,1221.74z"/>
				</g>
			</g>
			<g>
				<g>
					<path class="st1" d="M581.54,1014.91l-2.34-1.11c40.34-84.87-2-176.36-2.43-177.27l2.34-1.11
						C579.54,836.35,622.41,928.91,581.54,1014.91z"/>
				</g>
			</g>
			<g>
				<g>
					<path class="st1" d="M537.63,978.16c-26.07,3.3-47.42-7.26-47.66-7.38l1.16-2.31c0.27,0.14,27.63,13.63,57.81,4.69l0.73,2.48
						C545.59,976.85,541.55,977.66,537.63,978.16z"/>
				</g>
			</g>
			<g>
				<g>
					<path class="st1" d="M494.71,910.2c15.13,10.53,17.15,17.23,14.08,21.63c-3.06,4.4-10.04,4.83-25.17-5.7
						c-27.56-19.18-35.33-36.42-35.33-36.42S466.75,890.74,494.71,910.2z"/>
				</g>
			</g>
			<g>
				<g>
					<path class="st1" d="M495.8,961.61c17.6,5.48,21.54,11.26,19.95,16.37c-1.59,5.12-8.12,7.64-25.72,2.16
						c-32.06-9.98-44.67-24.07-44.67-24.07S463.27,951.48,495.8,961.61z"/>
				</g>
			</g>
			<g>
				<g>
					<path class="st1" d="M558.7,933.94c4.76,12.81,2.11,18.14-2.91,20.01c-5.02,1.87-10.51-0.43-15.27-13.24
						c-8.67-23.34-3.78-38.01-3.78-38.01S549.9,910.26,558.7,933.94z"/>
				</g>
			</g>
			<g>
				<g>
					<path class="st1" d="M583.2,824.34c6.51,17.25,4.38,23.91-0.63,25.81c-5.01,1.89-11.01-1.7-17.52-18.95
						c-11.86-31.42-8.52-50.03-8.52-50.03S571.17,792.46,583.2,824.34z"/>
				</g>
			</g>
		</g>
	</g>
</g>
<g>
	<path class="st2" d="M745.56,1289.65c0,0-235.2-362.42-331.1-294.91s211.39,207.94,276.52,315.61L745.56,1289.65z"/>
</g>
<g>
	<g>
		<path class="st1" d="M736.2,1357.6c0,0-364.86-351.24-478.79-240.65s308.87,176.81,411.08,282.7L736.2,1357.6z"/>
	</g>
	<g>
		<g>
			<path class="st1" d="M698.53,1381.46c-69.26-74.41-169.5-130.81-241.4-165.02c-77.94-37.09-140.25-56.79-140.87-56.99l1.22-3.88
				c0.62,0.2,63.2,19.99,141.4,57.2c72.21,34.36,172.93,91.04,242.62,165.92L698.53,1381.46z"/>
		</g>
	</g>
</g>
<g>
	<g>
		<path class="st3" d="M728.71,1563.92c-36.11,25.59-112.86,19.25-158.64-14.4c-38.59-28.37-27.58-29.22-102.5-15.79
			c-53.74,9.61-60.12-37.74-82.98-71.99c-0.41-0.63-0.84-1.25-1.26-1.86c-8.82-12.68-20.14-23.33-37.33-28.24
			c-18.24-5.2-36.88-13.17-53.21-23.13c-1.36-0.82-2.7-1.66-4.02-2.52c-32.37-20.88-54.2-49.65-42.5-79.47
			c0.27-0.71,0.57-1.41,0.88-2.11c2.2-4.93,5.32-9.9,9.48-14.85c43.34-51.58,87.37-33.33,138.18-25.48
			c28.09,4.34,68.1-31.48,107.44-48.54c0.56-0.25,1.13-0.48,1.69-0.72c31.23-13.11,61.91-13.85,85.72,27.31
			c0,0.01,0.01,0.01,0.01,0.01c0.48,0.84,0.97,1.66,1.44,2.48c53.2,90.66,79.43,57.95,154.18,74.64c13.9,3.11,26.42,6.56,34.7,13.94
			C857.13,1421.99,805.55,1517.42,728.71,1563.92z"/>
	</g>
</g>
<g>
	<g>
		<g>
			<path class="st4" d="M735.02,1475.33l2.66-3.46c-1.52-1.18-156.21-117.94-491.24-147.54l-0.38,4.35
				C579.83,1358.17,733.5,1474.16,735.02,1475.33z"/>
		</g>
	</g>
	<g>
		<g>
			<path class="st4" d="M534.67,1332.17c46.84-36.98,56.69-68.11,57.08-69.41l-4.17-1.27c-0.09,0.31-9.96,31.22-55.61,67.25
				L534.67,1332.17z"/>
		</g>
	</g>
	<g>
		<g>
			<path class="st4" d="M523.95,1378.67c13.86-21.12,14.73-52.79,2.53-91.58c-9.14-29.05-22.53-52.24-22.66-52.47l-3.77,2.19
				c0.52,0.9,52.12,90.91,20.25,139.46L523.95,1378.67z"/>
		</g>
	</g>
	<g>
		<g>
			<path class="st4" d="M436.13,1365.37c5.55-4.07,8.59-6.75,8.72-6.87l-2.92-3.25c-0.63,0.57-64.57,56.97-152.98,48.56l-0.41,4.34
				C359.79,1414.93,415.44,1380.53,436.13,1365.37z"/>
		</g>
	</g>
	<g>
		<g>
			<path class="st4" d="M386.08,1463.27c21.68-21.25,28.91-43.43,31.16-58.28c2.45-16.17-0.25-27.2-0.36-27.67l-4.23,1.06
				c0.11,0.42,10.08,42.86-29.62,81.77L386.08,1463.27z"/>
		</g>
	</g>
</g>
<g>
	<path class="st2" d="M322.08,1055.12c-12.25-5.87-13.39-12.84-10.31-19.28c3.08-6.44,9.23-9.92,21.48-4.05
		c22.31,10.69,27.51,27.52,27.51,27.52S344.72,1065.97,322.08,1055.12z"/>
</g>
<g>
	<path class="st8" d="M959.38,1209.22c-1.9,0-3.82-0.06-5.74-0.18c-27.94-1.74-52.15-9.57-70.01-22.65
		c-20.09-14.71-31.2-35-33.02-60.31c-0.59-8.24-0.14-16.51,1.34-24.56c0.79-4.3-0.46-8.62-3.44-11.85c-3-3.25-7.25-4.86-11.65-4.41
		l-80.74,8.25c-10.4,1.06-20.53-2.05-28.53-8.77c-8-6.72-12.82-16.16-13.57-26.58L688.6,704.41c-1.31-18.26,12.48-34.19,30.74-35.5
		l377.19-27.11c15.32-1.1,28.68,10.47,29.78,25.78l5.42,75.36c0.37,5.08-1.9,9.86-6.07,12.77c-4.22,2.95-9.56,3.45-14.28,1.33
		c-14.28-6.41-30.13-9.2-45.83-8.07l-0.05-0.75l0.05,0.75c-27.39,1.97-50.58,10.96-67.05,25.99c-18.1,16.52-27.73,39.5-28.63,68.29
		c-0.68,21.95,9.94,45.23,29.16,63.88c22.18,21.53,52.51,33.89,79.16,32.25c18.06-1.11,35.32-7.25,49.91-17.77
		c3.22-2.32,7.28-2.7,10.87-1.03c3.58,1.67,5.88,5.02,6.16,8.96l6.04,84.02c1.58,22.02-14.38,41.02-36.34,43.27l-69.22,7.08
		c-3.78,0.39-7.04,2.49-8.96,5.78c-1.88,3.24-2.11,7.04-0.61,10.45c4.45,10.13,7.11,20.91,7.91,32.04
		c2,27.85-7.35,54.43-25.66,72.92C1002.77,1200.77,982.02,1209.22,959.38,1209.22z M838.32,1083.68c4.29,0,8.34,1.76,11.3,4.97
		c3.3,3.58,4.69,8.37,3.81,13.14c-1.46,7.93-1.91,16.06-1.32,24.18c1.79,24.85,12.69,44.77,32.41,59.21
		c17.63,12.91,41.56,20.64,69.22,22.36c24.43,1.52,46.98-6.82,63.49-23.5c18-18.18,27.2-44.33,25.23-71.75
		c-0.79-10.96-3.41-21.57-7.79-31.54c-1.69-3.85-1.44-8.16,0.69-11.81c2.16-3.71,5.84-6.08,10.1-6.52l69.22-7.07
		c21.15-2.16,36.52-20.46,34.99-41.66l-6.04-84.02c-0.24-3.39-2.22-6.27-5.3-7.71c-3.09-1.44-6.58-1.11-9.35,0.88
		c-14.82,10.68-32.35,16.92-50.7,18.05c-27.06,1.66-57.83-10.86-80.3-32.68c-19.81-19.22-30.33-42.31-29.62-65.01
		c0.91-29.21,10.71-52.54,29.12-69.35c16.72-15.27,40.22-24.39,67.95-26.38c15.95-1.15,32.05,1.69,46.55,8.2
		c4.24,1.9,9.02,1.46,12.81-1.19c3.73-2.61,5.76-6.88,5.43-11.43l-5.42-75.36c-0.5-7.02-3.71-13.42-9.03-18.03
		c-5.32-4.61-12.12-6.87-19.14-6.36l-377.19,27.11c-17.44,1.25-30.6,16.46-29.35,33.89l25.42,353.74
		c0.72,10.01,5.35,19.08,13.04,25.54c7.69,6.46,17.42,9.45,27.41,8.43l80.74-8.25C837.25,1083.71,837.78,1083.68,838.32,1083.68z"/>
</g>
<g>
	<g>
		<path class="st9" d="M1385.66,1604.49c-8.19,0-15.98-2.9-22.14-8.28c-6.66-5.82-10.6-13.84-11.1-22.58l-4.03-70.47
			c-0.32-5.56,2.03-10.75,6.45-14.23c4.56-3.6,10.64-4.73,16.27-3.04c10.12,3.04,20.66,4.28,31.33,3.67
			c47.93-2.74,95.53-27.85,93.81-77.76c-0.94-27.12-12.23-52.02-31.79-70.11c-19.63-18.15-45.43-27.93-70.77-26.81
			c-9.8,0.43-19.37,2.4-28.42,5.85c-6.36,2.42-13.28,1.69-18.98-2c-5.58-3.61-8.99-9.44-9.36-15.98l-3.85-67.2
			c-0.53-9.21,2.63-18.07,8.9-24.96c6.26-6.89,14.88-10.97,24.27-11.51l93.5-5.35c1.75-0.1,3.31-0.97,4.3-2.38
			c0.95-1.36,1.21-3.04,0.73-4.61c-2.04-6.68-3.29-13.62-3.69-20.65c-1.35-23.61,6.73-46.38,22.75-64.1
			c16.48-18.23,39.22-28.86,64.03-29.95c49.18-2.15,91.49,35.31,94.36,83.48c0.27,4.47,0.19,8.98-0.22,13.41l-0.74-0.07l0.74,0.07
			c-0.33,3.54,0.92,7.06,3.42,9.66c2.63,2.72,6.32,4.16,10.14,3.94l80.9-4.63c8.84-0.5,17.35,2.39,23.95,8.17
			c6.61,5.78,10.52,13.73,11.02,22.41l19.37,338.5c1.08,18.91-13.73,35.19-33.01,36.3l-370.14,21.18
			C1386.99,1604.48,1386.32,1604.49,1385.66,1604.49z M1365.89,1486.61c-3.64,0-7.22,1.2-10.13,3.49
			c-4.03,3.18-6.18,7.91-5.88,12.98l4.03,70.47c0.48,8.34,4.24,15.99,10.59,21.54c6.36,5.56,14.55,8.35,23.07,7.86l370.14-21.18
			c18.46-1.06,32.64-16.63,31.61-34.72l-19.37-338.5c-0.47-8.27-4.21-15.87-10.51-21.38c-6.31-5.51-14.44-8.29-22.89-7.8l-80.9,4.63
			c-4.25,0.25-8.37-1.36-11.3-4.39c-2.81-2.91-4.2-6.86-3.83-10.83c0.41-4.35,0.48-8.79,0.22-13.18
			c-2.82-47.37-44.43-84.18-92.81-82.08c-24.41,1.06-46.78,11.53-62.99,29.46c-15.75,17.42-23.69,39.8-22.36,63.01
			c0.4,6.91,1.61,13.74,3.63,20.3c0.62,2.01,0.28,4.16-0.93,5.9c-1.25,1.79-3.23,2.89-5.44,3.02l-93.5,5.35
			c-8.99,0.52-17.25,4.43-23.25,11.03c-6,6.59-9.02,15.07-8.52,23.87l3.85,67.2c0.35,6.07,3.51,11.47,8.69,14.82
			c5.3,3.43,11.73,4.11,17.64,1.86c9.21-3.51,18.93-5.51,28.89-5.95c25.73-1.14,51.92,8.79,71.84,27.21
			c19.86,18.36,31.32,43.63,32.27,71.15c0.8,23.13-8.94,42.94-28.16,57.27c-17.02,12.7-40.84,20.52-67.05,22.02
			c-10.84,0.63-21.56-0.63-31.85-3.73C1369.1,1486.84,1367.49,1486.61,1365.89,1486.61z"/>
	</g>
	<g>
		<path class="st9" d="M1659.05,1177.37c0.4-4.44,0.48-8.97,0.21-13.56c-2.9-48.8-44.85-86.67-93.68-84.55
			c-50.24,2.18-88.83,45-85.96,95.03c0.41,7.24,1.68,14.24,3.68,20.89c1.18,3.91-1.62,7.88-5.69,8.11l-93.5,5.35
			c-19,1.09-33.52,17.37-32.43,36.37l3.92,68.56c0.78,13.64,14.62,22.65,27.36,17.71c8.92-3.46,18.55-5.54,28.65-5.98
			c48.45-2.11,101.26,37.03,103.46,99.73c1.76,50.23-44.41,77.13-94.43,80c-11,0.63-21.65-0.75-31.6-3.81
			c-11.19-3.44-22.41,5.14-21.74,16.83l4.11,71.89c1.03,18.01,16.47,31.78,34.48,30.75l370.14-21.18
			c18.9-1.08,33.35-17.28,32.27-36.19l-19.76-345.34c-1.02-17.88-16.35-31.54-34.22-30.52l-80.9,4.63
			C1665.15,1192.56,1658.3,1185.61,1659.05,1177.37z"/>
	</g>
</g>
<g>
	<path class="st9" d="M1046.86,729.6c16.41-1.18,32.15,1.83,46.19,8.13c9.46,4.24,20.04-3.01,19.29-13.36l-5.42-75.36
		c-1.07-14.93-14.04-26.16-28.97-25.09l-377.19,27.11c-17.88,1.28-31.33,16.82-30.04,34.7l25.42,353.74
		c1.52,21.13,20.2,36.82,41.27,34.66l80.74-8.25c9.68-0.99,17.67,7.57,15.9,17.14c-1.45,7.86-1.93,16.03-1.33,24.37
		c3.81,52.98,49.32,78.97,102.33,82.27c55.58,3.46,93.32-43.08,89.52-96.05c-0.81-11.29-3.54-21.98-7.85-31.79
		c-3.38-7.69,1.83-16.42,10.18-17.28l69.22-7.08c21.41-2.19,37.21-21,35.67-42.46l-6.04-84.02c-0.56-7.82-9.48-11.97-15.84-7.38
		c-14.24,10.26-31.47,16.75-50.31,17.91c-51.87,3.17-110.74-44.97-109.12-96.91C952.38,763.93,993.46,733.44,1046.86,729.6z"/>
</g>
<g>
	<g>
		<path class="st4" d="M848.54,791.79c-0.12,0-0.23-0.03-0.34-0.08l-59.64-30.51c-0.18-0.09-0.31-0.25-0.37-0.44
			c-0.06-0.19-0.04-0.4,0.05-0.58c0.06-0.11,5.66-11.07,7.04-27.26c1.27-14.92-0.88-37.47-18.36-60.19
			c-27.82-33.62-33.2-71.29-15.12-106.06c15.14-29.11,44.29-52.84,79.99-65.1c37.72-12.96,76.27-11,108.54,5.51
			c38.32,19.6,67.54,53.75,78.15,91.34c7.96,28.19,4.66,56.33-9.3,79.21c-25.28,41.46-54.49,63.22-89.29,66.52
			c-6.08,0.66-60.07,7.64-80.67,47.24C849.07,791.64,848.81,791.79,848.54,791.79z M789.89,760.2l58.33,29.84
			c21.21-39.71,75.37-46.71,81.5-47.38c34.31-3.26,63.14-24.78,88.16-65.81c13.74-22.53,16.98-50.23,9.14-78.02
			c-10.5-37.19-39.43-70.99-77.39-90.41c-31.91-16.32-70.04-18.25-107.37-5.42c-34.81,11.96-64.4,36.02-79.14,64.38
			c-17.78,34.2-12.47,71.28,14.96,104.43c17.82,23.15,19.99,46.12,18.68,61.32C795.54,747.29,791.14,757.53,789.89,760.2z"/>
	</g>
	<g class="st10">
		<path class="st4" d="M856.39,549.33c-3.79,0-7.07-1.42-9.43-4.24c-4.57-5.44-4.08-14.11,1.2-21.09
			c5.25-6.95,14.79-11.9,25.5-13.25c8.26-1.04,15.78,0.4,20.12,3.84c11.61,9.24,16.83,16.2,15.96,21.28
			c-0.46,2.69-2.64,4.72-6.47,6.04c-0.13,0.04-0.26,0.05-0.39,0.03c-0.2-0.04-19.98-3.92-36.98,4.82
			C862.55,548.48,859.32,549.33,856.39,549.33z M878.88,511.92c-1.63,0-3.31,0.11-5.04,0.32c-10.32,1.3-19.48,6.04-24.49,12.67
			c-4.85,6.42-5.37,14.32-1.25,19.21c3.71,4.41,10.1,4.89,17.1,1.3c16.52-8.49,35.55-5.39,37.75-4.99c3.16-1.13,4.94-2.74,5.3-4.81
			c0.52-3.04-1.73-8.95-15.41-19.85C889.7,513.27,884.68,511.92,878.88,511.92z"/>
	</g>
</g>
<g>
	<path class="st11" d="M932.9,498.27c-68.35-34.97-157.03,0.64-187.52,59.27c-19.17,36.85-10.79,74.03,15.05,105.25
		c34.17,44.41,11.39,88.25,11.39,88.25l59.64,30.51c20.71-39.83,74.47-46.9,81.27-47.64c32.26-3.06,61.95-22.27,88.72-66.16
		C1035.87,611.3,1001.25,533.23,932.9,498.27z"/>
</g>
<g>
	<path class="st12" d="M841.3,767.33c0,0,17.37,12.4,1.94,31.03c0,0,5.92,20.99-12.8,26.33c0,0,3.03,20.34-14.83,29.43
		c-17.86,9.1-91.39-36.8-93.35-47.76c-1.97-10.95,5.83-18.57,13.44-17.43c0,0-5.43-11.81,1.59-19.45
		c7.02-7.64,12.69-6.95,12.69-6.95s-4.88-7.47,0.6-19.58C756.07,730.83,777.31,722.52,841.3,767.33z"/>
</g>
<g class="st10">
	<path class="st4" d="M885.93,531.73c0,0-20.03-4.08-37.47,4.89c-17.44,8.96-26.92-8.24-16.79-21.63
		c10.13-13.39,34.83-17.01,44.55-9.27C885.94,513.44,900.26,526.79,885.93,531.73z"/>
</g>
<g>
	<g>
		<path class="st13" d="M829.95,826.07c-0.21-0.08-0.41-0.2-0.58-0.38c-0.06-0.06-5.79-6.11-15.77-12.76
			c-9.19-6.12-23.97-14.02-42.22-16.89c-0.8-0.13-1.35-0.88-1.22-1.68c0.13-0.8,0.88-1.35,1.68-1.22
			c18.81,2.97,34.02,11.1,43.47,17.4c10.24,6.83,15.97,12.89,16.21,13.14c0.55,0.59,0.52,1.52-0.07,2.07
			C831.03,826.14,830.45,826.25,829.95,826.07z"/>
	</g>
</g>
<g>
	<g>
		<path class="st13" d="M842.75,799.74c-0.17-0.06-0.33-0.15-0.47-0.28c-0.08-0.07-8.43-7.28-20.29-14.8
			c-10.89-6.9-27.05-15.5-42.23-17.24c-0.8-0.09-1.38-0.82-1.29-1.62c0.09-0.8,0.82-1.38,1.62-1.29
			c15.74,1.81,32.35,10.63,43.5,17.7c12.04,7.64,20.52,14.96,20.6,15.04c0.61,0.53,0.68,1.46,0.15,2.07
			C843.94,799.79,843.3,799.94,842.75,799.74z"/>
	</g>
</g>
<g class="st10">
	<path class="st4" d="M825.08,755.6l-5.46-1.59c0.06-0.22,6.52-22.37,14.72-44.98c3.17-8.73,6.01-15.96,8.57-21.95
		c-3.75-1.28-7.49-2.9-11.05-4.88c-12.42,28.68-30.5,58.78-31.67,60.71l-4.87-2.94c0.29-0.47,19.17-31.92,31.66-60.81
		c-5.32-3.71-9.98-8.38-13.31-14.15c-5.89-10.19-5.04-21.58,2.27-30.45c5.53-6.72,13.26-9.87,19.23-7.82
		c2.97,1.02,8,4.26,8.29,14.55c0.25,8.87-3.74,21.89-9.39,35.67c3.55,2.04,7.34,3.66,11.13,4.92c8.32-18.33,13.3-22.57,16.57-23.92
		c10.22-4.22,20.77,0.5,25.91,7.34c4.49,5.98,4.59,13.07,0.25,18.51c-4.26,5.35-14.34,7.98-26.97,7.03
		c-3.9-0.29-8.18-0.98-12.56-2.1c-2.56,5.94-5.45,13.26-8.72,22.25C831.55,733.41,825.14,755.38,825.08,755.6z M850.74,683.45
		c3.71,0.89,7.33,1.45,10.65,1.7c10.26,0.77,19.14-1.2,22.09-4.9c3.87-4.85,1.04-9.68-0.35-11.54c-3.73-4.97-11.73-8.58-19.19-5.5
		C862.21,663.92,858.1,667.45,850.74,683.45z M831.33,631.8c-3.44,0-7.76,2.42-11,6.37c-2.15,2.61-8.63,12.06-1.74,23.99
		c2.68,4.65,6.39,8.5,10.63,11.64c5.18-12.7,8.77-24.48,8.54-32.36c-0.08-2.94-0.77-8.07-4.45-9.33
		C832.7,631.9,832.03,631.8,831.33,631.8z"/>
</g>
<g>
	<g>
		<g>
			<path class="st8" d="M1848.91,1595.82c-1.26,0-2.39-0.9-2.64-2.18l-99.29-515.6c-0.28-1.46,0.67-2.87,2.13-3.15
				c1.46-0.28,2.87,0.67,3.15,2.13l99.29,515.6c0.28,1.46-0.67,2.87-2.13,3.15C1849.25,1595.8,1849.08,1595.82,1848.91,1595.82z"/>
		</g>
		<g>
			<path class="st8" d="M2034.89,1551.21c-1.22,0-2.32-0.83-2.61-2.06l-112.82-470.99c-0.35-1.45,0.55-2.9,1.99-3.24
				c1.44-0.35,2.9,0.54,3.24,1.99l112.82,470.99c0.35,1.44-0.55,2.9-1.99,3.24C2035.31,1551.19,2035.1,1551.21,2034.89,1551.21z"/>
		</g>
		<g>
			<rect x="1761.7" y="1137.11" class="st8" width="176.04" height="6.22"/>
		</g>
		<g>
			
				<rect x="1881.03" y="1207.39" transform="matrix(0.0656 -0.9978 0.9978 0.0656 462.8933 3095.0869)" class="st8" width="6.22" height="185.95"/>
		</g>
		<g>
			
				<rect x="1819.99" y="1433.85" transform="matrix(0.9968 -0.0803 0.0803 0.9968 -109.2353 158.4062)" class="st8" width="188.64" height="6.22"/>
		</g>
	</g>
	<g>
		<g>
			<path class="st13" d="M1803.34,1112.83c0,0-0.26,10.26-7.2,13.15c-6.94,2.89-27.05,5.5-19.53,12.1
				c4.31,3.78,24.63,1.34,30.37,1.34c5.74,0,11.12,2.5,15.39-1.34c4.69-4.22,0-25.25,0-25.25s-4.95,2.58-9.4,2.46
				C1806.54,1115.13,1803.34,1112.83,1803.34,1112.83z"/>
		</g>
		<g>
			<path class="st13" d="M1883.04,1112.83c0,0-0.26,10.26-7.2,13.15s-27.05,5.5-19.53,12.1c4.31,3.78,24.63,1.34,30.37,1.34
				c5.74,0,11.12,2.5,15.39-1.34c4.69-4.22,0-25.25,0-25.25s-4.95,2.58-9.4,2.46C1886.25,1115.13,1883.04,1112.83,1883.04,1112.83z"
				/>
		</g>
		<g>
			<path class="st14" d="M1751.76,831.67c0,0-1.28,42.93,12.42,125.29c9.89,59.46,21.57,119.37,27.3,148.09
				c2.05,10.27,10.69,17.79,20.93,18.2l5.5,0.22c11.07,0.44,20.06-9.07,19.25-20.38l-13.9-194.33l-3.43-63.96L1751.76,831.67z"/>
		</g>
		<g>
			<path class="st13" d="M1877.11,869.45c-0.63,5.23-30.18,4.59-66.35,0.01c-36.18-4.58-64.33-12.42-63.7-17.64
				c0.63-5.23,29.81-5.86,65.99-1.28C1849.22,855.12,1877.74,864.22,1877.11,869.45z"/>
		</g>
		<g>
			<path class="st14" d="M1793.29,862.33l77.23,248.1c3.23,10.39,12.58,17.5,23.23,17.68l4.64,0.08
				c10.96,0.19,19.34-9.95,17.34-20.98l-42.25-233.12c-0.61-2.77-2.66-4.97-5.33-5.74C1853.68,864.17,1791.87,852.07,1793.29,862.33
				z"/>
		</g>
		<g>
			<path class="st15" d="M1865.03,726.61c0,0-10.28-28.91-46.88-27.6c-36.61,1.32-64.25,49.42-71.1,152.81
				c0,0,59.94-13.14,130.16,17.52C1877.21,869.34,1881.11,768.75,1865.03,726.61z"/>
		</g>
		<g>
			<path class="st15" d="M1893.77,720.5l-28.97,20.97c0,0-79.6,8.69-97.29,5.48c-17.7-3.21-11.58-41.9-11.58-41.9
				s20.82,0.88,52.85-4.85c3.01-0.54,6.13-0.94,9.37-1.17c5.43-0.39,10.87-0.22,16.19,0.35
				C1865.99,702.78,1893.77,720.5,1893.77,720.5z"/>
		</g>
		<g>
			<path class="st13" d="M1893.77,720.5c1.57,2.27-3.64,8.81-11.64,14.6c-8,5.79-15.76,8.64-17.33,6.37
				c-1.57-2.27,3.64-8.81,11.64-14.6C1884.44,721.08,1892.2,718.22,1893.77,720.5z"/>
		</g>
		<g>
			<path class="st0" d="M1834.27,699.36c-3.92-0.42-7.32-2.88-8.87-6.49l-4.88-11.33l-1.42-3.29l-8.33-19.34l1.44,20.04l0.87,12.03
				l0.25,3.43c0.2,2.8-1.75,5.27-4.51,5.77l-0.05,0.01c-1.48,2.41-3.53,7.31,2.59,9.25c7.18,2.29,18.81-3.37,22.98-10.07
				C1834.32,699.37,1834.29,699.36,1834.27,699.36z"/>
		</g>
		<g>
			<path class="st0" d="M1878.64,822.61c0,0-10.85-9.93-19.41-9.05c-8.56,0.88-18.84,8.47-13.42,9.05
				c5.42,0.58,12.56-0.58,12.56-0.58s-15.13,3.21-12.84,6.43c2.28,3.21,15.41,0.29,15.41,0.29s-17.7,5.26-14.56,7.59
				c3.14,2.34,16.56-1.75,16.56-1.75s-16.27,5.55-12.56,8.18c3.71,2.63,13.42-4.67,15.7-1.46c2.28,3.21,6.57,15.77,16.27,10.51
				L1878.64,822.61z"/>
		</g>
		<g>
			<path class="st16" d="M1827.81,973.22l-16.61-50.49c-3.73-11.35-11.42-20.83-21.63-26.68l0.65-1.13
				c10.49,6.01,18.38,15.74,22.22,27.4l16.61,50.49L1827.81,973.22z"/>
		</g>
		<g>
			<path class="st13" d="M1833.43,655.61c0,0-0.78,3.29,1.12,10.03c2.77,9.86-8.5,13.98-11.39,11.16
				c-0.36-0.35,0.12-17.12,0.12-17.12l3.6-2.14L1833.43,655.61z"/>
		</g>
		<g>
			<path class="st13" d="M1820.54,681.21c0,0.11-0.01,0.22-0.02,0.33c-0.48,6.46-7.39,9.48-7.39,9.48l-0.04-0.04l-0.87-12.03
				c2.11-0.77,5.12-1.57,6.88-0.7C1820.03,678.7,1820.6,679.61,1820.54,681.21z"/>
		</g>
		<g>
			<ellipse class="st0" cx="1809.87" cy="662.11" rx="18.83" ry="23.23"/>
		</g>
		<g>
			<path class="st13" d="M1802.41,644.28c0.52,0.71-2.44,12.66,19.7,15.52c22.14,2.85,8.84-24.01-7.5-24.61
				c-23.59-0.88-27.02,14.98-24.75,20.69C1792.12,661.59,1802.41,644.28,1802.41,644.28z"/>
		</g>
		<g>
			<path class="st13" d="M1836.53,629.59c0,0-9.94,6.65-2.29,12.92c7.65,6.26,28.69,9,22.95,19.57
				c-5.74,10.57-10.71,26.22-0.38,28.18c10.33,1.96,16.83,1.17,21.04,9.39c4.21,8.22,22.95,3.13,21.42-6.65
				c-1.53-9.78,14.53-18.39,7.65-27.4c-6.89-9-23.72-16.83-27.92-28.57C1874.78,625.29,1844.57,624.5,1836.53,629.59z"/>
		</g>
		<g>
			<path class="st13" d="M1819.67,656c0,0,9.05,9.54,5.91,19.29c0,0,5.25-5.73,5.36-7.87c0.12-2.14-1.28-9.87-1.28-9.87L1819.67,656
				z"/>
		</g>
		<g>
			<path class="st0" d="M1826.18,665.62c-2.13,2.04-5.12,2.25-6.66,0.47c-1.55-1.78-1.07-4.87,1.06-6.91
				c2.13-2.04,5.12-2.25,6.66-0.47C1828.79,660.49,1828.31,663.58,1826.18,665.62z"/>
		</g>
		<g>
			<path class="st4" d="M1894.68,702.83c-0.05,0-0.11-0.01-0.16-0.03c-2.67-1.03-4.25-2.33-4.84-3.97c-0.9-2.5,0.64-5.25,2.27-8.15
				c1.43-2.54,2.9-5.17,2.55-7.53c-0.42-2.79-4.08-3.44-7.95-4.13c-3.27-0.58-6.64-1.18-7.98-3.27c-0.64-0.99-0.76-2.25-0.38-3.74
				c0.43-1.65,0.95-3.12,1.46-4.55c2.18-6.13,3.9-10.98-5.72-22.07c-12.33-14.23-22.55-14.91-31.74-13.53
				c-1.07,0.16-3.8,1.57-3.79,2.81c0.01,0.64,0.89,2.25,8.86,3.25c0.15,0.03,11.34,2.64,16.73,14.71
				c2.87,6.43-1.21,13.31-4.48,18.84c-2.2,3.71-4.1,6.91-3.5,9.06c0.21,0.78,0.76,1.4,1.67,1.89c2.23,1.21,4.74,1.89,7.16,2.55
				c6.23,1.68,12.67,3.43,13.48,14.64c0.02,0.25-0.17,0.46-0.41,0.48c-0.25,0.03-0.46-0.17-0.48-0.42
				c-0.76-10.58-6.62-12.17-12.82-13.84c-2.47-0.67-5.02-1.36-7.35-2.62c-1.12-0.61-1.83-1.43-2.11-2.44
				c-0.69-2.52,1.29-5.87,3.6-9.76c3.34-5.63,7.12-12.01,4.43-18.02c-5.19-11.64-15.95-14.17-16.06-14.19
				c-6.43-0.81-9.59-2.16-9.61-4.12c-0.02-1.98,3.37-3.54,4.55-3.71c9.45-1.42,19.94-0.72,32.55,13.83
				c9.96,11.49,8.16,16.55,5.89,22.96c-0.5,1.41-1.02,2.87-1.43,4.47c-0.33,1.26-0.24,2.25,0.26,3.03c1.13,1.76,4.31,2.32,7.38,2.87
				c4.02,0.71,8.17,1.45,8.68,4.88c0.4,2.66-1.15,5.43-2.65,8.11c-1.53,2.72-2.97,5.29-2.21,7.41c0.5,1.38,1.91,2.51,4.32,3.44
				c0.23,0.09,0.35,0.35,0.26,0.58C1895.02,702.72,1894.86,702.83,1894.68,702.83z"/>
		</g>
		<g>
			<path class="st4" d="M1822.28,652.76C1822.28,652.76,1822.28,652.76,1822.28,652.76c-8.52-0.18-12.76-6.88-12.93-7.17
				c-0.13-0.21-0.06-0.49,0.15-0.62c0.21-0.13,0.49-0.06,0.62,0.15c0.04,0.07,4.17,6.57,12.18,6.74c0.25,0.01,0.44,0.21,0.44,0.46
				C1822.73,652.56,1822.53,652.76,1822.28,652.76z"/>
		</g>
		<g>
			<path class="st17" d="M1858.48,822.32l-0.22-0.6c0.18-0.07,4.35-1.6,6.66,0.04l-0.37,0.52
				C1862.52,820.84,1858.52,822.31,1858.48,822.32z"/>
		</g>
		<g>
			<path class="st17" d="M1861.06,829.04l-0.23-0.59c0.17-0.07,4.19-1.62,7.85,0.01l-0.26,0.58
				C1864.99,827.51,1861.1,829.02,1861.06,829.04z"/>
		</g>
		<g>
			<path class="st17" d="M1863.05,834.88l-0.22-0.59c0.21-0.08,5.14-1.9,7.45,0.05l-0.41,0.49
				C1867.84,833.11,1863.1,834.86,1863.05,834.88z"/>
		</g>
		<g>
			<path class="st14" d="M1752.41,856.5c0,0,16.81-2.34,42.06-0.47c39.1,2.89,72.32,11.94,72.32,11.94l-12.41,2.09l-77.73,3.08
				L1761,860.3L1752.41,856.5z"/>
		</g>
		<g>
			<path class="st18" d="M1799.47,677.15c0,0,6.43,0.15,12.86-2.11c0,0,0.53,6.34-6.43,6.76
				C1801.85,682.05,1799.47,677.15,1799.47,677.15z"/>
		</g>
		<g>
			<path class="st4" d="M1799.47,677.15c0,0,1.56,1.29,5.19,1.28c3.63-0.02,7.68-3.39,7.68-3.39S1804.58,677.17,1799.47,677.15z"/>
		</g>
		<g>
			<g>
				<path class="st19" d="M1808.05,662.34c-0.13-0.03-0.23-0.12-0.29-0.25c-0.09-0.22,0.02-0.47,0.24-0.56
					c0.13-0.05,3.01-1.53,5.54,1.24c0.16,0.17,0.16,0.44-0.02,0.61c-0.17,0.16-0.41,0.12-0.61-0.02c-1.97-1.32-4.5-1.07-4.6-1.03
					C1808.23,662.36,1808.13,662.36,1808.05,662.34z"/>
			</g>
		</g>
		<g>
			<path class="st19" d="M1811.44,667.05c0.03,1.02-0.54,1.87-1.28,1.89c-0.74,0.02-1.37-0.79-1.4-1.81
				c-0.03-1.02,0.54-1.87,1.28-1.89C1810.78,665.22,1811.4,666.02,1811.44,667.05z"/>
		</g>
		<g>
			<g>
				<path class="st19" d="M1792.76,664.57c-0.13,0.02-0.26-0.03-0.36-0.13c-0.16-0.17-0.16-0.44,0.01-0.6c0.1-0.1,2.2-2.57,5.6-0.97
					c0.21,0.1,0.31,0.35,0.22,0.57c-0.1,0.22-0.33,0.26-0.57,0.22c-2.32-0.47-4.57,0.72-4.65,0.8
					C1792.93,664.52,1792.85,664.56,1792.76,664.57z"/>
			</g>
		</g>
		<g>
			<path class="st19" d="M1797.69,667.63c0.42,0.93,0.21,1.93-0.47,2.24c-0.68,0.3-1.56-0.2-1.98-1.14
				c-0.42-0.93-0.21-1.93,0.47-2.24C1796.38,666.19,1797.27,666.7,1797.69,667.63z"/>
		</g>
		<g>
			<path class="st13" d="M1767.51,747.39c-0.07,0-0.13-0.01-0.2-0.05c-0.22-0.11-0.31-0.38-0.21-0.6l10.36-21.22
				c0.11-0.22,0.38-0.31,0.6-0.21c0.22,0.11,0.31,0.38,0.21,0.6l-10.36,21.22C1767.83,747.3,1767.67,747.39,1767.51,747.39z"/>
		</g>
		<g>
			<g>
				<g>
					<path class="st0" d="M1882.03,851.92l-17.52-20.34c0.32-0.2,30.67-18.19,27.38-49.1c-1.5-14.04-10.63-31.31-24.02-40.32
						c4.95-11.63,19.22-21.35,23.09-19.62c17.94,13.21,28.21,32.51,30.91,53.35C1926.75,813.5,1890.75,847.69,1882.03,851.92z"/>
				</g>
			</g>
		</g>
		<g>
			<path class="st17" d="M1913.5,785.86c-1.33,0-2.57-0.74-3.48-2.07c-0.86-1.26-1.33-2.93-1.33-4.69c0-3.73,2.16-6.77,4.81-6.77
				s4.81,3.04,4.81,6.77C1918.31,782.82,1916.15,785.86,1913.5,785.86L1913.5,785.86z M1913.5,773.59c-1.92,0-3.54,2.52-3.54,5.5
				c0,1.51,0.4,2.93,1.11,3.98c0.67,0.98,1.53,1.52,2.43,1.52c0,0,0,0,0,0c1.92,0,3.54-2.52,3.54-5.5
				C1917.04,776.11,1915.42,773.59,1913.5,773.59z"/>
		</g>
	</g>
	<g>
		
			<rect x="1603.35" y="1439.84" transform="matrix(0.51 -0.8602 0.8602 0.51 -392.1898 2197.4255)" class="st8" width="258.58" height="6.22"/>
	</g>
</g>
<g>
	<path class="st11" d="M1283.92,673.94l-0.46,58.22c-0.09,11.58-11.01,20.06-22.23,17.2c-8-2.04-16.41-3.08-25.08-2.97
		c-51.57,0.65-93.78,42.53-94.88,94.08c-1.14,53.71,41.84,97.82,95.39,98.25c11.24,0.09,22.03-1.76,32.09-5.22
		c6.43-2.22,13.11,2.65,13.06,9.45l-0.67,84.5c-0.13,15.87,12.64,28.84,28.51,28.96l104.15,0.82c10.85,0.09,17.51-11.67,12.05-21.05
		c-8.66-14.84-13.45-32.21-13-50.72c1.25-51.67,43.75-93.45,95.43-93.82c53.79-0.38,97.3,43.33,96.88,96.93
		c-0.14,17.34-4.85,33.56-12.99,47.54c-5.81,9.99,1.16,22.52,12.71,22.62l81.25,0.64c17.93,0.14,32.59-14.28,32.73-32.21
		l2.79-352.75c0.12-15.13-12.05-27.49-27.17-27.61l-379.93-3.01C1297.75,643.67,1284.05,657.16,1283.92,673.94z"/>
</g>
<g>
	<g>
		<path class="st0" d="M674.43,1175.21c1.59,0.72,29.1,4.48,40.32,56.45c9.67,44.82-27.23,8.8-27.23,8.8L674.43,1175.21z"/>
	</g>
	<g>
		<path class="st13" d="M648.86,1580.83c0,0,0.26,10.52,7.38,13.49c7.12,2.97,27.75,5.65,20.04,12.41
			c-4.42,3.88-25.27,1.37-31.16,1.37c-5.89,0-11.41,2.56-15.79-1.37c-4.81-4.33,0-25.91,0-25.91s5.08,2.65,9.65,2.53
			C645.57,1583.19,648.86,1580.83,648.86,1580.83z"/>
	</g>
	<g>
		<path class="st13" d="M567.08,1580.83c0,0,0.26,10.52,7.38,13.49c7.12,2.97,27.75,5.65,20.04,12.41
			c-4.42,3.88-25.27,1.37-31.16,1.37c-5.89,0-11.41,2.57-15.79-1.37c-4.81-4.33,0-25.91,0-25.91s5.08,2.65,9.65,2.53
			C563.79,1583.19,567.08,1580.83,567.08,1580.83z"/>
	</g>
	<g>
		<path class="st8" d="M701.79,1292.33c0,0,1.32,44.05-12.74,128.56c-10.15,61.01-22.13,122.49-28.01,151.96
			c-2.1,10.54-10.97,18.25-21.48,18.67l-5.65,0.23c-11.36,0.46-20.58-9.3-19.75-20.91l14.26-199.4l3.52-65.63L701.79,1292.33z"/>
	</g>
	<g>
		<path class="st13" d="M573.17,1331.09c0.65,5.36,30.97,4.71,68.09,0.01c37.12-4.7,66.01-12.74,65.36-18.1
			c-0.65-5.36-30.59-6.01-67.71-1.31C601.79,1316.39,572.52,1325.73,573.17,1331.09z"/>
	</g>
	<g>
		<path class="st8" d="M659.17,1323.79l-79.25,254.57c-3.32,10.66-12.91,17.96-23.84,18.14l-4.76,0.08
			c-11.25,0.19-19.84-10.21-17.79-21.52l43.35-239.2c0.63-2.84,2.73-5.1,5.47-5.9C597.21,1325.68,660.63,1313.26,659.17,1323.79z"/>
	</g>
	<g>
		<path class="st14" d="M585.56,1184.53c0,0,10.54-29.67,48.11-28.32c37.56,1.35,65.92,50.71,72.95,156.79
			c0,0-61.51-13.49-133.56,17.98C573.06,1330.98,569.06,1227.77,585.56,1184.53z"/>
	</g>
	<g>
		<path class="st14" d="M558.43,1184.74l27.37,15.04c0,0,73.52,16.57,91.68,13.27c18.16-3.29,27.7-20.16,27.7-20.16
			s-29.11-29.9-61.98-35.79c-3.09-0.56-6.2-0.65-9.52-0.89c-5.58-0.4-11.15-0.23-16.62,0.36
			C570.71,1161.6,558.43,1184.74,558.43,1184.74z"/>
	</g>
	<g>
		<path class="st16" d="M623.75,1437.57l-1.27-0.42l17.04-51.81c3.94-11.96,12.03-21.95,22.8-28.12l0.66,1.16
			c-10.48,6-18.36,15.73-22.2,27.38L623.75,1437.57z"/>
	</g>
	<g>
		<g>
			<g>
				<path class="st13" d="M659.43,1149.6l-0.1-0.43c0.05-0.01,4.83-1.18,6.19-4.44c0.7-1.69,0.37-3.67-0.99-5.89
					c-0.64-1.04-1.23-1.98-1.77-2.85c-3.73-5.94-5.12-8.17-4.1-13.04l0.43,0.09c-0.98,4.69,0.28,6.71,4.04,12.71
					c0.54,0.86,1.13,1.81,1.77,2.85c1.44,2.34,1.79,4.46,1.03,6.29C664.48,1148.37,659.63,1149.55,659.43,1149.6z"/>
			</g>
		</g>
		<g>
			<path class="st13" d="M658.86,1123.01c0,0-1.66,7.53,3.33,15.42c4.99,7.89-0.44,13.65-7.2,10.61c-6.76-3.03-9.34,5.59-17.98,0.82
				C628.36,1145.1,658.86,1123.01,658.86,1123.01z"/>
		</g>
		<g>
			<path class="st0" d="M618.91,1156.32c3.73-0.4,6.98-2.74,8.46-6.19l4.66-10.81l1.35-3.14l7.94-18.45l-1.38,19.12l-0.83,11.48
				l-0.24,3.27c-0.19,2.67,1.67,5.03,4.31,5.5l0.05,0.01c1.41,2.3,3.37,6.97-2.47,8.83c-6.85,2.18-17.94-3.21-21.92-9.61
				C618.87,1156.32,618.89,1156.32,618.91,1156.32z"/>
		</g>
		<g class="st5">
			<path class="st20" d="M632.01,1139c0,0.11,0.01,0.21,0.02,0.32c0.46,6.16,7.05,9.04,7.05,9.04l0.04-0.03l0.83-11.48
				c-2.02-0.74-4.89-1.5-6.57-0.67C632.5,1136.61,631.95,1137.47,632.01,1139z"/>
		</g>
		<g>
			<path class="st0" d="M660.16,1120.78c0-12.24-8.04-22.16-17.96-22.16c-9.92,0-17.96,9.92-17.96,22.16
				c0,12.24,8.04,22.16,17.96,22.16C652.11,1142.95,660.16,1133.02,660.16,1120.78z"/>
		</g>
		<g>
			<path class="st0" d="M626.63,1124.13c2.03,1.94,4.88,2.14,6.35,0.44c1.47-1.7,1.02-4.65-1.01-6.59
				c-2.03-1.94-4.88-2.14-6.35-0.44C624.14,1119.23,624.6,1122.18,626.63,1124.13z"/>
		</g>
		<g>
			<path class="st18" d="M651.87,1135.13c0,0-6.14,0.14-12.27-2.01c0,0-0.51,6.05,6.14,6.45
				C649.6,1139.8,651.87,1135.13,651.87,1135.13z"/>
		</g>
		<g>
			<path class="st4" d="M651.87,1135.13c0,0-1.48,1.23-4.95,1.22c-3.46-0.01-7.32-3.23-7.32-3.23S646.99,1135.14,651.87,1135.13z"/>
		</g>
		<g>
			<g>
				<path class="st19" d="M643.93,1121c0.12-0.03,0.22-0.12,0.27-0.24c0.08-0.21-0.02-0.45-0.23-0.53
					c-0.12-0.05-2.87-1.46-5.29,1.18c-0.15,0.17-0.15,0.42,0.01,0.58c0.16,0.16,0.39,0.11,0.58-0.01c1.88-1.26,4.29-1.02,4.39-0.98
					C643.76,1121.02,643.85,1121.02,643.93,1121z"/>
			</g>
		</g>
		<g>
			<path class="st19" d="M640.7,1125.49c-0.03,0.97,0.52,1.78,1.22,1.81c0.71,0.02,1.31-0.75,1.34-1.72
				c0.03-0.97-0.52-1.78-1.22-1.81C641.33,1123.74,640.73,1124.51,640.7,1125.49z"/>
		</g>
		<g>
			<g>
				<path class="st19" d="M658.52,1123.13c0.12,0.02,0.25-0.02,0.34-0.12c0.16-0.16,0.15-0.42-0.01-0.58
					c-0.1-0.09-2.1-2.45-5.34-0.92c-0.2,0.1-0.3,0.33-0.21,0.54c0.09,0.21,0.32,0.25,0.54,0.21c2.22-0.45,4.36,0.69,4.44,0.76
					C658.35,1123.08,658.43,1123.12,658.52,1123.13z"/>
			</g>
		</g>
		<g>
			<path class="st19" d="M653.82,1126.05c-0.4,0.89-0.2,1.85,0.44,2.14c0.65,0.29,1.49-0.2,1.89-1.08s0.2-1.85-0.44-2.14
				C655.06,1124.67,654.22,1125.16,653.82,1126.05z"/>
		</g>
		<g>
			<path class="st13" d="M649.82,1102.64c0,0-0.39,7.69-9.99,9s-16.23,5.37-14.94,12.29c1.29,6.92,16.77,21.27,5.39,26.83
				c-11.38,5.56-8.96-4.81-21.29-2.4c-12.33,2.4-14.56-14.07-6.07-23.62c8.49-9.56,5.05-34.85,36.9-33.73
				c31.84,1.12,20.18,26.53,20.18,26.53S649.8,1111.13,649.82,1102.64z"/>
		</g>
		<g>
			<path class="st4" d="M627.01,1152.18l-0.1-0.24c2.35-0.95,3.73-2.29,4.22-4.11c1.37-5.03-4.6-12.77-9.87-19.59
				c-1.4-1.81-2.72-3.52-3.89-5.16c-3.26-4.55-3.55-9.98-0.75-14.16c3.1-4.65,9.01-6.62,15.4-5.14c6.19,1.44,10.43,0.14,12.91-1.19
				c2.67-1.44,3.9-3.24,3.91-3.26l0.22,0.15c-0.05,0.08-1.28,1.87-4.01,3.34c-2.51,1.36-6.82,2.67-13.09,1.22
				c-6.29-1.46-12.09,0.47-15.13,5.03c-2.78,4.16-2.5,9.34,0.75,13.87c1.17,1.63,2.49,3.34,3.88,5.15
				c5.3,6.87,11.31,14.66,9.91,19.82C630.88,1149.77,629.41,1151.22,627.01,1152.18z"/>
		</g>
		<g>
			<g>
				<path class="st8" d="M657.27,1137.65c-0.95,0-1.88-0.27-2.75-0.81c-3.86-2.4-5.32-9.66-3.25-16.16l0,0
					c1.27-3.99,3.64-6.97,6.34-7.96c1.61-0.59,3.23-0.45,4.67,0.46c3.86,2.39,5.32,9.64,3.25,16.15c-1.27,4-3.64,6.98-6.34,7.97
					C658.54,1137.54,657.9,1137.65,657.27,1137.65z M652.03,1120.94c-1.97,6.17-0.66,13.01,2.91,15.24
					c1.21,0.75,2.58,0.87,3.96,0.38c2.47-0.91,4.66-3.71,5.86-7.46c1.97-6.18,0.67-13.02-2.91-15.24c-1.21-0.75-2.58-0.88-3.97-0.38
					C655.42,1114.39,653.23,1117.17,652.03,1120.94L652.03,1120.94z"/>
			</g>
		</g>
		<g class="st21">
			<path class="st4" d="M630.49,1116.45c-1.44,6.33,0.86,13.12,5.14,15.18c4.28,2.05,8.92-1.41,10.36-7.74
				c1.44-6.33-0.86-13.12-5.15-15.18C636.57,1106.66,631.93,1110.12,630.49,1116.45z"/>
		</g>
		<g class="st21">
			<path class="st4" d="M651.1,1121.21c-1.45,6.36,0.48,13.25,4.3,15.4c3.82,2.15,8.09-1.27,9.53-7.62
				c1.45-6.36-0.48-13.25-4.3-15.4C656.81,1111.44,652.54,1114.86,651.1,1121.21z"/>
		</g>
		<g>
			<g>
				<path class="st8" d="M638.66,1132.42c-0.96,0-1.93-0.22-2.86-0.67c-4.72-2.21-7.28-9.51-5.71-16.28l0,0
					c0.91-3.93,3.01-6.95,5.76-8.29c1.92-0.92,3.93-0.94,5.83-0.05c4.72,2.22,7.28,9.52,5.71,16.28c-0.91,3.94-3.02,6.97-5.78,8.31
					C640.64,1132.18,639.65,1132.42,638.66,1132.42z M638.83,1107.27c-0.88,0-1.77,0.21-2.62,0.62c-2.5,1.22-4.5,4.12-5.34,7.76l0,0
					c-1.49,6.41,0.87,13.31,5.27,15.38c1.67,0.76,3.45,0.75,5.13-0.03c2.51-1.21,4.51-4.12,5.36-7.78
					c1.48-6.41-0.88-13.31-5.27-15.38C640.53,1107.47,639.68,1107.27,638.83,1107.27z"/>
			</g>
		</g>
		<g>
			<g>
				<path class="st8" d="M651.95,1123.58c-0.17,0-0.34-0.06-0.47-0.17l0,0c-0.08-0.07-2.02-1.58-5.35-0.95
					c-0.39,0.06-0.8-0.18-0.88-0.59c-0.08-0.4,0.18-0.8,0.59-0.87c4.03-0.84,6.49,1.17,6.6,1.25c0.31,0.27,0.36,0.74,0.09,1.05
					C652.37,1123.49,652.16,1123.58,651.95,1123.58z"/>
			</g>
		</g>
	</g>
	<g>
		<path class="st13" d="M558.03,1185.68c-0.56,3.62,8.69,8.26,20.66,10.35c11.97,2.09,22.13,0.85,22.69-2.78
			c0.56-3.62-8.69-8.26-20.66-10.35C568.75,1180.81,558.59,1182.05,558.03,1185.68z"/>
	</g>
	<g>
		<path class="st8" d="M603.01,1325.28c0,0,74.08-14.15,98.1-7.48l-11.52,17.07l-42.82,2.42L603.01,1325.28z"/>
	</g>
	<g>
		<g>
			<path class="st0" d="M658.09,1279.08c-34.33,0-60.62-9.03-78.38-26.98c-26.7-26.98-18.94-63.24-18.74-64.77
				c0,0,1.61-4.92,19.24-0.16c16.38,4.42,16.85,9,16.85,9s-4.56,16.11,9.43,29.97c13.57,13.44,44.11,22.14,79.25,18l1.61,35.04
				C675.97,1279.66,666.67,1279.08,658.09,1279.08z"/>
		</g>
	</g>
	<g class="st5">
		<path class="st22" d="M603.95,1262.02c-1.35,0-2.8-0.38-4.14-1.09h0c-3.38-1.8-5.1-5.21-3.82-7.61c1.28-2.4,5.07-2.9,8.45-1.1
			c1.6,0.85,2.88,2.08,3.61,3.47c0.77,1.47,0.85,2.94,0.21,4.15c-0.64,1.21-1.9,1.97-3.55,2.15
			C604.45,1262.01,604.2,1262.02,603.95,1262.02z M600.29,1252.44c-1.43,0-2.64,0.51-3.16,1.49c-0.94,1.77,0.53,4.39,3.28,5.85h0
			c1.37,0.73,2.84,1.05,4.14,0.91c1.21-0.13,2.11-0.66,2.54-1.47c0.43-0.81,0.36-1.85-0.21-2.93c-0.61-1.16-1.7-2.2-3.07-2.92
			C602.65,1252.74,601.4,1252.44,600.29,1252.44z"/>
	</g>
</g>
<g>
	<path class="st11" d="M1174.68,1320.17c-8.24-0.14-16.24,0.73-23.9,2.51c-10.18,2.36-19.93-5.21-19.93-15.47v-97.54
		c0-10.24-8.66-18.43-19.08-18.05l-82.33,3.02c-10.94,0.4-18.7,10.47-16.31,20.96c2.42,10.65,3.72,22.23,3.72,31.28
		c0,52.56-43.74,95.1-97.44,94.42c-52.13-0.66-94.57-42.63-94.9-93.81c-0.06-8.73,1.09-17.19,3.3-25.22
		c2.55-9.29-4.45-18.45-14.25-18.45H710.33c-9.5,0-17.2,7.56-17.2,16.88v348.77c0,21.81,18,39.48,40.21,39.48h349.62
		c26.44,0,47.88-21.05,47.88-47.01v-43.57c0-8.65,8.37-14.9,16.87-12.63c8.04,2.14,16.5,3.28,25.22,3.28
		c53.56,0,99.9-43.11,96.16-95.74C1264.84,1353.31,1226.34,1321.06,1174.68,1320.17z"/>
</g>
<g>
	<g>
		<path class="st0" d="M734.94,1195.95c0,0-6.8-3.45-8.81,4.09c-2.56,9.62,0.99,24.42,5.42,19.92c1-1.02,2.34-8.34,2.34-8.34
			s-0.3,13.99,4.34,12.73c4.64-1.25,4.84-13.63,4.84-13.63s1.56,14.84,5.47,12.31c3.91-2.54,3.6-12.28,3.6-12.28
			s1.01,13.45,5.47,10.4c4.46-3.05,1.86-13.43,1.81-18.02c-0.04-4.34-3.1-5.07-7.56-4.92c0,0-2.94-3.09-7.12-1.12
			c-1.03,0.48-2.72-1.57-3.53-1.68C737.87,1194.95,734.94,1195.95,734.94,1195.95z"/>
	</g>
</g>
<g>
	<g>
		<g>
			<path class="st0" d="M684.64,1244.72c0,0,8.44-14.46,18.06-16.44s23.39,2.73,17.69,5.22c-5.71,2.49-13.87,3.66-13.87,3.66
				s17.57-1.69,16.17,2.57c-1.39,4.26-16.69,5.58-16.69,5.58s21.06-0.36,18.43,3.25s-18.62,3.76-18.62,3.76s19.6,0.45,16.46,4.56
				c-3.15,4.11-16.2-0.48-17.59,3.78c-1.39,4.26-8.38,20.71-20.73,18.34L684.64,1244.72z"/>
		</g>
	</g>
	<g>
		<path class="st17" d="M699.87,1239.56l-0.57-0.44c1.96-2.56,7.02-2.33,7.24-2.32l-0.04,0.72
			C706.44,1237.52,701.59,1237.3,699.87,1239.56z"/>
	</g>
	<g>
		<path class="st17" d="M697.96,1248.18l-0.48-0.54c3.43-3.01,8.33-2.7,8.54-2.69l-0.05,0.72
			C705.92,1245.67,701.16,1245.38,697.96,1248.18z"/>
	</g>
	<g>
		<path class="st17" d="M698.34,1254.96l-0.61-0.39c1.85-2.9,7.84-2.62,8.09-2.61l-0.04,0.72
			C705.73,1252.68,699.97,1252.41,698.34,1254.96z"/>
	</g>
</g>
<g>
	<g>
		<path class="st8" d="M1267.95,1665.94c-0.1,0-0.2-0.01-0.3-0.02c-1.36-0.17-2.33-1.4-2.17-2.77l49.37-405.68
			c0.17-1.36,1.42-2.34,2.77-2.17c1.36,0.17,2.33,1.41,2.17,2.77l-49.37,405.68C1270.26,1665.01,1269.19,1665.94,1267.95,1665.94z"
			/>
	</g>
	<g>
		<path class="st8" d="M1083.77,1631.12c-0.16,0-0.33-0.02-0.49-0.05c-1.35-0.27-2.22-1.58-1.95-2.93l74.19-370.87
			c0.27-1.35,1.58-2.22,2.93-1.95c1.35,0.27,2.22,1.58,1.95,2.93l-74.19,370.87C1085.97,1630.3,1084.93,1631.12,1083.77,1631.12z"/>
	</g>
	<g>
		<rect x="1147.31" y="1306.39" class="st8" width="162.7" height="5.75"/>
	</g>
	<g>
		<rect x="1114.15" y="1473.92" class="st8" width="176.52" height="5.75"/>
	</g>
	<g>
		
			<rect x="1180" y="1500.39" transform="matrix(0.0665 -0.9978 0.9978 0.0665 -485.2266 2667.2913)" class="st8" width="5.75" height="185.15"/>
	</g>
</g>
<g>
	<g>
		<path class="st0" d="M1142.18,1193.2c11.61-31.39,34.11-77.63,59.29-109.93c5.83-7.48,8.17-10.25,12.19-14.11
			c3.23-3.11,1.44-12.34-3.82-17.93c-4.93-5.24-14.31-7.13-16.25-5.72c-3.31,2.4-7.54,7.57-14.18,15.81
			c-23.06,28.61-45.86,69.29-63.92,122.42L1142.18,1193.2z"/>
	</g>
</g>
<g class="st5">
	<path class="st17" d="M1155.16,1121.94c-0.64,0-1.25-0.15-1.79-0.46c-2.25-1.3-2.6-4.94-0.77-8.11c0.87-1.5,2.09-2.68,3.43-3.33
		c1.43-0.69,2.84-0.71,3.97-0.06c1.13,0.65,1.82,1.88,1.94,3.47c0.11,1.49-0.31,3.14-1.17,4.64
		C1159.38,1120.48,1157.14,1121.94,1155.16,1121.94z M1158.19,1110.75c-0.5,0-1.05,0.14-1.61,0.41c-1.13,0.54-2.16,1.55-2.9,2.83
		l0,0c-1.46,2.53-1.32,5.46,0.31,6.41c1.63,0.94,4.24-0.4,5.7-2.93c0.74-1.28,1.1-2.68,1.01-3.93c-0.09-1.16-0.55-2.04-1.32-2.48
		C1159.03,1110.85,1158.62,1110.75,1158.19,1110.75z"/>
</g>
<g>
	<path class="st0" d="M1266.07,1032.02l3.47-15.09l1.01-4.39l5.94-25.83l2.9,25.04l1.74,15.03l0.55,4.76
		c0.37,3.23,2.4,3.76,5.01,6.4c1.06,1.07,7.8,7.52,0.96,11.17c-8.52,4.55-25.42-0.12-32.26-7.37
		C1255.44,1041.71,1264.94,1036.9,1266.07,1032.02z"/>
</g>
<g>
	
		<ellipse transform="matrix(0.9791 -0.2034 0.2034 0.9791 -175.9493 280.3465)" class="st0" cx="1276" cy="996.22" rx="22.5" ry="27.13"/>
</g>
<g>
	<path class="st13" d="M1287.93,985.86c12.86-0.47,18.53-8.34,18.17-15.2c-0.46-8.8-6.58-16.17-12.78-12.43
		c-6.2,3.75-4.03-4.47-10.29-4.86c-11.7-0.73-13.26,7.67-22.7,8.77c-12.46,1.46-25.16,23.34-13.55,37.76
		C1246.78,999.91,1277.77,986.23,1287.93,985.86z"/>
</g>
<g>
	<path class="st13" d="M1298.69,976.15c0,0-12.72,14.22-10.36,21.51c2.36,7.29,2.12,10.23-5.59,14.79
		c-7.71,4.56-0.16,10.46-10.8,11.72c-10.63,1.26-24.64-10.38-26.18-31.1c-0.86-11.55,5.22-19.61,5.22-19.61L1298.69,976.15z"/>
</g>
<g>
	<path class="st0" d="M1295.23,996.81c-1.72-2.09-4.62-2.54-6.49-1s-1.99,4.47-0.27,6.56c1.72,2.09,4.62,2.54,6.49,1
		C1296.82,1001.83,1296.94,998.9,1295.23,996.81z"/>
</g>
<g>
	<path class="st13" d="M1249.49,996.96c-0.04,0-0.08-0.01-0.12-0.02c-0.17-0.06-0.26-0.26-0.19-0.43c1.11-2.96,4.15-4.25,4.28-4.3
		c0.17-0.07,0.36,0.01,0.43,0.18c0.07,0.17-0.01,0.36-0.18,0.43c-0.03,0.01-2.9,1.23-3.91,3.92
		C1249.75,996.88,1249.62,996.96,1249.49,996.96z"/>
</g>
<g>
	<path class="st13" d="M1253.8,991.26c-0.02,0-0.04,0-0.07-0.01c-0.04-0.01-3.94-0.84-4.08-4.09c-0.01-0.18,0.13-0.34,0.32-0.35
		c0.21,0,0.34,0.13,0.35,0.32c0.12,2.73,3.52,3.47,3.56,3.47c0.18,0.04,0.29,0.21,0.26,0.39
		C1254.09,991.15,1253.96,991.26,1253.8,991.26z"/>
</g>
<g>
	<path class="st13" d="M1291.19,957.85c-0.36,0-0.71-0.09-1.04-0.28c-1.79-1.03-2.42-4.57-2.45-4.72c-0.03-0.18,0.09-0.35,0.27-0.38
		c0.2-0.03,0.35,0.09,0.38,0.27c0.01,0.03,0.6,3.39,2.12,4.26c0.41,0.23,0.84,0.26,1.32,0.07c0.95-0.36,1.66-0.94,2.35-1.49
		c1.36-1.1,2.77-2.24,5.82-1.5c0.18,0.04,0.29,0.22,0.24,0.4c-0.04,0.18-0.23,0.29-0.4,0.24c-2.73-0.66-3.9,0.28-5.25,1.37
		c-0.73,0.59-1.48,1.2-2.53,1.6C1291.74,957.8,1291.46,957.85,1291.19,957.85z"/>
</g>
<g>
	<path class="st13" d="M1260.54,961c-0.26,0-0.52-0.01-0.78-0.03c-0.18-0.02-0.32-0.18-0.3-0.36c0.02-0.18,0.18-0.32,0.36-0.3
		c4.95,0.42,8.87-3.8,8.91-3.84c0.12-0.13,0.33-0.14,0.47-0.02c0.14,0.12,0.14,0.33,0.02,0.47
		C1269.05,957.09,1265.44,961,1260.54,961z"/>
</g>
<g>
	<path class="st13" d="M1292.07,1004.54c-1.11,0-2.84-0.48-4.32-2.95c-0.05-0.08-0.02-0.17,0.05-0.22c0.07-0.04,0.17-0.02,0.22,0.05
		c2.26,3.77,4.97,2.68,5.08,2.63c0.08-0.03,0.17,0,0.21,0.08c0.03,0.08,0,0.17-0.08,0.21
		C1293.22,1004.35,1292.76,1004.54,1292.07,1004.54z"/>
</g>
<g>
	<g>
		<path class="st0" d="M1412.16,1031.86c2.58-6.22-17.45-16.93-17.45-16.93c-2.19-0.47-31.78,31.17-68.36,34.59
			c-13.03,1.22-59.34,33.69-42.16,39.84C1319.72,1102.08,1385.24,1079.16,1412.16,1031.86z"/>
	</g>
</g>
<g>
	<path class="st13" d="M1253.68,1449.93c0,0,0.24,9.48,6.65,12.15s25,5.09,18.05,11.18c-3.98,3.5-22.76,1.24-28.06,1.24
		c-5.3,0-10.28,2.31-14.22-1.24c-4.33-3.9,0-23.33,0-23.33s4.57,2.38,8.69,2.28C1250.72,1452.05,1253.68,1449.93,1253.68,1449.93z"
		/>
</g>
<g>
	<path class="st8" d="M1309.01,1163.9c0,0,1.28,42.77-12.37,124.83c-9.85,59.24-21.49,118.93-27.2,147.55
		c-2.04,10.24-10.65,17.72-20.85,18.13l-5.48,0.22c-11.03,0.44-19.99-9.03-19.18-20.3l13.85-193.61l3.41-63.72L1309.01,1163.9z"/>
</g>
<g>
	<path class="st13" d="M1192.94,1449.93c0,0,0.24,9.48,6.65,12.15s25,5.09,18.05,11.18c-3.98,3.5-22.76,1.24-28.06,1.24
		c-5.3,0-10.28,2.31-14.22-1.24c-4.33-3.9,0-23.33,0-23.33s4.57,2.38,8.69,2.28C1189.98,1452.05,1192.94,1449.93,1192.94,1449.93z"
		/>
</g>
<g>
	<path class="st8" d="M1248.27,1163.9c0,0,3.72,42.34-9.93,124.39c-9.85,59.24-23.93,119.36-29.64,147.98
		c-2.04,10.24-10.65,17.72-20.85,18.13l-5.48,0.22c-11.03,0.44-19.99-9.03-19.18-20.3l13.85-193.61l3.41-63.72L1248.27,1163.9z"/>
</g>
<g>
	<path class="st14" d="M1205.8,1052.02c0,0,10.52-25.84,60.43-19.1c71.96,9.72,56.02,74.85,48.55,176.2
		c0,0-69.42-19.97-138.53-15.01C1176.25,1194.12,1184.44,1090.76,1205.8,1052.02z"/>
</g>
<g>
	<path class="st14" d="M1177.99,1050.9c0,0,8.56,28.18,31.07,36.47c21.39,7.88,96.49,21.43,112.26,10.19
		c34.82-24.83,20.83-52.5,20.83-52.5s-60.47-13.53-85.84-13.17C1203.06,1032.63,1177.99,1050.9,1177.99,1050.9z"/>
</g>
<g>
	<path class="st8" d="M1176.11,1195.39c-0.59,5.13,30.03,11.5,68.42,15.68c38.39,4.18,69.67,3.19,70.26-1.94
		c0.59-5.13-29.74-12.45-68.13-16.63C1208.27,1188.32,1176.7,1190.26,1176.11,1195.39z"/>
</g>
<g>
	<path class="st13" d="M1231.73,1325.66c-0.02,0-0.03,0-0.05,0c-0.23-0.02-0.39-0.23-0.37-0.46c6.83-63.62-12.28-89.94-12.47-90.2
		c-0.14-0.18-0.1-0.44,0.08-0.58c0.19-0.14,0.44-0.1,0.58,0.08c0.2,0.26,19.5,26.84,12.63,90.79
		C1232.12,1325.5,1231.94,1325.66,1231.73,1325.66z"/>
</g>
<g>
	<path class="st0" d="M1107.93,1194.54c5.61-9.35,10.79-14.42,10.79-14.42s22.1,5.98,22.65,8.23c1.28,5.17,1.5,15.95,2.68,21.15
		c0.51,2.25,1.71,9.95-0.46,10.76c-1.88,0.7-5.73-4.96-7.23-7.87c-5.7,14.14-20.32,32.22-10.52,1.72c-0.02-0.01-0.03-0.01-0.05-0.02
		c-1.27,2.99-8.37,19.64-11.68,16.37c-2.92-2.89,1.66-15.02,3.71-19.96c-0.04-0.02-0.09-0.05-0.13-0.07
		c-2.51,4.85-8.88,16.39-10.77,12.74c-2.37-4.58,2.34-17.99,2.34-17.99s-6.39,17.01-9.77,12.07c-2.31-3.37,5.02-16.36,7.35-21
		C1107.16,1195.56,1107.53,1195.01,1107.93,1194.54z"/>
</g>
<g>
	<path class="st0" d="M1408.66,1038.42c0,0-18.44-14.66-18.04-17c0.9-5.41,5.08-15.67,6.09-21.06c0.44-2.34,2.44-10.09,4.81-9.98
		c2.06,0.1,3.39,7.01,3.62,10.38c11.14-11.03,32.32-22.15,10.64,2.67c0.01,0.01,0.03,0.02,0.04,0.04c2.42-2.31,7.36-6.24,9.91-3.15
		c1.02,1.23-1.63,7.2-5.58,11.03c0.03,0.04,7.67-6.26,9.37-3.83c1.63,2.32-5.96,10.69-5.96,10.69s6.37-3.67,6.35,0.46
		C1429.9,1022.86,1408.66,1038.42,1408.66,1038.42z"/>
</g>
<g>
	<g>
		<path class="st0" d="M1663.28,639.68c0,0-7.24-2.39-8.09,5.38c-1.08,9.89,4.67,23.99,8.37,18.88c0.84-1.16,0.06-14.8,0.06-14.8
			s2.81,20.07,7.2,18.13c4.4-1.94,2.3-18.6,2.3-18.6s4.22,18.83,7.7,15.73c3.48-3.1,0.92-15.88,0.92-15.88s3.81,16.34,7.76,12.65
			c3.95-3.69-0.2-13.56-0.93-18.09c-0.7-4.28-3.83-4.54-8.22-3.72c0,0-3.37-2.61-7.21-0.03c-0.94,0.63-2.93-1.14-3.75-1.13
			C1666.03,638.25,1663.28,639.68,1663.28,639.68z"/>
	</g>
</g>
</svg>
