<?xml version="1.0" encoding="utf-8"?>
<!-- Generator: Adobe Illustrator 25.0.0, SVG Export Plug-In . SVG Version: 6.00 Build 0)  -->
<svg version="1.1" id="Layer_1" xmlns="http://www.w3.org/2000/svg" xmlns:xlink="http://www.w3.org/1999/xlink" x="0px" y="0px"
	 viewBox="0 0 595.28 841.89" style="enable-background:new 0 0 595.28 841.89;" xml:space="preserve">
<style type="text/css">
	.st0{fill:#1C174B;}
	.st1{fill:#E8D1A1;}
	.st2{fill:#E7A725;}
	.st3{fill:#939393;}
</style>
<g>
	<path class="st0" d="M516.83,674.27c-146.62,0-293.24,0-439.87,0c-18.28-2.9-28.95-13.66-32.62-31.63c0-121.25,0-242.5,0-363.74
		c2.47-2.12,5.43-1.49,8.28-1.48c8.01-0.27,9.19,0.78,9.2,8.87c0.05,50.57,0.02,101.14,0.02,151.71c0,64.24,0.03,128.48-0.04,192.73
		c-0.01,7.38,1.38,14.02,6.84,19.41c4.06,4,8.85,6.2,14.51,6.56c1.81,0.11,3.62,0.09,5.43,0.09c139.2,0,278.39-0.02,417.59,0.05
		c7.51,0,14.41-1.04,19.96-6.69c4.11-4.18,6.44-9.09,6.73-14.95c0.11-2.3,0.08-4.61,0.08-6.92c0-122.88,0-245.77,0-368.65
		c0-1.32,0.02-2.64-0.01-3.95c-0.12-6.09-0.14-6.11-6.31-6.88c-1.8,0.2-3.61,0.21-5.42,0.21c-68.27-0.01-136.55-0.01-204.82-0.01
		c-1.32,0-2.63,0.01-3.95-0.01c-7.86-0.15-8.97-1.37-8.63-9.47c-0.36-8.53,0.71-9.72,9.36-9.72c69.57-0.04,139.13-0.01,208.7-0.02
		c12.24,0,10.97,0.57,11.07-10.84c0.01-0.99,0.07-1.97,0.2-2.95c-0.21-2.79-0.07-5.6-0.19-8.39c-0.51-11.87-9.58-21.1-21.44-21.84
		c-2.3-0.14-4.61-0.08-6.92-0.08c-57.16,0-114.32,0-171.48,0c-1.48,0-2.97,0.01-4.45-0.01c-8.35-0.09-9.32-1.12-9.03-9.54
		c-0.1-1.48-0.18-2.95-0.02-4.44c0.28-2.7,1.44-4.3,4.44-3.97c0.98,0.11,1.97,0.02,2.96,0.02c61.75,0,123.5,0.14,185.24-0.09
		c16.59-0.06,27.64,7.9,35.47,21.61c2.7,4.73,3.17,10.03,3.17,15.3c0.04,144.4,0.02,288.81,0.05,433.21
		c0,16.21-8.73,26.69-22.14,34.1C525.12,673.87,520.77,673.22,516.83,674.27z"/>
	<path class="st0" d="M44.34,263.08c0-21.09,0-42.17,0-63.26c1.21-11.02,7.12-19.09,15.77-25.59c6.05-4.55,12.83-6.51,20.27-6.52
		c53.13-0.02,106.25,0,159.38-0.02c7.73,0,14.5,2.45,20.41,7.37c10.6,9.2,15.6,20.79,15.05,34.85c-0.19,4.92,0.08,9.85-0.06,14.77
		c-0.1,3.72,1.33,5.56,5.17,5.25c0.65-0.05-0.17-0.02,0.49,0c10.08,0.33,10.22,0.48,10.16,10.33c0.08,7.22-0.97,8.65-7.43,8.66
		c-52.67,0.1-105.34,0.08-158.01,0.02c-0.66,0-1.31-0.12-1.97-0.17c-18.3,0.28-36.6,0.32-54.89-0.01c-6.83,0.36-6.83,0.36-6.97,6.89
		c-0.17,8.34-0.99,9.1-9.5,8.9C49.5,264.63,46.69,265.08,44.34,263.08z"/>
	<path class="st1" d="M123.43,247.43c21.52-0.05,43.04-0.14,64.55-0.16c31.05-0.03,62.1-0.01,93.15-0.01c8.1,0,8.1,0,8.51-7.9
		c5.16-2.5,10.33-2.5,15.49,0c0.41,7.9,0.41,7.9,8.56,7.9c69.19,0,138.38,0,207.58,0.01c1.81,0,3.62,0.1,5.42,0.16
		c1.47,1.37,1.57,3.19,1.67,5.01c0.09,1.65,0.06,3.29,0.06,4.94c0,117.28,0.01,234.56-0.02,351.83c0,3.25,0.57,6.62-1.22,9.67
		c-1.23,1.29-2.86,1.57-4.5,1.59c-10.14,0.18-20.29,0.21-30.43-0.01c-1.31-0.03-2.6-0.31-3.71-1.08c-1.95-2.39-0.04-3.99,1.33-5.5
		c3.09-3.42,6.54-6.5,9.69-9.86c4.22-4.51,4.15-7.34-0.14-11.89c-0.23-0.24-0.46-0.47-0.69-0.7c-6.03-6.2-6.26-11.93-0.88-18.98
		c1.63-2.14,3.87-2.24,6.19-2.34c13.21-0.56,13.39-0.75,13.38-14c0-7.41,0.11-14.82-0.04-22.23c-0.13-6.13-2.3-8.19-8.46-8.43
		c-0.66-0.03,0.16,0.01-0.49-0.01c-10.13-0.28-12.71-2.49-14.72-12.45c-0.31-1.55-0.17-2.93,0.74-4.23c0.57-0.81,1.23-1.54,1.9-2.27
		c8.76-9.49,8.76-9.52-0.22-18.49c-5.36-5.35-10.63-10.79-16.1-16.03c-4.38-4.2-6.98-4.12-11.44,0.01
		c-0.48,0.45,0.12-0.11-0.35,0.34c-7.37,6.99-10.02,7.23-18.85,2.01c-2.09-1.24-2.93-2.97-3.06-5.26c-0.14-2.63,0.09-5.28-0.19-7.9
		c-0.47-4.42-2.51-6.66-6.98-6.78c-10.2-0.28-20.42-0.33-30.62,0.02c-4.44,0.15-6.39,2.42-6.86,6.9c-0.07,0.65-0.06,1.32-0.08,1.97
		c-0.28,10.16-2.48,12.74-12.43,14.74c-1.55,0.31-2.92,0.16-4.22-0.75c-0.95-0.66-1.78-1.46-2.61-2.26
		c-8.83-8.37-9.27-8.37-17.76,0.12c-5.47,5.47-11.01,10.88-16.39,16.44c-4.24,4.39-4.19,6.98-0.1,11.44
		c0.44,0.49-0.11-0.12,0.34,0.36c7.06,7.52,7.27,9.7,2.09,18.87c-1.2,2.12-2.91,2.99-5.21,3.11c-2.63,0.13-5.28-0.09-7.9,0.17
		c-4.44,0.44-6.69,2.44-6.84,6.92c-0.33,10.2-0.32,20.42-0.01,30.62c0.13,4.42,2.41,6.41,6.86,6.91c0.82,0.09,1.64,0.08,2.47,0.1
		c9.33,0.21,13.12,3.63,14.38,12.9c0.34,2.54-0.7,4.1-3.05,4.92c-6.64-0.99-12.02-5.04-17.98-7.65c-5.67-2.49-11.08-5.69-16.57-8.64
		c-1.86-1-3.78-2.05-4.55-4.29c-0.72-2.59-0.53-5.23-0.53-7.85c-0.02-23.83,0.02-47.66-0.02-71.5
		c-0.02-16.79-8.77-25.55-25.59-25.57c-27.45-0.04-54.9,0-82.35-0.02c-2.62,0-5.26,0.17-7.85-0.44c-3.97-1.76-6.03-4.94-6.73-9.13
		c3.72-4.4,4.71-9.54,4.19-15.14c-0.33-3.62,1.41-5.94,4.86-7.04c1.1-0.35,2.2-0.76,3.19-1.31c4.73-2.65,8.74-2.03,12.14,2.33
		c1,1.29,2.28,2.37,3.56,3.41c2.83,2.29,5.81,2.52,8.49,0.01c7.68-7.21,15.15-14.65,22.34-22.35c2.61-2.8,2.43-5.97-0.12-8.91
		c-0.43-0.5-0.88-0.98-1.33-1.46c-7.07-7.53-7.28-9.8-2.11-18.85c1.21-2.11,2.91-3,5.21-3.12c2.63-0.14,5.28,0.08,7.9-0.17
		c4.44-0.41,6.7-2.42,6.85-6.9c0.34-10.2,0.3-20.42,0.02-30.62c-0.12-4.44-2.38-6.45-6.81-6.96c-0.82-0.09-1.64-0.08-2.47-0.1
		c-9.48-0.21-12.99-3.38-14.45-12.83c-0.42-2.71,1.13-4.32,2.7-6.01c8.87-9.58,8.87-9.58-0.37-18.82
		c-4.77-4.77-9.53-9.56-14.33-14.32c-6.17-6.11-8.24-6.13-14.29-0.21c-5.72,5.6-12.83,5.69-19.04,0.31
		c-1.85-1.61-1.88-3.72-1.97-5.87c-0.54-13.28-0.71-13.44-13.92-13.44c-7.41,0-14.82-0.11-22.23,0.04c-6.15,0.12-8.25,2.3-8.52,8.4
		c-0.05,1.15-0.13,2.32-0.01,3.46c0.54,4.99-1.56,7.86-6.34,9.67c-9.28,3.49-13.79,1.72-18.05-7.9c-1.69-8-1.29-16.19-2.23-24.26
		C121.67,251.66,121.63,249.27,123.43,247.43z"/>
	<path class="st2" d="M526.69,618.91c0-123.83,0-247.65,0-371.48c7.93-0.41,7.93-0.41,7.93,7.24c0,125.36,0,250.72,0,376.08
		c0,18.52-9.1,27.7-27.44,27.7c-139.86,0-279.72-0.14-419.58,0.19c-16.07,0.04-27.69-10.67-27.64-27.89
		c0.38-114.49,0.2-228.97,0.2-343.46c0-8.14,0-8.14-7.93-8.55c0-5.16,0-10.33,0-15.49c7.93-0.42,7.93-0.42,7.93-8.31
		c0-7.92,0-7.92,7.92-7.5c2.06,2.16,1.64,4.91,1.65,7.5c0.06,14.82,0.03,29.64,0.03,44.47c0,109.19,0,218.38,0,327.57
		c0,2.8-0.11,5.6,0.18,8.39c0.76,7.51,5.95,12.64,13.51,13.36c1.97,0.19,3.95,0.13,5.93,0.13c138.51,0,277.02,0,415.53,0
		c2.14,0,4.28,0.05,6.42-0.16c7.61-0.74,12.99-6.2,13.59-13.86c0.26-3.29,0.06-6.59,0.14-9.88
		C525.11,622.82,525.11,620.65,526.69,618.91z"/>
	<path class="st1" d="M305.46,176.09c5.16,0,10.33,0,15.49,0c0.41,7.92,0.41,7.92,8.57,7.92c58.42,0,116.84,0.47,175.24-0.27
		c19.25-0.24,32.29,10.5,29.7,31.87c-5.07,2.76-10.27,1.98-15.49,0.59c-2.62-2.91-1.47-6.51-1.71-9.83
		c-0.33-4.63-0.69-4.99-6.29-4.99c-5.69-0.01-6.09,0.35-6.43,4.86c-0.25,3.34,0.86,6.92-1.61,9.9c-5.17,1.75-10.34,1.66-15.52,0.11
		c-2.1-1.89-1.7-4.46-1.77-6.87c-0.2-7.96-0.2-7.98-6.27-8c-6.26-0.02-6.31,0.07-6.48,7.78c-0.06,2.41,0.33,4.96-1.59,6.98
		c-5.16,1.76-10.34,1.66-15.52,0.11c-2.63-2.69-1.61-6.13-1.77-9.29c-0.27-5.27-0.61-5.63-6.68-5.58c-5.53,0.04-5.84,0.4-6.06,5.71
		c-0.13,3.03,0.67,6.25-1.47,8.97c-2.06,1.35-4.41,1.19-6.69,1.19c-37.8,0.03-75.6,0.07-113.39-0.02
		c-14.66-0.03-22.49-7.2-23.97-21.82c-0.39-3.82-2.25-7.2-2.62-10.97c1.03-1.87,2.93-1.93,4.64-1.84c3.72,0.2,6.25-0.85,6.58-5.01
		C304.38,176.95,304.91,176.46,305.46,176.09z"/>
	<path class="st2" d="M518.75,215.57c5.24,0.01,10.48,0.03,15.71,0.04c-0.04,5.08,1.8,11.54-0.65,14.83
		c-2.33,3.15-9.21,0.96-14.07,0.96c-68.66,0.06-137.32,0.04-205.98,0.04c-8.21,0-8.21,0-8.62,7.91c-5.16,0-10.33,0-15.49,0
		c-0.41-7.91-0.41-7.91-8.57-7.91c-7.41,0-7.4,0-7.41-7.47c0-6.07,0.04-12.14-0.02-18.22c-0.12-12.08-5.57-21.62-14.24-29.59
		c9.98,0.02,19.97,0.04,29.95,0.06c2.1,2.28,1.32,6.06,4.16,7.95c2.77,3.5,3.74,7.59,3.87,11.95c0.35,11.26,8.56,19.46,19.94,19.47
		c40.82,0.05,81.64-0.01,122.46-0.03c5.23-2.37,10.46-2.37,15.7,0c5.31,0,10.62,0,15.93,0c5.23-2.37,10.46-2.37,15.7,0
		c5.31,0,10.62,0,15.93,0C508.28,213.21,513.51,213.21,518.75,215.57z"/>
	<path class="st1" d="M526.69,618.91c0.01,4.94,0.04,9.88,0.02,14.82c-0.04,9.89-6.83,16.77-16.62,16.81
		c-8.07,0.04-16.14,0.01-24.21,0.01c-133.07,0-266.14,0-399.2,0c-12.87,0-18.61-5.78-18.61-18.75c0-128.12,0.01-256.25,0.01-384.37
		c18.45,0,36.9,0,55.35,0c-0.11,10.51,1.34,20.92,2,31.39c-6.91-0.82-11.13,3.4-15.36,7.91c-4.84,5.16-10.04,9.99-14.96,15.08
		c-4.23,4.38-4.17,6.95-0.06,11.45c0.44,0.49-0.11-0.12,0.34,0.36c6.79,7.23,7.12,11.04,1.83,19.3c-1.21,1.9-2.91,2.53-4.99,2.64
		c-2.63,0.14-5.28-0.09-7.9,0.16c-4.45,0.42-6.7,2.45-6.83,6.91c-0.3,10.21-0.3,20.43,0,30.63c0.13,4.49,2.37,6.47,6.81,6.96
		c0.49,0.05,0.99,0.08,1.48,0.07c12.91-0.28,10.17,0.53,15.12,11.89c0.89,2.04,0.38,3.85-1.04,5.48c-0.65,0.75-1.33,1.46-2.02,2.17
		c-8.08,8.36-8.06,9.01,0.32,17.39c5.24,5.24,10.45,10.52,15.73,15.71c5.37,5.28,8.29,5.22,13.74-0.16
		c1.06-1.04,2.08-2.11,3.17-3.12c2.01-1.86,4.24-2.39,6.82-1.31c1.21,0.51,2.44,0.99,3.68,1.45c7.03,2.64,7.16,2.85,7.23,10.35
		c0,0.33,0,0.66,0,0.99c0.09,8.56,1.84,10.29,10.59,10.32c8.07,0.03,16.14-0.03,24.21,0.03c2.1,0.01,4.32-0.39,6.19,1.05
		c1.69,2.68,3.38,5.37,5.07,8.05c-2.22,2.41-5.18,1.75-7.89,1.75c-28.15,0.06-56.29,0.05-84.44,0.02
		c-5.41-0.01-10.47,0.93-14.94,4.16c-6.3,4.55-9.68,10.65-9.69,18.47c-0.06,41.81-0.15,83.62,0.05,125.42
		c0.07,13.37,9.81,22.57,23.58,22.63c33.91,0.13,67.82,0.04,101.72,0.05c27.65,0,55.31,0.03,82.96-0.01
		c16.87-0.02,25.57-8.74,25.62-25.59c0.03-10.7-0.04-21.4,0.04-32.1c0.02-2.4-0.43-5.01,1.76-6.91
		c12.39,6.24,24.77,12.49,37.16,18.73c1.09,2.91-1.57,3.97-2.9,5.58c-3.55,4.31-3.73,6.69,0.13,10.7
		c6.61,6.87,13.37,13.59,20.21,20.23c4.1,3.98,7.96,4.37,11.44-0.13c5.26-6.79,10.8-6.59,17.58-3.12c2.79,1.43,4.6,3.04,4.51,6.29
		c-0.01,0.33,0.01,0.66,0.03,0.99c0.5,13.47,0.55,13.52,14.27,13.51c7.4,0,14.79,0.09,22.19-0.03c5.85-0.1,7.94-2.25,8.26-8.08
		c0.04-0.66,0.01,0.17,0.01-0.49c-0.02-11.11-0.8-9.96,10.57-14.56c3.22-1.3,5.55-0.57,7.99,1.69c9.27,8.57,9.3,8.51,19.14-0.02
		c1.19-1.03,2.26-2.53,4.23-1.79c1.5,1.49,3.4,0.88,5.13,0.89C504.44,618.94,515.57,618.91,526.69,618.91z"/>
	<path class="st1" d="M249.93,231.29c-11.53,0.05-23.06,0.15-34.58,0.16c-47.28,0.02-94.56,0.01-141.84,0
		c-1.81,0-3.62-0.1-5.42-0.16c-2.97-5.81-2.29-27.45,1.11-32.69c2.93-4.53,7.09-7.26,12.46-8.05c2.13-0.31,4.27-0.28,6.41-0.28
		c47.28-0.01,94.55-0.01,141.83,0c2.14,0,4.29-0.04,6.41,0.27c7.4,1.07,13.66,6.63,14.76,14.01c1.17,7.83,0.59,15.77,0.29,23.67
		C251.31,229.4,250.82,230.46,249.93,231.29z"/>
	<path class="st2" d="M249.93,231.29c0.01-7.57,0.04-15.13,0.01-22.7c-0.04-10.1-6.58-16.66-16.69-16.66
		c-49.51-0.02-99.02-0.02-148.54,0c-10.19,0-16.6,6.46-16.64,16.66c-0.03,7.57,0,15.13,0.01,22.7c-7.92,0.41-8.07,0.41-7.88-7.24
		c0.17-7.22-0.96-14.51,0.75-21.65c2.6-10.88,11.61-18.32,22.71-18.34c50.74-0.09,101.48-0.11,152.22,0.01
		c12.1,0.03,21.72,10,21.94,22.19c0.13,6.75-0.26,13.52,0.13,20.26c0.24,4.16-0.99,5.72-5.08,4.96
		C251.92,231.3,250.91,231.35,249.93,231.29z"/>
	<path class="st0" d="M293.52,184.19c-2.89,0.2-4.67-0.62-4.06-4.05c0.22-1.26-0.05-2.6-0.1-3.91c0.33-8.04,0.33-8.04,8.7-8.04
		c0.33,0,0.66,0.05,0.98-0.01c4.82-0.88,7.33,0.65,6.29,5.97c-0.12,0.61,0.09,1.29,0.14,1.94c-0.41,7.87-0.41,7.86-8.51,7.92
		C295.81,184.03,294.66,184.13,293.52,184.19z"/>
	<path class="st0" d="M313.37,568.5c-0.05,13.82-0.11,27.65-0.17,41.47c-0.06,14.68-10.1,24.75-24.8,24.75
		c-62.55,0.02-125.1,0.02-187.66,0c-14.69,0-24.76-10.09-24.77-24.77c-0.02-41.48-0.02-82.96,0-124.44
		c0.01-14.66,10.1-24.71,24.8-24.74c31.27-0.07,62.54-0.11,93.82-0.17c30.95,0.05,61.89,0.11,92.84,0.16
		c16.01,0.03,25.75,9.75,25.78,25.77C313.26,513.86,313.32,541.18,313.37,568.5z"/>
	<path class="st0" d="M400.3,270.99c31.13,0,62.26-0.01,93.38,0c15.06,0.01,25.11,9.97,25.12,24.95c0.02,41.34,0.02,82.68,0,124.01
		c-0.01,15-10.04,24.99-25.08,24.99c-62.42,0.01-124.84,0.02-187.26,0c-14.7,0-24.86-10.09-24.87-24.71
		c-0.02-41.5-0.02-83.01,0-124.51c0.01-14.65,10.14-24.72,24.83-24.73C337.71,270.98,369,270.99,400.3,270.99z"/>
	<path class="st0" d="M189.53,452.55c-11.67,0.1-23.35,0.36-35.02,0.2c-4.3-0.06-6.77-2.92-7.34-7.23
		c-0.09-0.65-0.13-1.33-0.01-1.97c1.41-7.55-1.21-11.88-9.07-13.91c-3.3-0.85-4.8-0.62-6.96,1.58
		c-9.98,10.13-11.09,10.07-21.23-0.06c-5.47-5.47-10.97-10.9-16.39-16.42c-4.32-4.4-4.31-8.37-0.13-12.85
		c7.63-8.18,7.53-8.13,2.7-18.36c-0.87-1.85-1.9-1.84-3.36-1.84c-2.96,0.01-5.93,0.11-8.88-0.03c-4.66-0.23-7.75-3.15-7.82-7.79
		c-0.14-10.53-0.13-21.06-0.01-31.59c0.06-4.92,3.14-7.78,8.09-8.03c0.16-0.01,0.33-0.03,0.49,0c8.22,1.69,12.99-1.49,14.85-9.79
		c0.51-2.29,0.83-3.57-0.97-5.42c-11.27-11.56-11.22-11.61,0.09-22.95c5-5.01,10.13-9.89,14.97-15.04
		c3.54-3.77,7.33-4.64,11.88-2.24c0.44,0.48,0.85,0.99,1.31,1.45c8.33,8.26,8.29,8.17,18.76,2.88c1.61-0.81,1.65-1.69,1.65-3
		c0-2.96-0.09-5.93,0.02-8.89c0.19-4.96,3.1-8.06,8.01-8.13c10.54-0.13,21.08-0.14,31.62,0.01c4.62,0.07,7.46,3.2,7.79,7.87
		c0.01,0.16,0.04,0.34,0,0.49c-2.08,8.66,1.9,13.12,10.05,15.18c2.13,0.54,3.62,1.03,4.98-0.98c0.18-0.27,0.46-0.47,0.69-0.7
		c10.61-10.48,11.28-10.47,21.97,0.23c5.24,5.24,10.51,10.45,15.71,15.73c4.55,4.62,4.58,8.64,0.22,13.25
		c-7.78,8.23-7.7,8.18-2.52,18.42c0.82,1.62,1.72,1.63,3.02,1.63c2.96,0,5.93-0.09,8.89,0.03c4.94,0.19,8.05,3.12,8.11,8.04
		c0.13,10.37,0.12,20.75,0.01,31.13c-0.06,5.15-3.19,8.04-8.43,8.25c-0.16,0.01-0.33,0-0.49,0c-11.05,0.26-10.93,0.3-15,10.99
		c-0.74,1.95,0.01,2.65,1.05,3.69c2.09,2.1,4.26,4.13,6.22,6.35c3.14,3.55,3.28,7.69,0.03,11.04c-7.33,7.57-14.79,15.02-22.35,22.37
		c-3.38,3.29-7.45,3.16-11.05,0.14c-0.38-0.32-0.8-0.62-1.07-1.02c-4.34-6.33-9.29-7.63-16.25-3.4c-2.8,1.7-3.96,2.81-3.88,6
		C194.65,443.27,196,449.3,189.53,452.55z"/>
	<path class="st0" d="M488.19,618c-2.6,2.49-5.17,5-7.8,7.45c-4.08,3.81-8.06,3.84-12.17,0.14c-0.12-0.11-0.23-0.23-0.35-0.34
		c-8.12-7.57-8.08-7.48-18.33-2.75c-1.81,0.83-1.93,1.81-1.91,3.32c0.04,2.79,0.08,5.59-0.01,8.38c-0.16,5.24-3.07,8.34-8.23,8.4
		c-10.36,0.11-20.72,0.12-31.08,0c-4.94-0.06-7.84-3.11-8.12-8.01c-0.01-0.16-0.03-0.33,0-0.49c1.6-8.12-1.28-12.97-9.69-14.95
		c-2.68-0.63-4.07-0.64-5.78,1.3c-1.73,1.97-3.62,3.83-5.6,5.55c-3.61,3.13-7.67,3.25-11.02-0.01
		c-7.55-7.33-14.99-14.77-22.33-22.31c-3.43-3.53-3.25-7.62,0.1-11.4c1.52-1.71,3.1-3.37,4.66-5.05c3.17-1.65,2.39-3.59,1.66-6.72
		c-1.86-7.99-6.35-9.95-13.91-9.19c-6.3,0.63-9.22-2.82-9.25-9.26c-0.04-9.55-0.04-19.11,0-28.66c0.03-6.45,2.95-9.87,9.27-9.23
		c7.59,0.77,11.95-1.28,13.93-9.2c0.81-3.24,0.73-4.77-1.51-6.98c-10.15-9.99-10.09-11.09,0.03-21.22
		c5.47-5.48,10.91-10.98,16.44-16.4c4.36-4.28,9.2-4.82,12.7,0.09c5.34,7.49,10.93,6.7,17.69,2.93c1.72-0.96,2.91-1.57,2.69-3.87
		c-0.27-2.77-0.14-5.6-0.04-8.39c0.18-4.99,3.05-8.15,7.92-8.22c10.54-0.14,21.08-0.14,31.62,0c4.66,0.06,7.54,3.14,7.87,7.78
		c0.07,0.98,0.16,2-0.01,2.96c-1.08,6.09,0.84,9.5,7.23,11.7c4.63,1.59,7.42,1.75,10.22-2.23c0.93-1.32,2.26-2.4,3.49-3.49
		c3.73-3.29,7.83-3.39,11.42,0.1c7.43,7.24,14.77,14.58,22,22.01c3.47,3.57,3.31,7.62,0.01,11.43c-0.22,0.25-0.4,0.55-0.67,0.72
		c-7.17,4.32-7.31,9.83-3.38,16.61c1.36,2.34,2.21,3.76,5.22,3.57c15.09-0.91,16.09,2.11,15.69,15.81
		c-0.22,7.57,0.02,15.15-0.06,22.73c-0.06,5.78-3.21,9.57-8.81,8.64c-9.11-1.5-12.86,2.87-14.94,10.65
		c-0.47,1.77-0.81,2.94,0.77,4.2c1.28,1.02,2.33,2.32,3.5,3.48c7.01,7.01,6.96,9.91-0.16,17.09
		C495.45,610.42,491.84,614.23,488.19,618z"/>
	<path class="st0" d="M518.75,215.57c-5.23,0-10.46,0-15.7,0c-0.02-1.15-0.06-2.29-0.06-3.44c-0.03-12.98-0.03-12.9,12.83-12.37
		c2.32,0.1,3.14,0.65,3.04,3.03C518.66,207.05,518.77,211.31,518.75,215.57z"/>
	<path class="st0" d="M487.12,215.57c-5.23,0-10.46,0-15.7,0c-0.02-1.15-0.06-2.29-0.06-3.44c-0.03-12.98-0.03-12.9,12.83-12.37
		c2.32,0.1,3.14,0.65,3.04,3.03C487.03,207.05,487.14,211.31,487.12,215.57z"/>
	<path class="st0" d="M455.49,215.57c-5.23,0-10.46,0-15.7,0c-0.02-1.15-0.06-2.29-0.06-3.44c-0.03-12.98-0.03-12.9,12.83-12.37
		c2.32,0.1,3.14,0.65,3.04,3.03C455.4,207.05,455.5,211.31,455.49,215.57z"/>
	<path class="st0" d="M143.19,215.64c-21.08,0-42.16-0.07-63.24,0.08c-3.2,0.02-4.09-0.78-4.07-4.03
		c0.07-11.86-0.06-11.86,11.96-11.86c39.36,0,78.72,0.06,118.08-0.09c3.66-0.01,4.65,0.81,4.58,4.54
		c-0.23,11.36-0.05,11.37-11.48,11.37C180.41,215.64,161.8,215.64,143.19,215.64z"/>
	<path class="st2" d="M242.04,207.9c0,7.74,0,7.74-7.58,7.74c-8.23,0-8.23,0-8.23-8.07c0-7.74,0-7.74,7.58-7.74
		C242.04,199.82,242.04,199.82,242.04,207.9z"/>
	<path class="st2" d="M115.53,476.75c10.87-0.05,21.74-0.15,32.61-0.15c46.13-0.02,92.25-0.01,138.38-0.01
		c8.31,0,10.87,2.56,10.86,10.86c-0.05,38.54-0.1,77.09-0.16,115.63c-5.27,2.69-10.58,2.24-15.92,0.25
		c-2.03-2.96-1.33-6.36-1.39-9.59c-0.06-3.32-1.46-4.83-4.76-4.75c-1.81,0.04-3.62-0.03-5.43-0.03c-34.23,0-68.46,0-102.68-0.01
		c-2.79,0-5.6,0.16-8.37-0.36c-7.15-3.02-12.44-8.4-17.48-14.04c-1.24-1.39-2.24-3.15,0.56-4.2c2.75-0.77,5.56-0.54,8.35-0.54
		c39.51-0.02,79.02-0.01,118.54-0.01c1.48,0,2.96,0.02,4.45-0.01c6.1-0.09,9.1-5.17,6.31-10.57c-0.62-1.19-1.62-1.53-2.8-1.69
		c-1.97-0.26-3.94-0.19-5.92-0.19c-44.12,0-88.24,0-132.37-0.01c-2.96,0-5.93,0.23-8.85-0.5c-6.03-3.22-7.22-9.3-8.77-15.12
		c-0.31-1.15,0.39-2.22,1.58-2.78c2.86-1.1,5.85-0.76,8.79-0.76c45.73-0.02,91.47-0.02,137.2-0.02c1.48,0,2.96,0.01,4.44-0.01
		c6.71-0.08,8.86-3.17,6.93-9.74c-0.51-1.73-1.58-2.35-3.19-2.53c-1.97-0.21-3.94-0.17-5.92-0.17c-48.37,0-96.73,0.01-145.1-0.02
		c-2.93,0-5.95,0.42-8.71-1.08c-3.01-5.07-3.46-10.44-1.91-16.05c0.37-0.54,0.88-0.9,1.47-1.2c1.67-0.86,4.28-0.07,5.11-2.23
		c1.06-2.77,0.56-5.76,0.34-8.66c-0.12-1.51-1.15-2.2-2.55-2.51c-1.56-0.34-3.26-0.39-4.34-1.88
		C113.65,486.9,112.75,481.74,115.53,476.75z"/>
	<path class="st2" d="M140.22,571.63c4.76,6.1,10.96,10.64,16.87,15.49c-2.04,2.3-4.82,1.79-7.39,1.81
		c-11.36,0.09-22.71-0.02-34.07,0.08c-2.02,0.02-4.77-0.77-5.72,1.69c-1.13,2.92-1.04,6.16,0.15,9.17c0.48,1.22,1.82,1.28,2.97,1.41
		c1.97,0.22,3.95,0.14,5.92,0.14c51.18,0,102.37-0.01,153.55,0.03c3.06,0,6.31-0.66,9.01,1.59c5.24,0.01,10.48,0.03,15.71,0.04
		c0.88,12.3,0.13,16.05-15.07,15.97c-59.75-0.32-119.51-0.13-179.27-0.13c-8.67,0-11.1-2.42-11.1-11.08c0-40.17,0-80.33,0-120.5
		c0-8.26,2.53-10.77,10.91-10.75c4.28,0.01,8.55,0.1,12.83,0.15c0,5.16,0,10.33,0,15.49c-0.27,0.42-0.6,0.92-1.06,0.95
		c-5.14,0.35-5.05,3.79-5.58,7.83c-0.76,5.77,4.06,5.29,6.64,7.36c-0.57,5.22,0.91,10.31,1.03,15.48c-0.37,0.58-0.91,0.89-1.52,1.18
		c-1.83,0.86-4.7-0.25-5.51,2.42c-0.82,2.69-0.54,5.56-0.2,8.34c0.31,2.46,2.35,2.33,4.15,2.53c2.69,0.3,5.67-0.73,7.92,1.68
		c1.24,5.65,3.72,10.74,6.91,15.52c-1.43,1.79-3.49,1.61-5.43,1.69c-2.79,0.12-5.6,0.19-8.38,0.02c-4.15-0.25-5.68,1.7-5.3,5.6
		c0.05,0.49,0.05,0.99,0,1.48c-0.35,3.94,1.31,5.69,5.39,5.6c6.4-0.14,12.82-0.1,19.22,0C136.06,569.95,138.49,569.57,140.22,571.63
		z"/>
	<path class="st2" d="M321.14,286.97c10.87-0.05,21.74-0.15,32.61-0.15c46.13-0.02,92.25-0.01,138.38-0.01
		c8.31,0,10.87,2.56,10.86,10.86c-0.05,38.54-0.1,77.09-0.16,115.63c-1.85,1.82-4.24,1.58-6.51,1.58
		c-28.09,0.03-56.19,0.33-84.28-0.1c-16.39-0.25-31.68-5.22-45.74-13.75c-1.55-0.94-3.08-1.91-3.99-3.55
		c-0.3-0.79-0.43-1.69,0.07-2.36c2.26-3.07,0.51-5.05-1.64-7.16c-8.3-8.21-16.55-16.47-24.78-24.75c-4.75-4.78-4.76-5.64-0.06-10.38
		c8.22-8.29,16.52-16.5,24.75-24.78c4.04-4.07,3.99-4.37-0.67-9.01c-4.51-4.49-4.92-4.54-9.07-0.44
		c-7.47,7.41-14.82,14.95-22.39,22.25c-1.49,1.43-3.27,4.65-5.81,0.88c-2.06-5.44-2.76-11.17-3.02-16.86
		c-0.49-10.95-0.19-21.92-0.13-32.89C319.57,290.17,319.7,288.35,321.14,286.97z"/>
	<path class="st2" d="M362.66,395.78c2.56,4.18,7.12,5.67,11.11,7.63c13.89,6.82,28.62,10.1,44.2,9.98
		c28.29-0.22,56.58-0.07,84.87-0.08c0.88,12.3,0.13,16.05-15.07,15.97c-59.75-0.32-119.51-0.13-179.27-0.13
		c-8.67,0-11.1-2.42-11.1-11.08c0-40.17,0-80.33,0-120.5c0-8.26,2.53-10.77,10.91-10.75c4.28,0.01,8.55,0.1,12.83,0.15
		c-0.01,9.68,0.16,19.36-0.07,29.04c-0.22,9.24,1.19,18.24,3.17,27.2c-0.09,3.64-3.26,5.1-5.31,7.27
		c-5.82,6.15-5.95,8.92-0.03,14.87c10.41,10.47,20.87,20.9,31.33,31.34c4.79,4.79,4.79,4.76,9.67,0.25
		C360.63,396.25,361.19,394.83,362.66,395.78z"/>
	<path class="st3" d="M133.4,410.37c-4.6-0.42-6.82,2.81-9.13,5.46c-2.58,2.95-4.69,3.86-7.13,0.09c-0.09-0.14-0.23-0.24-0.34-0.36
		c-2.24-2.39-6.14-4.19-6.4-7.18c-0.24-2.8,3.73-4.56,5.78-6.83c2.78-3.09,3.21-6.49,1.2-9.98c-3.54-6.16-6.28-12.6-8.06-19.5
		c-1.26-4.91-4.99-6.36-9.86-6.24c-7.67,0.19-7.68,0.02-7.68-7.74c0-7.95,0-7.95,7.97-8.01c6.2-0.05,8.19-1.53,9.86-7.43
		c1.62-5.71,3.71-11.2,6.72-16.36c3.56-6.11,3.18-8.46-1.77-13.47c-5.12-5.18-5.12-5.18-0.09-10.2c5.95-5.95,6.05-6.05,11.9-0.18
		c3.72,3.73,7.55,4.2,11.97,1.51c5.22-3.18,10.86-5.39,16.73-7.08c6.59-1.9,7.86-3.65,7.89-10.5c0.03-7.46,0.03-7.46,7.04-7.46
		c8.61,0,8.73,0,8.73,8.68c0,5.1,2.38,7.92,7.19,9.12c5.93,1.47,11.52,3.77,16.83,6.84c5.92,3.42,8.25,3.05,13.08-1.67
		c0.94-0.92,1.97-1.78,2.78-2.81c1.66-2.12,3.25-2.57,4.99-0.13c0.19,0.26,0.47,0.46,0.7,0.7c2.42,2.47,6.19,4.6,6.9,7.49
		c0.81,3.29-3.86,5.02-5.94,7.59c-2.34,2.9-2.87,5.97-1.11,9.14c3.6,6.5,6.52,13.21,8.42,20.42c1.24,4.69,5.02,5.94,9.64,5.84
		c7.74-0.16,7.75-0.01,7.75,7.68c0,8.03,0,8.03-7.9,8.08c-6.41,0.04-8.21,1.46-10.04,7.83c-1.59,5.54-3.69,10.86-6.58,15.88
		c-3.64,6.3-3.24,8.52,2.03,13.84c0.93,0.94,1.79,1.96,2.82,2.77c2.01,1.57,1.61,2.91-0.15,4.3c-0.51,0.4-0.93,0.93-1.41,1.39
		c-2.36,2.29-4.45,5.94-7.16,6.5c-3.06,0.63-4.78-3.8-7.22-5.86c-3.01-2.53-6.22-3.08-9.56-1.2c-6.33,3.57-12.89,6.42-19.97,8.23
		c-4.94,1.26-6.21,5.15-6.09,9.97c0.19,7.52,0.03,7.52-7.41,7.52c-0.16,0-0.33,0-0.49,0c-7.82,0-7.82,0-7.85-7.63
		c-0.03-6.53-1.43-8.48-7.57-10.24c-6.19-1.76-12.1-4.15-17.62-7.49C136.36,410.84,134.88,410.03,133.4,410.37z"/>
	<path class="st3" d="M424.08,626.83c-8.02,0-8.02,0-8.08-7.9c-0.05-6.39-1.41-8.18-7.84-10.04c-5.7-1.65-11.15-3.85-16.32-6.79
		c-5.82-3.31-8.15-2.92-13.04,1.9c-5.14,5.06-5.14,5.06-10.21,0.13c-6.03-5.86-6.12-5.94-0.2-11.92c3.69-3.73,4.17-7.58,1.46-11.98
		c-3.29-5.36-5.53-11.16-7.2-17.21c-1.61-5.81-3.7-7.32-9.9-7.36c-7.91-0.05-7.91-0.05-7.91-8.07c0-0.16,0-0.33,0-0.49
		c0-7.23,0-7.23,7.24-7.25c7.16-0.02,8.77-1.26,10.77-8.16c1.47-5.06,3.31-9.96,5.92-14.57c4.39-7.74,4.39-9.4-2.11-15.32
		c-3.59-3.27-3.93-5.2-0.1-8.65c6.99-6.3,6.81-6.62,13.41-0.44c3.18,2.97,6.61,3.69,10.33,1.57c6.17-3.52,12.59-6.28,19.5-8.06
		c4.08-1.05,6.34-3.93,6.21-8.36c-0.05-1.81,0.18-3.65-0.05-5.43c-0.41-3.15,0.92-4.2,3.88-3.76c0.64,0.1,1.32,0.01,1.97,0.01
		c9.58-0.01,9.65-0.01,9.98,9.43c0.16,4.69,2.64,7.22,6.95,8.31c5.76,1.45,11.24,3.59,16.4,6.55c6.7,3.85,8.84,3.53,14.28-1.84
		c4.87-4.8,4.87-4.8,9.5-0.14c6.22,6.25,6.3,6.33,0.21,12.62c-3.37,3.48-3.84,7.14-1.43,11.16c3.23,5.4,5.61,11.13,7.33,17.16
		c1.87,6.56,3.63,7.89,10.46,7.92c7.49,0.03,7.49,0.03,7.49,7.49c0,0.16,0,0.33,0,0.49c0,7.79,0,7.79-7.65,7.83
		c-6.69,0.03-8.41,1.39-10.34,8.07c-1.6,5.54-3.74,10.85-6.63,15.86c-3.52,6.12-3.14,8.29,1.96,13.44c0.93,0.94,1.78,1.97,2.82,2.76
		c2.2,1.69,1.82,3.15-0.15,4.65c-0.39,0.3-0.7,0.7-1.06,1.04c-2.5,2.37-4.73,6.14-7.57,6.69c-2.81,0.54-4.71-3.94-7.19-6.02
		c-3.04-2.54-6.3-2.87-9.58-0.96c-6.29,3.66-12.91,6.4-19.94,8.28c-3.9,1.05-5.95,3.93-5.83,8.12c0.01,0.49,0,0.99,0,1.48
		C431.78,626.83,431.78,626.83,424.08,626.83z"/>
	<path class="st0" d="M121.4,539.99c-1.14-0.05-2.29-0.14-3.43-0.14c-10.37-0.05-9.87-0.07-10.51-10.41
		c-0.55-8.78,5.82-4.22,9.11-5.58c9.05,0.06,18.11,0.16,27.16,0.16c44.47,0.02,88.93,0.06,133.4-0.09c3.74-0.01,4.61,0.94,4.55,4.6
		c-0.21,11.31-0.04,11.31-11.56,11.31c-47.76,0-95.52,0-143.28,0.01C125.02,539.85,123.21,539.94,121.4,539.99z"/>
	<path class="st0" d="M140.22,571.63c-9.68-0.05-19.37-0.19-29.05-0.1c-2.69,0.03-3.6-0.62-3.65-3.49
		c-0.23-12.39-0.33-12.38,11.93-12.39c2.95,0,5.9-0.09,8.85-0.14c36.4,0.05,72.8,0.1,109.2,0.14c13.51,0.02,27.02,0.07,40.52-0.06
		c2.72-0.03,3.58,0.63,3.62,3.49c0.18,12.38,0.29,12.38-11.97,12.38c-41.35,0-82.69,0-124.04,0.01
		C143.84,571.48,142.03,571.58,140.22,571.63z"/>
	<path class="st0" d="M281.52,603.04c-56.63,0.02-113.25,0.02-169.88,0.13c-3.17,0.01-4.13-0.76-4.12-4.04
		c0.03-11.84-0.1-11.82,11.56-11.85c12.67-0.03,25.34-0.11,38.01-0.16c33.56,0.06,67.13,0.12,100.69,0.17
		c6.75,0.01,13.5,0.12,20.24-0.06c2.69-0.07,3.81,0.55,3.62,3.47C281.37,594.8,281.53,598.93,281.52,603.04z"/>
	<path class="st0" d="M209.89,508.22c-22.06,0-44.12-0.1-66.18,0.09c-3.69,0.03-4.65-0.85-4.58-4.56
		c0.22-11.34,0.04-11.35,11.53-11.35c41.98,0,83.96,0.07,125.94-0.1c4.1-0.02,5.2,0.93,5.08,5.07
		c-0.31,10.84-0.09,10.85-11.04,10.85C250.39,508.22,230.14,508.22,209.89,508.22z"/>
	<path class="st0" d="M115.53,508.38c-7.93-0.41-7.93-0.41-7.93-8.56c0-7.17,0-7.17,7.93-7.58c7.89,0.41,7.89,0.41,7.89,8.56
		C123.42,507.97,123.42,507.97,115.53,508.38z"/>
	<path class="st0" d="M487.19,358.28c0.07,2.08-1.04,4.06-2.71,5.74c-12.3,12.35-24.66,24.65-36.93,37.04
		c-1.63,1.65-2.59,1.65-4.35,0.03c-9.56-8.75-9.61-8.7-0.39-17.91c7.33-7.33,14.54-14.77,22.04-21.92c2.58-2.46,2.89-3.82,0.12-6.48
		c-9.5-9.1-18.61-18.6-28.04-27.78c-2.24-2.18-2.56-3.4-0.16-5.78c8.54-8.49,8.44-8.59,16.91-0.12
		c9.88,9.89,19.76,19.78,29.66,29.65C485.35,352.75,487.16,354.82,487.19,358.28z"/>
	<path class="st0" d="M362.66,395.78c-7.83,7.17-7.83,7.17-15.53-0.53c-9.98-9.98-19.97-19.95-29.93-29.95
		c-5.46-5.48-5.43-9.12-0.04-14.63c2.4-2.45,4.72-4.97,7.08-7.46c9.23-9.1,18.56-18.09,27.6-27.37c2.63-2.7,4-2.55,6.53,0.06
		c7.92,8.18,8.04,8.07-0.1,16.2c-7.55,7.55-15,15.21-22.72,22.59c-2.57,2.46-2.92,3.8-0.12,6.47c9.14,8.74,17.85,17.93,26.98,26.69
		C365.45,390.76,366.52,393,362.66,395.78z"/>
	<path class="st0" d="M382.86,400.92c-4.3-2.34-8.38-4.43-12.33-6.76c-1.49-0.87-0.13-2.11,0.33-2.95
		c14.9-27.35,29.87-54.65,44.74-82.02c1.13-2.07,1.98-2.3,4.04-1.26c11.56,5.81,11.59,5.75,5.5,16.91
		c-13.19,24.17-26.37,48.35-39.58,72.51C384.83,398.67,384.54,400.44,382.86,400.92z"/>
	<path class="st0" d="M210.4,358.08c-0.02,21.86-17.65,39.45-39.52,39.43c-22.11-0.02-39.59-17.66-39.55-39.92
		c0.03-21.75,17.77-39.2,39.78-39.15C192.95,318.49,210.42,336.12,210.4,358.08z"/>
	<path class="st0" d="M424.13,587.28c-22,0.03-39.69-17.42-39.75-39.18c-0.06-22.27,17.43-39.91,39.54-39.88
		c21.91,0.02,39.49,17.57,39.53,39.45C463.49,569.58,445.94,587.26,424.13,587.28z"/>
	<path class="st1" d="M170.73,334.26c13.1,0.01,23.89,10.79,23.83,23.84c-0.05,12.81-10.77,23.52-23.6,23.58
		c-13.03,0.06-23.82-10.74-23.82-23.85C147.15,345.05,157.96,334.25,170.73,334.26z"/>
	<path class="st1" d="M447.63,547.69c0.08,12.81-10.63,23.69-23.39,23.77c-13.12,0.09-23.99-10.61-24.03-23.64
		c-0.04-12.83,10.6-23.65,23.39-23.77C436.68,523.92,447.54,534.61,447.63,547.69z"/>
</g>
</svg>
